G75*
%MOIN*%
%OFA0B0*%
%FSLAX25Y25*%
%IPPOS*%
%LPD*%
%AMOC8*
5,1,8,0,0,1.08239X$1,22.5*
%
%ADD10C,0.00000*%
%ADD11OC8,0.05200*%
%ADD12C,0.05200*%
%ADD13C,0.05150*%
%ADD14C,0.11220*%
%ADD15C,0.05200*%
%ADD16C,0.05937*%
%ADD17C,0.07400*%
%ADD18C,0.00600*%
%ADD19C,0.01600*%
%ADD20C,0.02578*%
D10*
X0007500Y0002833D02*
X0007500Y0199684D01*
X0204350Y0199684D01*
X0204350Y0002833D01*
X0007500Y0002833D01*
D11*
X0021500Y0008333D03*
X0021500Y0018333D03*
X0040000Y0017833D03*
X0040000Y0007833D03*
X0062500Y0032833D03*
X0077500Y0022833D03*
X0077500Y0012833D03*
X0092500Y0012833D03*
X0100000Y0017833D03*
X0092500Y0022833D03*
X0112500Y0022833D03*
X0112500Y0012833D03*
X0072500Y0047833D03*
X0072500Y0057833D03*
X0057500Y0067833D03*
X0047500Y0067833D03*
X0037500Y0067833D03*
X0037500Y0107833D03*
X0047500Y0107833D03*
X0057500Y0107833D03*
X0137500Y0167833D03*
X0137500Y0177833D03*
X0097500Y0192833D03*
X0057500Y0192833D03*
X0157500Y0097833D03*
D12*
X0137500Y0097833D03*
X0062500Y0012833D03*
D13*
X0134626Y0012833D03*
X0142500Y0012833D03*
X0150374Y0012833D03*
X0168421Y0017534D03*
X0173146Y0020684D03*
X0168421Y0023833D03*
X0173146Y0026983D03*
X0168421Y0030133D03*
D14*
X0188500Y0038203D03*
X0188500Y0009463D03*
D15*
X0125100Y0047833D02*
X0119900Y0047833D01*
X0119900Y0057833D02*
X0125100Y0057833D01*
X0125100Y0067833D02*
X0119900Y0067833D01*
X0119900Y0077833D02*
X0125100Y0077833D01*
X0125100Y0087833D02*
X0119900Y0087833D01*
X0119900Y0097833D02*
X0125100Y0097833D01*
X0125100Y0107833D02*
X0119900Y0107833D01*
X0119900Y0117833D02*
X0125100Y0117833D01*
X0125100Y0127833D02*
X0119900Y0127833D01*
X0119900Y0137833D02*
X0125100Y0137833D01*
X0125100Y0147833D02*
X0119900Y0147833D01*
X0119900Y0157833D02*
X0125100Y0157833D01*
X0125100Y0167833D02*
X0119900Y0167833D01*
X0119900Y0177833D02*
X0125100Y0177833D01*
X0095100Y0177833D02*
X0089900Y0177833D01*
X0089900Y0167833D02*
X0095100Y0167833D01*
X0095100Y0157833D02*
X0089900Y0157833D01*
X0089900Y0147833D02*
X0095100Y0147833D01*
X0095100Y0137833D02*
X0089900Y0137833D01*
X0089900Y0127833D02*
X0095100Y0127833D01*
X0095100Y0117833D02*
X0089900Y0117833D01*
X0089900Y0107833D02*
X0095100Y0107833D01*
X0095100Y0097833D02*
X0089900Y0097833D01*
X0089900Y0087833D02*
X0095100Y0087833D01*
X0095100Y0077833D02*
X0089900Y0077833D01*
X0089900Y0067833D02*
X0095100Y0067833D01*
X0095100Y0057833D02*
X0089900Y0057833D01*
X0089900Y0047833D02*
X0095100Y0047833D01*
D16*
X0126752Y0012833D03*
X0158248Y0012833D03*
D17*
X0200000Y0067833D03*
X0200000Y0077833D03*
X0200000Y0087833D03*
X0200000Y0097833D03*
X0200000Y0107833D03*
X0200000Y0117833D03*
X0200000Y0127833D03*
X0200000Y0137833D03*
X0072500Y0102833D03*
X0072500Y0092833D03*
X0072500Y0082833D03*
X0037500Y0042833D03*
X0017500Y0042833D03*
X0012500Y0067833D03*
X0012500Y0077833D03*
X0012500Y0087833D03*
X0012500Y0097833D03*
X0012500Y0107833D03*
X0012500Y0117833D03*
X0012500Y0127833D03*
X0012500Y0137833D03*
X0012500Y0147833D03*
X0012500Y0157833D03*
X0012500Y0167833D03*
X0012500Y0177833D03*
X0012500Y0187833D03*
X0027500Y0187833D03*
X0047500Y0187833D03*
D18*
X0047800Y0187773D02*
X0070200Y0187773D01*
X0070200Y0187175D02*
X0052458Y0187175D01*
X0052500Y0187440D02*
X0052500Y0187533D01*
X0047800Y0187533D01*
X0047800Y0182833D01*
X0047894Y0182833D01*
X0048671Y0182956D01*
X0049419Y0183200D01*
X0050121Y0183557D01*
X0050757Y0184020D01*
X0051314Y0184576D01*
X0051776Y0185213D01*
X0052134Y0185914D01*
X0052377Y0186662D01*
X0052500Y0187440D01*
X0052500Y0188133D02*
X0052500Y0188227D01*
X0052377Y0189004D01*
X0052134Y0189753D01*
X0051776Y0190454D01*
X0051314Y0191091D01*
X0050757Y0191647D01*
X0050121Y0192110D01*
X0049419Y0192467D01*
X0048671Y0192710D01*
X0047894Y0192833D01*
X0047800Y0192833D01*
X0047800Y0188133D01*
X0052500Y0188133D01*
X0052477Y0188372D02*
X0070200Y0188372D01*
X0070200Y0188970D02*
X0059435Y0188970D01*
X0059198Y0188733D02*
X0061600Y0191135D01*
X0061600Y0194532D01*
X0059198Y0196933D01*
X0055802Y0196933D01*
X0053400Y0194532D01*
X0053400Y0191135D01*
X0055802Y0188733D01*
X0059198Y0188733D01*
X0060034Y0189569D02*
X0070200Y0189569D01*
X0070200Y0190167D02*
X0060632Y0190167D01*
X0061231Y0190766D02*
X0070200Y0190766D01*
X0070200Y0191189D02*
X0070200Y0179478D01*
X0070136Y0179413D01*
X0069711Y0178388D01*
X0069711Y0177279D01*
X0070136Y0176253D01*
X0070920Y0175469D01*
X0071945Y0175044D01*
X0073055Y0175044D01*
X0074080Y0175469D01*
X0074864Y0176253D01*
X0075289Y0177279D01*
X0075289Y0178388D01*
X0074864Y0179413D01*
X0074800Y0179478D01*
X0074800Y0191189D01*
X0074864Y0191253D01*
X0075289Y0192279D01*
X0075289Y0193388D01*
X0074864Y0194413D01*
X0074080Y0195198D01*
X0073055Y0195622D01*
X0071945Y0195622D01*
X0070920Y0195198D01*
X0070136Y0194413D01*
X0069711Y0193388D01*
X0069711Y0192279D01*
X0070136Y0191253D01*
X0070200Y0191189D01*
X0070090Y0191364D02*
X0061600Y0191364D01*
X0061600Y0191963D02*
X0069842Y0191963D01*
X0069711Y0192561D02*
X0061600Y0192561D01*
X0061600Y0193160D02*
X0069711Y0193160D01*
X0069864Y0193758D02*
X0061600Y0193758D01*
X0061600Y0194357D02*
X0070112Y0194357D01*
X0070678Y0194955D02*
X0061176Y0194955D01*
X0060578Y0195554D02*
X0071780Y0195554D01*
X0073220Y0195554D02*
X0094422Y0195554D01*
X0093824Y0194955D02*
X0074322Y0194955D01*
X0074888Y0194357D02*
X0093400Y0194357D01*
X0093400Y0194532D02*
X0093400Y0191135D01*
X0095802Y0188733D01*
X0099198Y0188733D01*
X0101600Y0191135D01*
X0101600Y0194532D01*
X0099198Y0196933D01*
X0095802Y0196933D01*
X0093400Y0194532D01*
X0093400Y0193758D02*
X0075136Y0193758D01*
X0075289Y0193160D02*
X0093400Y0193160D01*
X0093400Y0192561D02*
X0075289Y0192561D01*
X0075158Y0191963D02*
X0093400Y0191963D01*
X0093400Y0191364D02*
X0074910Y0191364D01*
X0074800Y0190766D02*
X0093769Y0190766D01*
X0094368Y0190167D02*
X0074800Y0190167D01*
X0074800Y0189569D02*
X0094966Y0189569D01*
X0095565Y0188970D02*
X0074800Y0188970D01*
X0074800Y0188372D02*
X0202500Y0188372D01*
X0202500Y0188970D02*
X0099435Y0188970D01*
X0100034Y0189569D02*
X0202500Y0189569D01*
X0202500Y0190167D02*
X0100632Y0190167D01*
X0101231Y0190766D02*
X0202500Y0190766D01*
X0202500Y0191364D02*
X0101600Y0191364D01*
X0101600Y0191963D02*
X0202500Y0191963D01*
X0202500Y0192561D02*
X0101600Y0192561D01*
X0101600Y0193160D02*
X0202500Y0193160D01*
X0202500Y0193758D02*
X0101600Y0193758D01*
X0101600Y0194357D02*
X0202500Y0194357D01*
X0202500Y0194955D02*
X0101176Y0194955D01*
X0100578Y0195554D02*
X0202500Y0195554D01*
X0202500Y0196152D02*
X0099979Y0196152D01*
X0099381Y0196751D02*
X0202500Y0196751D01*
X0202500Y0197350D02*
X0009000Y0197350D01*
X0009000Y0197833D02*
X0202500Y0197833D01*
X0202500Y0142426D01*
X0201034Y0143033D01*
X0198966Y0143033D01*
X0197054Y0142242D01*
X0195592Y0140779D01*
X0194800Y0138868D01*
X0194800Y0136799D01*
X0195592Y0134888D01*
X0197054Y0133425D01*
X0198483Y0132833D01*
X0197054Y0132242D01*
X0195592Y0130779D01*
X0194800Y0128868D01*
X0194800Y0126799D01*
X0195592Y0124888D01*
X0197054Y0123425D01*
X0198483Y0122833D01*
X0197054Y0122242D01*
X0195592Y0120779D01*
X0194800Y0118868D01*
X0194800Y0116799D01*
X0195592Y0114888D01*
X0197054Y0113425D01*
X0198483Y0112833D01*
X0197054Y0112242D01*
X0195592Y0110779D01*
X0194800Y0108868D01*
X0194800Y0106799D01*
X0195592Y0104888D01*
X0197054Y0103425D01*
X0198483Y0102833D01*
X0197054Y0102242D01*
X0195592Y0100779D01*
X0194800Y0098868D01*
X0194800Y0096799D01*
X0195592Y0094888D01*
X0197054Y0093425D01*
X0198483Y0092833D01*
X0197054Y0092242D01*
X0195592Y0090779D01*
X0194800Y0088868D01*
X0194800Y0086799D01*
X0195592Y0084888D01*
X0197054Y0083425D01*
X0198483Y0082833D01*
X0197054Y0082242D01*
X0195592Y0080779D01*
X0194800Y0078868D01*
X0194800Y0076799D01*
X0195592Y0074888D01*
X0197054Y0073425D01*
X0198802Y0072701D01*
X0198081Y0072467D01*
X0197379Y0072110D01*
X0196743Y0071647D01*
X0196186Y0071091D01*
X0195724Y0070454D01*
X0195366Y0069753D01*
X0195123Y0069004D01*
X0195000Y0068227D01*
X0195000Y0068133D01*
X0199700Y0068133D01*
X0199700Y0067533D01*
X0200300Y0067533D01*
X0200300Y0062833D01*
X0200394Y0062833D01*
X0201171Y0062956D01*
X0201919Y0063200D01*
X0202500Y0063496D01*
X0202500Y0004333D01*
X0193425Y0004333D01*
X0194528Y0005436D01*
X0195610Y0008049D01*
X0195610Y0010878D01*
X0194528Y0013491D01*
X0192528Y0015491D01*
X0189914Y0016573D01*
X0187086Y0016573D01*
X0184472Y0015491D01*
X0182472Y0013491D01*
X0181390Y0010878D01*
X0181390Y0008049D01*
X0182472Y0005436D01*
X0183575Y0004333D01*
X0042298Y0004333D01*
X0044100Y0006135D01*
X0044100Y0009532D01*
X0041698Y0011933D01*
X0038302Y0011933D01*
X0035900Y0009532D01*
X0035900Y0006135D01*
X0037702Y0004333D01*
X0023298Y0004333D01*
X0025600Y0006635D01*
X0025600Y0010032D01*
X0023198Y0012433D01*
X0019802Y0012433D01*
X0017400Y0010032D01*
X0017400Y0006635D01*
X0019702Y0004333D01*
X0009000Y0004333D01*
X0009000Y0064262D01*
X0009243Y0064020D01*
X0009879Y0063557D01*
X0010581Y0063200D01*
X0011329Y0062956D01*
X0012106Y0062833D01*
X0012200Y0062833D01*
X0012200Y0067533D01*
X0012800Y0067533D01*
X0012800Y0062833D01*
X0012894Y0062833D01*
X0013671Y0062956D01*
X0014419Y0063200D01*
X0015121Y0063557D01*
X0015757Y0064020D01*
X0016314Y0064576D01*
X0016776Y0065213D01*
X0017134Y0065914D01*
X0017377Y0066662D01*
X0017500Y0067440D01*
X0017500Y0067533D01*
X0012800Y0067533D01*
X0012800Y0068133D01*
X0017500Y0068133D01*
X0017500Y0068227D01*
X0017377Y0069004D01*
X0017134Y0069753D01*
X0016776Y0070454D01*
X0016314Y0071091D01*
X0015757Y0071647D01*
X0015121Y0072110D01*
X0014419Y0072467D01*
X0013698Y0072701D01*
X0015446Y0073425D01*
X0016908Y0074888D01*
X0017700Y0076799D01*
X0017700Y0078868D01*
X0017337Y0079743D01*
X0020200Y0076881D01*
X0020200Y0059478D01*
X0020136Y0059413D01*
X0019711Y0058388D01*
X0019711Y0057279D01*
X0020136Y0056253D01*
X0020920Y0055469D01*
X0021945Y0055044D01*
X0023055Y0055044D01*
X0024080Y0055469D01*
X0024864Y0056253D01*
X0025289Y0057279D01*
X0025289Y0058388D01*
X0024864Y0059413D01*
X0024800Y0059478D01*
X0024800Y0078786D01*
X0017433Y0086153D01*
X0017700Y0086799D01*
X0017700Y0088868D01*
X0017337Y0089743D01*
X0035200Y0071881D01*
X0035200Y0071332D01*
X0033400Y0069532D01*
X0033400Y0066135D01*
X0035200Y0064335D01*
X0035200Y0047509D01*
X0034554Y0047242D01*
X0033092Y0045779D01*
X0032300Y0043868D01*
X0032300Y0041799D01*
X0033092Y0039888D01*
X0034554Y0038425D01*
X0036466Y0037633D01*
X0038534Y0037633D01*
X0040446Y0038425D01*
X0041908Y0039888D01*
X0042700Y0041799D01*
X0042700Y0043868D01*
X0041908Y0045779D01*
X0040446Y0047242D01*
X0039800Y0047509D01*
X0039800Y0064335D01*
X0041600Y0066135D01*
X0041600Y0069532D01*
X0039800Y0071332D01*
X0039800Y0073786D01*
X0017433Y0096153D01*
X0017700Y0096799D01*
X0017700Y0098868D01*
X0016908Y0100779D01*
X0015446Y0102242D01*
X0014017Y0102833D01*
X0015446Y0103425D01*
X0016908Y0104888D01*
X0017700Y0106799D01*
X0017700Y0108868D01*
X0016908Y0110779D01*
X0015446Y0112242D01*
X0014017Y0112833D01*
X0015446Y0113425D01*
X0016908Y0114888D01*
X0017700Y0116799D01*
X0017700Y0118868D01*
X0016908Y0120779D01*
X0015446Y0122242D01*
X0014017Y0122833D01*
X0015446Y0123425D01*
X0016908Y0124888D01*
X0017700Y0126799D01*
X0017700Y0128868D01*
X0016908Y0130779D01*
X0015446Y0132242D01*
X0014017Y0132833D01*
X0015446Y0133425D01*
X0016908Y0134888D01*
X0017700Y0136799D01*
X0017700Y0138868D01*
X0017337Y0139743D01*
X0021547Y0135533D01*
X0086415Y0135533D01*
X0086424Y0135511D01*
X0087578Y0134358D01*
X0089084Y0133733D01*
X0095916Y0133733D01*
X0097422Y0134358D01*
X0098576Y0135511D01*
X0099200Y0137018D01*
X0099200Y0138649D01*
X0098576Y0140156D01*
X0097422Y0141309D01*
X0095916Y0141933D01*
X0089084Y0141933D01*
X0087578Y0141309D01*
X0086424Y0140156D01*
X0086415Y0140133D01*
X0023453Y0140133D01*
X0017433Y0146153D01*
X0017700Y0146799D01*
X0017700Y0148868D01*
X0017337Y0149743D01*
X0021547Y0145533D01*
X0086415Y0145533D01*
X0086424Y0145511D01*
X0087578Y0144358D01*
X0089084Y0143733D01*
X0095916Y0143733D01*
X0097422Y0144358D01*
X0098576Y0145511D01*
X0099200Y0147018D01*
X0099200Y0148649D01*
X0098576Y0150156D01*
X0097422Y0151309D01*
X0095916Y0151933D01*
X0089084Y0151933D01*
X0087578Y0151309D01*
X0086424Y0150156D01*
X0086415Y0150133D01*
X0023453Y0150133D01*
X0017433Y0156153D01*
X0017700Y0156799D01*
X0017700Y0158868D01*
X0016908Y0160779D01*
X0015446Y0162242D01*
X0013698Y0162965D01*
X0014419Y0163200D01*
X0015121Y0163557D01*
X0015757Y0164020D01*
X0016314Y0164576D01*
X0016776Y0165213D01*
X0017134Y0165914D01*
X0017377Y0166662D01*
X0017500Y0167440D01*
X0017500Y0167533D01*
X0012800Y0167533D01*
X0012800Y0168133D01*
X0017500Y0168133D01*
X0017500Y0168227D01*
X0017377Y0169004D01*
X0017134Y0169753D01*
X0016776Y0170454D01*
X0016314Y0171091D01*
X0015757Y0171647D01*
X0015121Y0172110D01*
X0014419Y0172467D01*
X0013698Y0172701D01*
X0015446Y0173425D01*
X0016908Y0174888D01*
X0017700Y0176799D01*
X0017700Y0178868D01*
X0016908Y0180779D01*
X0015446Y0182242D01*
X0014017Y0182833D01*
X0015446Y0183425D01*
X0016908Y0184888D01*
X0017700Y0186799D01*
X0017700Y0188868D01*
X0016908Y0190779D01*
X0015446Y0192242D01*
X0013534Y0193033D01*
X0011466Y0193033D01*
X0009554Y0192242D01*
X0009000Y0191687D01*
X0009000Y0197833D01*
X0009000Y0196751D02*
X0055619Y0196751D01*
X0055021Y0196152D02*
X0009000Y0196152D01*
X0009000Y0195554D02*
X0054422Y0195554D01*
X0053824Y0194955D02*
X0009000Y0194955D01*
X0009000Y0194357D02*
X0053400Y0194357D01*
X0053400Y0193758D02*
X0009000Y0193758D01*
X0009000Y0193160D02*
X0053400Y0193160D01*
X0053400Y0192561D02*
X0049129Y0192561D01*
X0047800Y0192561D02*
X0047200Y0192561D01*
X0047200Y0192833D02*
X0047106Y0192833D01*
X0046329Y0192710D01*
X0045581Y0192467D01*
X0044879Y0192110D01*
X0044243Y0191647D01*
X0043686Y0191091D01*
X0043224Y0190454D01*
X0042866Y0189753D01*
X0042623Y0189004D01*
X0042500Y0188227D01*
X0042500Y0188133D01*
X0047200Y0188133D01*
X0047200Y0187533D01*
X0047800Y0187533D01*
X0047800Y0188133D01*
X0047200Y0188133D01*
X0047200Y0192833D01*
X0047200Y0191963D02*
X0047800Y0191963D01*
X0047800Y0191364D02*
X0047200Y0191364D01*
X0047200Y0190766D02*
X0047800Y0190766D01*
X0047800Y0190167D02*
X0047200Y0190167D01*
X0047200Y0189569D02*
X0047800Y0189569D01*
X0047800Y0188970D02*
X0047200Y0188970D01*
X0047200Y0188372D02*
X0047800Y0188372D01*
X0047200Y0187773D02*
X0032700Y0187773D01*
X0032700Y0187175D02*
X0042542Y0187175D01*
X0042500Y0187440D02*
X0042623Y0186662D01*
X0042866Y0185914D01*
X0043224Y0185213D01*
X0043686Y0184576D01*
X0044243Y0184020D01*
X0044879Y0183557D01*
X0045581Y0183200D01*
X0046329Y0182956D01*
X0047106Y0182833D01*
X0047200Y0182833D01*
X0047200Y0187533D01*
X0042500Y0187533D01*
X0042500Y0187440D01*
X0042651Y0186576D02*
X0032608Y0186576D01*
X0032700Y0186799D02*
X0031908Y0184888D01*
X0030446Y0183425D01*
X0028534Y0182633D01*
X0026466Y0182633D01*
X0024554Y0183425D01*
X0023092Y0184888D01*
X0022300Y0186799D01*
X0022300Y0188868D01*
X0023092Y0190779D01*
X0024554Y0192242D01*
X0026466Y0193033D01*
X0028534Y0193033D01*
X0030446Y0192242D01*
X0031908Y0190779D01*
X0032700Y0188868D01*
X0032700Y0186799D01*
X0032360Y0185978D02*
X0042846Y0185978D01*
X0043139Y0185379D02*
X0032112Y0185379D01*
X0031801Y0184781D02*
X0043537Y0184781D01*
X0044080Y0184182D02*
X0031203Y0184182D01*
X0030604Y0183584D02*
X0044843Y0183584D01*
X0046241Y0182985D02*
X0029384Y0182985D01*
X0025616Y0182985D02*
X0014384Y0182985D01*
X0015095Y0182387D02*
X0070200Y0182387D01*
X0070200Y0182985D02*
X0048759Y0182985D01*
X0047800Y0182985D02*
X0047200Y0182985D01*
X0047200Y0183584D02*
X0047800Y0183584D01*
X0047800Y0184182D02*
X0047200Y0184182D01*
X0047200Y0184781D02*
X0047800Y0184781D01*
X0047800Y0185379D02*
X0047200Y0185379D01*
X0047200Y0185978D02*
X0047800Y0185978D01*
X0047800Y0186576D02*
X0047200Y0186576D01*
X0047200Y0187175D02*
X0047800Y0187175D01*
X0050157Y0183584D02*
X0070200Y0183584D01*
X0070200Y0184182D02*
X0050920Y0184182D01*
X0051463Y0184781D02*
X0070200Y0184781D01*
X0070200Y0185379D02*
X0051861Y0185379D01*
X0052154Y0185978D02*
X0070200Y0185978D01*
X0070200Y0186576D02*
X0052349Y0186576D01*
X0052382Y0188970D02*
X0055565Y0188970D01*
X0054966Y0189569D02*
X0052193Y0189569D01*
X0051922Y0190167D02*
X0054368Y0190167D01*
X0053769Y0190766D02*
X0051550Y0190766D01*
X0051040Y0191364D02*
X0053400Y0191364D01*
X0053400Y0191963D02*
X0050323Y0191963D01*
X0045871Y0192561D02*
X0029674Y0192561D01*
X0030724Y0191963D02*
X0044677Y0191963D01*
X0043960Y0191364D02*
X0031323Y0191364D01*
X0031914Y0190766D02*
X0043450Y0190766D01*
X0043078Y0190167D02*
X0032162Y0190167D01*
X0032410Y0189569D02*
X0042807Y0189569D01*
X0042618Y0188970D02*
X0032657Y0188970D01*
X0032700Y0188372D02*
X0042523Y0188372D01*
X0025326Y0192561D02*
X0014674Y0192561D01*
X0015724Y0191963D02*
X0024276Y0191963D01*
X0023677Y0191364D02*
X0016323Y0191364D01*
X0016914Y0190766D02*
X0023086Y0190766D01*
X0022838Y0190167D02*
X0017162Y0190167D01*
X0017410Y0189569D02*
X0022590Y0189569D01*
X0022343Y0188970D02*
X0017657Y0188970D01*
X0017700Y0188372D02*
X0022300Y0188372D01*
X0022300Y0187773D02*
X0017700Y0187773D01*
X0017700Y0187175D02*
X0022300Y0187175D01*
X0022392Y0186576D02*
X0017608Y0186576D01*
X0017360Y0185978D02*
X0022640Y0185978D01*
X0022888Y0185379D02*
X0017112Y0185379D01*
X0016801Y0184781D02*
X0023199Y0184781D01*
X0023797Y0184182D02*
X0016203Y0184182D01*
X0015604Y0183584D02*
X0024396Y0183584D01*
X0016986Y0180591D02*
X0070200Y0180591D01*
X0070200Y0179993D02*
X0017234Y0179993D01*
X0017482Y0179394D02*
X0070128Y0179394D01*
X0069880Y0178796D02*
X0017700Y0178796D01*
X0017700Y0178197D02*
X0069711Y0178197D01*
X0069711Y0177599D02*
X0017700Y0177599D01*
X0017700Y0177000D02*
X0069826Y0177000D01*
X0070074Y0176402D02*
X0017535Y0176402D01*
X0017287Y0175803D02*
X0070586Y0175803D01*
X0071558Y0175205D02*
X0017040Y0175205D01*
X0016627Y0174606D02*
X0087329Y0174606D01*
X0087578Y0174358D02*
X0086424Y0175511D01*
X0085800Y0177018D01*
X0085800Y0178649D01*
X0086424Y0180156D01*
X0087578Y0181309D01*
X0089084Y0181933D01*
X0095916Y0181933D01*
X0097422Y0181309D01*
X0098576Y0180156D01*
X0099200Y0178649D01*
X0099200Y0177018D01*
X0098576Y0175511D01*
X0097422Y0174358D01*
X0095916Y0173733D01*
X0089084Y0173733D01*
X0087578Y0174358D01*
X0088422Y0174008D02*
X0016028Y0174008D01*
X0015407Y0173409D02*
X0202500Y0173409D01*
X0202500Y0172811D02*
X0013962Y0172811D01*
X0014920Y0172212D02*
X0202500Y0172212D01*
X0202500Y0171614D02*
X0139235Y0171614D01*
X0139115Y0171733D02*
X0137800Y0171733D01*
X0137800Y0168133D01*
X0141400Y0168133D01*
X0141400Y0169449D01*
X0139115Y0171733D01*
X0139834Y0171015D02*
X0202500Y0171015D01*
X0202500Y0170416D02*
X0140432Y0170416D01*
X0141031Y0169818D02*
X0202500Y0169818D01*
X0202500Y0169219D02*
X0141400Y0169219D01*
X0141400Y0168621D02*
X0202500Y0168621D01*
X0202500Y0168022D02*
X0137800Y0168022D01*
X0137800Y0168133D02*
X0137800Y0167533D01*
X0137800Y0163933D01*
X0139115Y0163933D01*
X0141400Y0166218D01*
X0141400Y0167533D01*
X0137800Y0167533D01*
X0137200Y0167533D01*
X0137200Y0163933D01*
X0135885Y0163933D01*
X0133600Y0166218D01*
X0133600Y0167533D01*
X0137200Y0167533D01*
X0137200Y0168133D01*
X0133600Y0168133D01*
X0133600Y0169449D01*
X0135885Y0171733D01*
X0137200Y0171733D01*
X0137200Y0168133D01*
X0137800Y0168133D01*
X0137800Y0168621D02*
X0137200Y0168621D01*
X0137200Y0169219D02*
X0137800Y0169219D01*
X0137800Y0169818D02*
X0137200Y0169818D01*
X0137200Y0170416D02*
X0137800Y0170416D01*
X0137800Y0171015D02*
X0137200Y0171015D01*
X0137200Y0171614D02*
X0137800Y0171614D01*
X0135765Y0171614D02*
X0126086Y0171614D01*
X0126238Y0171583D02*
X0125484Y0171733D01*
X0122800Y0171733D01*
X0122800Y0168133D01*
X0129000Y0168133D01*
X0129000Y0168217D01*
X0128850Y0168971D01*
X0128556Y0169681D01*
X0128129Y0170319D01*
X0127586Y0170863D01*
X0126947Y0171289D01*
X0126238Y0171583D01*
X0127358Y0171015D02*
X0135166Y0171015D01*
X0134568Y0170416D02*
X0128032Y0170416D01*
X0128464Y0169818D02*
X0133969Y0169818D01*
X0133600Y0169219D02*
X0128747Y0169219D01*
X0128920Y0168621D02*
X0133600Y0168621D01*
X0133600Y0167424D02*
X0128995Y0167424D01*
X0129000Y0167449D02*
X0128850Y0166696D01*
X0128556Y0165986D01*
X0128129Y0165347D01*
X0127586Y0164804D01*
X0126947Y0164377D01*
X0126238Y0164083D01*
X0125484Y0163933D01*
X0122800Y0163933D01*
X0122800Y0167533D01*
X0122200Y0167533D01*
X0122200Y0163933D01*
X0119516Y0163933D01*
X0118762Y0164083D01*
X0118053Y0164377D01*
X0117414Y0164804D01*
X0116871Y0165347D01*
X0116444Y0165986D01*
X0116150Y0166696D01*
X0116000Y0167449D01*
X0116000Y0167533D01*
X0122200Y0167533D01*
X0122200Y0168133D01*
X0116000Y0168133D01*
X0116000Y0168217D01*
X0116150Y0168971D01*
X0116444Y0169681D01*
X0116871Y0170319D01*
X0117414Y0170863D01*
X0118053Y0171289D01*
X0118762Y0171583D01*
X0119516Y0171733D01*
X0122200Y0171733D01*
X0122200Y0168133D01*
X0122800Y0168133D01*
X0122800Y0167533D01*
X0129000Y0167533D01*
X0129000Y0167449D01*
X0128876Y0166825D02*
X0133600Y0166825D01*
X0133600Y0166227D02*
X0128656Y0166227D01*
X0128317Y0165628D02*
X0134189Y0165628D01*
X0134788Y0165030D02*
X0127812Y0165030D01*
X0127028Y0164431D02*
X0135387Y0164431D01*
X0137200Y0164431D02*
X0137800Y0164431D01*
X0137800Y0165030D02*
X0137200Y0165030D01*
X0137200Y0165628D02*
X0137800Y0165628D01*
X0137800Y0166227D02*
X0137200Y0166227D01*
X0137200Y0166825D02*
X0137800Y0166825D01*
X0137800Y0167424D02*
X0137200Y0167424D01*
X0137200Y0168022D02*
X0122800Y0168022D01*
X0122800Y0167424D02*
X0122200Y0167424D01*
X0122200Y0168022D02*
X0099200Y0168022D01*
X0099200Y0167424D02*
X0116005Y0167424D01*
X0116124Y0166825D02*
X0099120Y0166825D01*
X0099200Y0167018D02*
X0099200Y0168649D01*
X0098576Y0170156D01*
X0097422Y0171309D01*
X0095916Y0171933D01*
X0089084Y0171933D01*
X0087578Y0171309D01*
X0086424Y0170156D01*
X0085800Y0168649D01*
X0085800Y0167018D01*
X0086424Y0165511D01*
X0087578Y0164358D01*
X0089084Y0163733D01*
X0095916Y0163733D01*
X0097422Y0164358D01*
X0098576Y0165511D01*
X0099200Y0167018D01*
X0098872Y0166227D02*
X0116344Y0166227D01*
X0116683Y0165628D02*
X0098624Y0165628D01*
X0098095Y0165030D02*
X0117188Y0165030D01*
X0117972Y0164431D02*
X0097496Y0164431D01*
X0096156Y0163833D02*
X0202500Y0163833D01*
X0202500Y0164431D02*
X0139613Y0164431D01*
X0140212Y0165030D02*
X0202500Y0165030D01*
X0202500Y0165628D02*
X0140810Y0165628D01*
X0141400Y0166227D02*
X0202500Y0166227D01*
X0202500Y0166825D02*
X0141400Y0166825D01*
X0141400Y0167424D02*
X0202500Y0167424D01*
X0202500Y0163234D02*
X0014487Y0163234D01*
X0014494Y0162636D02*
X0202500Y0162636D01*
X0202500Y0162037D02*
X0015650Y0162037D01*
X0016248Y0161439D02*
X0087891Y0161439D01*
X0087578Y0161309D02*
X0086424Y0160156D01*
X0085800Y0158649D01*
X0085800Y0157018D01*
X0086424Y0155511D01*
X0087578Y0154358D01*
X0089084Y0153733D01*
X0095916Y0153733D01*
X0097422Y0154358D01*
X0098576Y0155511D01*
X0099200Y0157018D01*
X0099200Y0158649D01*
X0098576Y0160156D01*
X0097422Y0161309D01*
X0095916Y0161933D01*
X0089084Y0161933D01*
X0087578Y0161309D01*
X0087109Y0160840D02*
X0016847Y0160840D01*
X0017131Y0160242D02*
X0086510Y0160242D01*
X0086212Y0159643D02*
X0017379Y0159643D01*
X0017627Y0159045D02*
X0085964Y0159045D01*
X0085800Y0158446D02*
X0017700Y0158446D01*
X0017700Y0157848D02*
X0085800Y0157848D01*
X0085800Y0157249D02*
X0017700Y0157249D01*
X0017639Y0156651D02*
X0085952Y0156651D01*
X0086200Y0156052D02*
X0017534Y0156052D01*
X0018132Y0155454D02*
X0086481Y0155454D01*
X0087080Y0154855D02*
X0018731Y0154855D01*
X0019329Y0154257D02*
X0087821Y0154257D01*
X0088914Y0151863D02*
X0021723Y0151863D01*
X0021125Y0152461D02*
X0202500Y0152461D01*
X0202500Y0151863D02*
X0126086Y0151863D01*
X0125916Y0151933D02*
X0127422Y0151309D01*
X0128576Y0150156D01*
X0129200Y0148649D01*
X0129200Y0147018D01*
X0128576Y0145511D01*
X0127422Y0144358D01*
X0125916Y0143733D01*
X0119084Y0143733D01*
X0117578Y0144358D01*
X0116424Y0145511D01*
X0115800Y0147018D01*
X0115800Y0148649D01*
X0116424Y0150156D01*
X0117578Y0151309D01*
X0119084Y0151933D01*
X0125916Y0151933D01*
X0127467Y0151264D02*
X0202500Y0151264D01*
X0202500Y0150666D02*
X0128066Y0150666D01*
X0128613Y0150067D02*
X0202500Y0150067D01*
X0202500Y0149469D02*
X0128860Y0149469D01*
X0129108Y0148870D02*
X0202500Y0148870D01*
X0202500Y0148272D02*
X0129200Y0148272D01*
X0129200Y0147673D02*
X0202500Y0147673D01*
X0202500Y0147075D02*
X0129200Y0147075D01*
X0128976Y0146476D02*
X0202500Y0146476D01*
X0202500Y0145878D02*
X0128728Y0145878D01*
X0128344Y0145279D02*
X0202500Y0145279D01*
X0202500Y0144681D02*
X0127745Y0144681D01*
X0126757Y0144082D02*
X0202500Y0144082D01*
X0202500Y0143483D02*
X0020103Y0143483D01*
X0020701Y0142885D02*
X0198608Y0142885D01*
X0197163Y0142286D02*
X0021300Y0142286D01*
X0021898Y0141688D02*
X0088492Y0141688D01*
X0087358Y0141089D02*
X0022497Y0141089D01*
X0023095Y0140491D02*
X0086759Y0140491D01*
X0088243Y0144082D02*
X0019504Y0144082D01*
X0018905Y0144681D02*
X0087255Y0144681D01*
X0086656Y0145279D02*
X0018307Y0145279D01*
X0017708Y0145878D02*
X0021203Y0145878D01*
X0020605Y0146476D02*
X0017566Y0146476D01*
X0017700Y0147075D02*
X0020006Y0147075D01*
X0019408Y0147673D02*
X0017700Y0147673D01*
X0017700Y0148272D02*
X0018809Y0148272D01*
X0018211Y0148870D02*
X0017699Y0148870D01*
X0017612Y0149469D02*
X0017451Y0149469D01*
X0020526Y0153060D02*
X0202500Y0153060D01*
X0202500Y0153658D02*
X0019928Y0153658D01*
X0022322Y0151264D02*
X0087533Y0151264D01*
X0086934Y0150666D02*
X0022920Y0150666D01*
X0017787Y0139294D02*
X0017523Y0139294D01*
X0017700Y0138695D02*
X0018385Y0138695D01*
X0018984Y0138097D02*
X0017700Y0138097D01*
X0017700Y0137498D02*
X0019582Y0137498D01*
X0020181Y0136900D02*
X0017700Y0136900D01*
X0017494Y0136301D02*
X0020779Y0136301D01*
X0021378Y0135703D02*
X0017246Y0135703D01*
X0016998Y0135104D02*
X0086831Y0135104D01*
X0087429Y0134506D02*
X0016526Y0134506D01*
X0015928Y0133907D02*
X0088664Y0133907D01*
X0089084Y0131933D02*
X0087578Y0131309D01*
X0086424Y0130156D01*
X0085800Y0128649D01*
X0085800Y0127018D01*
X0086424Y0125511D01*
X0087578Y0124358D01*
X0089084Y0123733D01*
X0095916Y0123733D01*
X0097422Y0124358D01*
X0098576Y0125511D01*
X0099200Y0127018D01*
X0099200Y0128649D01*
X0098576Y0130156D01*
X0097422Y0131309D01*
X0095916Y0131933D01*
X0089084Y0131933D01*
X0088070Y0131513D02*
X0016174Y0131513D01*
X0016772Y0130915D02*
X0087183Y0130915D01*
X0086585Y0130316D02*
X0017100Y0130316D01*
X0017348Y0129718D02*
X0086243Y0129718D01*
X0085995Y0129119D02*
X0017596Y0129119D01*
X0017700Y0128521D02*
X0085800Y0128521D01*
X0085800Y0127922D02*
X0017700Y0127922D01*
X0017700Y0127324D02*
X0085800Y0127324D01*
X0085921Y0126725D02*
X0017669Y0126725D01*
X0017422Y0126127D02*
X0086169Y0126127D01*
X0086417Y0125528D02*
X0017174Y0125528D01*
X0016926Y0124930D02*
X0087005Y0124930D01*
X0087641Y0124331D02*
X0016352Y0124331D01*
X0015753Y0123733D02*
X0196747Y0123733D01*
X0196148Y0124331D02*
X0127359Y0124331D01*
X0127422Y0124358D02*
X0128576Y0125511D01*
X0129200Y0127018D01*
X0129200Y0128649D01*
X0128576Y0130156D01*
X0127422Y0131309D01*
X0125916Y0131933D01*
X0119084Y0131933D01*
X0117578Y0131309D01*
X0116424Y0130156D01*
X0115800Y0128649D01*
X0115800Y0127018D01*
X0116424Y0125511D01*
X0117578Y0124358D01*
X0119084Y0123733D01*
X0125916Y0123733D01*
X0127422Y0124358D01*
X0127995Y0124930D02*
X0195574Y0124930D01*
X0195326Y0125528D02*
X0128583Y0125528D01*
X0128831Y0126127D02*
X0195078Y0126127D01*
X0194831Y0126725D02*
X0129079Y0126725D01*
X0129200Y0127324D02*
X0194800Y0127324D01*
X0194800Y0127922D02*
X0129200Y0127922D01*
X0129200Y0128521D02*
X0194800Y0128521D01*
X0194904Y0129119D02*
X0129005Y0129119D01*
X0128757Y0129718D02*
X0195152Y0129718D01*
X0195400Y0130316D02*
X0128415Y0130316D01*
X0127817Y0130915D02*
X0195728Y0130915D01*
X0196326Y0131513D02*
X0126930Y0131513D01*
X0125916Y0133733D02*
X0127422Y0134358D01*
X0128576Y0135511D01*
X0129200Y0137018D01*
X0129200Y0138649D01*
X0128576Y0140156D01*
X0127422Y0141309D01*
X0125916Y0141933D01*
X0119084Y0141933D01*
X0117578Y0141309D01*
X0116424Y0140156D01*
X0115800Y0138649D01*
X0115800Y0137018D01*
X0116424Y0135511D01*
X0117578Y0134358D01*
X0119084Y0133733D01*
X0125916Y0133733D01*
X0126336Y0133907D02*
X0196572Y0133907D01*
X0195974Y0134506D02*
X0127571Y0134506D01*
X0128169Y0135104D02*
X0195502Y0135104D01*
X0195254Y0135703D02*
X0128655Y0135703D01*
X0128903Y0136301D02*
X0195006Y0136301D01*
X0194800Y0136900D02*
X0129151Y0136900D01*
X0129200Y0137498D02*
X0194800Y0137498D01*
X0194800Y0138097D02*
X0129200Y0138097D01*
X0129181Y0138695D02*
X0194800Y0138695D01*
X0194977Y0139294D02*
X0128933Y0139294D01*
X0128685Y0139892D02*
X0195224Y0139892D01*
X0195472Y0140491D02*
X0128241Y0140491D01*
X0127642Y0141089D02*
X0195902Y0141089D01*
X0196501Y0141688D02*
X0126508Y0141688D01*
X0118492Y0141688D02*
X0096508Y0141688D01*
X0097642Y0141089D02*
X0117358Y0141089D01*
X0116759Y0140491D02*
X0098241Y0140491D01*
X0098685Y0139892D02*
X0116315Y0139892D01*
X0116067Y0139294D02*
X0098933Y0139294D01*
X0099181Y0138695D02*
X0115819Y0138695D01*
X0115800Y0138097D02*
X0099200Y0138097D01*
X0099200Y0137498D02*
X0115800Y0137498D01*
X0115849Y0136900D02*
X0099151Y0136900D01*
X0098903Y0136301D02*
X0116097Y0136301D01*
X0116345Y0135703D02*
X0098655Y0135703D01*
X0098169Y0135104D02*
X0116831Y0135104D01*
X0117429Y0134506D02*
X0097571Y0134506D01*
X0096336Y0133907D02*
X0118664Y0133907D01*
X0118070Y0131513D02*
X0096930Y0131513D01*
X0097817Y0130915D02*
X0117183Y0130915D01*
X0116585Y0130316D02*
X0098415Y0130316D01*
X0098757Y0129718D02*
X0116243Y0129718D01*
X0115995Y0129119D02*
X0099005Y0129119D01*
X0099200Y0128521D02*
X0115800Y0128521D01*
X0115800Y0127922D02*
X0099200Y0127922D01*
X0099200Y0127324D02*
X0115800Y0127324D01*
X0115921Y0126725D02*
X0099079Y0126725D01*
X0098831Y0126127D02*
X0116169Y0126127D01*
X0116417Y0125528D02*
X0098583Y0125528D01*
X0097995Y0124930D02*
X0117005Y0124930D01*
X0117641Y0124331D02*
X0097359Y0124331D01*
X0095916Y0121933D02*
X0097422Y0121309D01*
X0098576Y0120156D01*
X0099200Y0118649D01*
X0099200Y0117018D01*
X0098576Y0115511D01*
X0097422Y0114358D01*
X0095916Y0113733D01*
X0089084Y0113733D01*
X0087578Y0114358D01*
X0086424Y0115511D01*
X0085800Y0117018D01*
X0085800Y0118649D01*
X0086424Y0120156D01*
X0087578Y0121309D01*
X0089084Y0121933D01*
X0095916Y0121933D01*
X0097351Y0121339D02*
X0117649Y0121339D01*
X0117578Y0121309D02*
X0116424Y0120156D01*
X0115800Y0118649D01*
X0115800Y0117018D01*
X0116424Y0115511D01*
X0117578Y0114358D01*
X0119084Y0113733D01*
X0125916Y0113733D01*
X0127422Y0114358D01*
X0128576Y0115511D01*
X0129200Y0117018D01*
X0129200Y0118649D01*
X0128576Y0120156D01*
X0127422Y0121309D01*
X0125916Y0121933D01*
X0119084Y0121933D01*
X0117578Y0121309D01*
X0117008Y0120740D02*
X0097992Y0120740D01*
X0098582Y0120142D02*
X0116418Y0120142D01*
X0116170Y0119543D02*
X0098830Y0119543D01*
X0099078Y0118945D02*
X0115922Y0118945D01*
X0115800Y0118346D02*
X0099200Y0118346D01*
X0099200Y0117748D02*
X0115800Y0117748D01*
X0115800Y0117149D02*
X0099200Y0117149D01*
X0099006Y0116550D02*
X0115994Y0116550D01*
X0116241Y0115952D02*
X0098759Y0115952D01*
X0098418Y0115353D02*
X0116582Y0115353D01*
X0117180Y0114755D02*
X0097820Y0114755D01*
X0096937Y0114156D02*
X0118063Y0114156D01*
X0119084Y0111933D02*
X0117578Y0111309D01*
X0116424Y0110156D01*
X0115800Y0108649D01*
X0115800Y0107018D01*
X0116424Y0105511D01*
X0117578Y0104358D01*
X0119084Y0103733D01*
X0125916Y0103733D01*
X0127422Y0104358D01*
X0128576Y0105511D01*
X0129200Y0107018D01*
X0129200Y0108649D01*
X0128576Y0110156D01*
X0127422Y0111309D01*
X0125916Y0111933D01*
X0119084Y0111933D01*
X0118672Y0111762D02*
X0039369Y0111762D01*
X0039198Y0111933D02*
X0035802Y0111933D01*
X0033400Y0109532D01*
X0033400Y0106135D01*
X0035802Y0103733D01*
X0039198Y0103733D01*
X0041600Y0106135D01*
X0041600Y0109532D01*
X0039198Y0111933D01*
X0039968Y0111164D02*
X0045315Y0111164D01*
X0045885Y0111733D02*
X0043600Y0109449D01*
X0043600Y0108133D01*
X0047200Y0108133D01*
X0047200Y0107533D01*
X0047800Y0107533D01*
X0047800Y0103933D01*
X0049115Y0103933D01*
X0051400Y0106218D01*
X0051400Y0107533D01*
X0047800Y0107533D01*
X0047800Y0108133D01*
X0051400Y0108133D01*
X0051400Y0109449D01*
X0049115Y0111733D01*
X0047800Y0111733D01*
X0047800Y0108133D01*
X0047200Y0108133D01*
X0047200Y0111733D01*
X0045885Y0111733D01*
X0047200Y0111164D02*
X0047800Y0111164D01*
X0047800Y0110565D02*
X0047200Y0110565D01*
X0047200Y0109967D02*
X0047800Y0109967D01*
X0047800Y0109368D02*
X0047200Y0109368D01*
X0047200Y0108770D02*
X0047800Y0108770D01*
X0047800Y0108171D02*
X0047200Y0108171D01*
X0047200Y0107573D02*
X0041600Y0107573D01*
X0041600Y0108171D02*
X0043600Y0108171D01*
X0043600Y0108770D02*
X0041600Y0108770D01*
X0041600Y0109368D02*
X0043600Y0109368D01*
X0044118Y0109967D02*
X0041165Y0109967D01*
X0040566Y0110565D02*
X0044717Y0110565D01*
X0043600Y0107533D02*
X0043600Y0106218D01*
X0045885Y0103933D01*
X0047200Y0103933D01*
X0047200Y0107533D01*
X0043600Y0107533D01*
X0043600Y0106974D02*
X0041600Y0106974D01*
X0041600Y0106376D02*
X0043600Y0106376D01*
X0044041Y0105777D02*
X0041242Y0105777D01*
X0040644Y0105179D02*
X0044639Y0105179D01*
X0045238Y0104580D02*
X0040045Y0104580D01*
X0039447Y0103982D02*
X0045836Y0103982D01*
X0047200Y0103982D02*
X0047800Y0103982D01*
X0047800Y0104580D02*
X0047200Y0104580D01*
X0047200Y0105179D02*
X0047800Y0105179D01*
X0047800Y0105777D02*
X0047200Y0105777D01*
X0047200Y0106376D02*
X0047800Y0106376D01*
X0047800Y0106974D02*
X0047200Y0106974D01*
X0047800Y0107573D02*
X0057200Y0107573D01*
X0057200Y0107533D02*
X0053600Y0107533D01*
X0053600Y0106218D01*
X0055885Y0103933D01*
X0057200Y0103933D01*
X0057200Y0107533D01*
X0057800Y0107533D01*
X0057800Y0103933D01*
X0059115Y0103933D01*
X0061400Y0106218D01*
X0061400Y0107533D01*
X0057800Y0107533D01*
X0057800Y0108133D01*
X0061400Y0108133D01*
X0061400Y0109449D01*
X0059115Y0111733D01*
X0057800Y0111733D01*
X0057800Y0108133D01*
X0057200Y0108133D01*
X0057200Y0107533D01*
X0057200Y0106974D02*
X0057800Y0106974D01*
X0057800Y0106376D02*
X0057200Y0106376D01*
X0057200Y0105777D02*
X0057800Y0105777D01*
X0057800Y0105179D02*
X0057200Y0105179D01*
X0057200Y0104580D02*
X0057800Y0104580D01*
X0057800Y0103982D02*
X0057200Y0103982D01*
X0055836Y0103982D02*
X0049164Y0103982D01*
X0049762Y0104580D02*
X0055238Y0104580D01*
X0054639Y0105179D02*
X0050361Y0105179D01*
X0050959Y0105777D02*
X0054041Y0105777D01*
X0053600Y0106376D02*
X0051400Y0106376D01*
X0051400Y0106974D02*
X0053600Y0106974D01*
X0053600Y0108133D02*
X0057200Y0108133D01*
X0057200Y0111733D01*
X0055885Y0111733D01*
X0053600Y0109449D01*
X0053600Y0108133D01*
X0053600Y0108171D02*
X0051400Y0108171D01*
X0051400Y0108770D02*
X0053600Y0108770D01*
X0053600Y0109368D02*
X0051400Y0109368D01*
X0050882Y0109967D02*
X0054118Y0109967D01*
X0054717Y0110565D02*
X0050283Y0110565D01*
X0049685Y0111164D02*
X0055315Y0111164D01*
X0057200Y0111164D02*
X0057800Y0111164D01*
X0057800Y0110565D02*
X0057200Y0110565D01*
X0057200Y0109967D02*
X0057800Y0109967D01*
X0057800Y0109368D02*
X0057200Y0109368D01*
X0057200Y0108770D02*
X0057800Y0108770D01*
X0057800Y0108171D02*
X0057200Y0108171D01*
X0057800Y0107573D02*
X0070354Y0107573D01*
X0069554Y0107242D02*
X0071466Y0108033D01*
X0073534Y0108033D01*
X0075446Y0107242D01*
X0076908Y0105779D01*
X0077700Y0103868D01*
X0077700Y0101799D01*
X0076908Y0099888D01*
X0075446Y0098425D01*
X0073698Y0097701D01*
X0074419Y0097467D01*
X0075121Y0097110D01*
X0075757Y0096647D01*
X0076314Y0096091D01*
X0076776Y0095454D01*
X0077134Y0094753D01*
X0077377Y0094004D01*
X0077500Y0093227D01*
X0077500Y0093133D01*
X0072800Y0093133D01*
X0072800Y0092533D01*
X0077500Y0092533D01*
X0077500Y0092440D01*
X0077377Y0091662D01*
X0077134Y0090914D01*
X0076776Y0090213D01*
X0076314Y0089576D01*
X0075757Y0089020D01*
X0075121Y0088557D01*
X0074419Y0088200D01*
X0073698Y0087965D01*
X0075446Y0087242D01*
X0076908Y0085779D01*
X0077700Y0083868D01*
X0077700Y0081799D01*
X0076908Y0079888D01*
X0075446Y0078425D01*
X0073534Y0077633D01*
X0071466Y0077633D01*
X0069554Y0078425D01*
X0068092Y0079888D01*
X0067300Y0081799D01*
X0067300Y0083868D01*
X0068092Y0085779D01*
X0069554Y0087242D01*
X0071302Y0087965D01*
X0070581Y0088200D01*
X0069879Y0088557D01*
X0069243Y0089020D01*
X0068686Y0089576D01*
X0068224Y0090213D01*
X0067866Y0090914D01*
X0067623Y0091662D01*
X0067500Y0092440D01*
X0067500Y0092533D01*
X0072200Y0092533D01*
X0072200Y0093133D01*
X0067500Y0093133D01*
X0067500Y0093227D01*
X0067623Y0094004D01*
X0067866Y0094753D01*
X0068224Y0095454D01*
X0068686Y0096091D01*
X0069243Y0096647D01*
X0069879Y0097110D01*
X0070581Y0097467D01*
X0071302Y0097701D01*
X0069554Y0098425D01*
X0068092Y0099888D01*
X0067300Y0101799D01*
X0067300Y0103868D01*
X0068092Y0105779D01*
X0069554Y0107242D01*
X0069287Y0106974D02*
X0061400Y0106974D01*
X0061400Y0106376D02*
X0068689Y0106376D01*
X0068091Y0105777D02*
X0060959Y0105777D01*
X0060361Y0105179D02*
X0067843Y0105179D01*
X0067595Y0104580D02*
X0059762Y0104580D01*
X0059164Y0103982D02*
X0067347Y0103982D01*
X0067300Y0103383D02*
X0015345Y0103383D01*
X0016002Y0103982D02*
X0035553Y0103982D01*
X0034955Y0104580D02*
X0016601Y0104580D01*
X0017029Y0105179D02*
X0034356Y0105179D01*
X0033758Y0105777D02*
X0017277Y0105777D01*
X0017525Y0106376D02*
X0033400Y0106376D01*
X0033400Y0106974D02*
X0017700Y0106974D01*
X0017700Y0107573D02*
X0033400Y0107573D01*
X0033400Y0108171D02*
X0017700Y0108171D01*
X0017700Y0108770D02*
X0033400Y0108770D01*
X0033400Y0109368D02*
X0017493Y0109368D01*
X0017245Y0109967D02*
X0033835Y0109967D01*
X0034434Y0110565D02*
X0016997Y0110565D01*
X0016523Y0111164D02*
X0035032Y0111164D01*
X0035631Y0111762D02*
X0015925Y0111762D01*
X0015158Y0112361D02*
X0197342Y0112361D01*
X0196575Y0111762D02*
X0126328Y0111762D01*
X0127568Y0111164D02*
X0195977Y0111164D01*
X0195503Y0110565D02*
X0178192Y0110565D01*
X0178055Y0110622D02*
X0176945Y0110622D01*
X0175920Y0110198D01*
X0175136Y0109413D01*
X0174711Y0108388D01*
X0174711Y0107279D01*
X0175136Y0106253D01*
X0175200Y0106189D01*
X0175200Y0098603D01*
X0174864Y0099413D01*
X0174080Y0100198D01*
X0173055Y0100622D01*
X0171945Y0100622D01*
X0170920Y0100198D01*
X0170136Y0099413D01*
X0169711Y0098388D01*
X0169711Y0097279D01*
X0170136Y0096253D01*
X0170200Y0096189D01*
X0170200Y0053786D01*
X0152036Y0035622D01*
X0151945Y0035622D01*
X0150920Y0035198D01*
X0150136Y0034413D01*
X0149711Y0033388D01*
X0149711Y0032279D01*
X0150136Y0031253D01*
X0150920Y0030469D01*
X0151945Y0030044D01*
X0153055Y0030044D01*
X0154080Y0030469D01*
X0154864Y0031253D01*
X0155289Y0032279D01*
X0155289Y0032370D01*
X0174800Y0051881D01*
X0174800Y0096189D01*
X0174864Y0096253D01*
X0175200Y0097064D01*
X0175200Y0030543D01*
X0173956Y0031058D01*
X0172335Y0031058D01*
X0172199Y0031001D01*
X0172147Y0031263D01*
X0171855Y0031968D01*
X0171431Y0032603D01*
X0170891Y0033142D01*
X0170257Y0033566D01*
X0169551Y0033858D01*
X0168803Y0034007D01*
X0168721Y0034007D01*
X0168721Y0030433D01*
X0168121Y0030433D01*
X0168121Y0034007D01*
X0168040Y0034007D01*
X0167291Y0033858D01*
X0166586Y0033566D01*
X0165951Y0033142D01*
X0165412Y0032603D01*
X0164987Y0031968D01*
X0164695Y0031263D01*
X0164546Y0030514D01*
X0164546Y0030433D01*
X0168121Y0030433D01*
X0168121Y0029833D01*
X0164546Y0029833D01*
X0164546Y0029751D01*
X0164695Y0029002D01*
X0164987Y0028297D01*
X0165412Y0027662D01*
X0165950Y0027124D01*
X0164967Y0026142D01*
X0164346Y0024644D01*
X0164346Y0023023D01*
X0164967Y0021525D01*
X0165808Y0020684D01*
X0164967Y0019842D01*
X0164346Y0018345D01*
X0164346Y0016724D01*
X0164967Y0015226D01*
X0166113Y0014080D01*
X0167611Y0013459D01*
X0169232Y0013459D01*
X0170729Y0014080D01*
X0171876Y0015226D01*
X0172449Y0016609D01*
X0173956Y0016609D01*
X0175454Y0017229D01*
X0176600Y0018376D01*
X0177220Y0019873D01*
X0177220Y0021494D01*
X0177217Y0021502D01*
X0179800Y0024085D01*
X0179800Y0106189D01*
X0179864Y0106253D01*
X0180289Y0107279D01*
X0180289Y0108388D01*
X0179864Y0109413D01*
X0179080Y0110198D01*
X0178055Y0110622D01*
X0176808Y0110565D02*
X0128166Y0110565D01*
X0128654Y0109967D02*
X0175689Y0109967D01*
X0175117Y0109368D02*
X0128902Y0109368D01*
X0129150Y0108770D02*
X0174869Y0108770D01*
X0174711Y0108171D02*
X0129200Y0108171D01*
X0129200Y0107573D02*
X0174711Y0107573D01*
X0174837Y0106974D02*
X0129182Y0106974D01*
X0128934Y0106376D02*
X0175085Y0106376D01*
X0175200Y0105777D02*
X0128686Y0105777D01*
X0128244Y0105179D02*
X0175200Y0105179D01*
X0175200Y0104580D02*
X0127645Y0104580D01*
X0126515Y0103982D02*
X0175200Y0103982D01*
X0175200Y0103383D02*
X0077700Y0103383D01*
X0077700Y0102785D02*
X0175200Y0102785D01*
X0175200Y0102186D02*
X0077700Y0102186D01*
X0077612Y0101588D02*
X0088250Y0101588D01*
X0087578Y0101309D02*
X0086424Y0100156D01*
X0085800Y0098649D01*
X0085800Y0097018D01*
X0086424Y0095511D01*
X0087578Y0094358D01*
X0089084Y0093733D01*
X0095916Y0093733D01*
X0097422Y0094358D01*
X0098576Y0095511D01*
X0099200Y0097018D01*
X0099200Y0098649D01*
X0098576Y0100156D01*
X0097422Y0101309D01*
X0095916Y0101933D01*
X0089084Y0101933D01*
X0087578Y0101309D01*
X0087258Y0100989D02*
X0077365Y0100989D01*
X0077117Y0100391D02*
X0086659Y0100391D01*
X0086274Y0099792D02*
X0076813Y0099792D01*
X0076214Y0099194D02*
X0086026Y0099194D01*
X0085800Y0098595D02*
X0075616Y0098595D01*
X0074411Y0097997D02*
X0085800Y0097997D01*
X0085800Y0097398D02*
X0074555Y0097398D01*
X0075547Y0096800D02*
X0085890Y0096800D01*
X0086138Y0096201D02*
X0076203Y0096201D01*
X0076668Y0095603D02*
X0086386Y0095603D01*
X0086931Y0095004D02*
X0077006Y0095004D01*
X0077246Y0094406D02*
X0087529Y0094406D01*
X0088906Y0093807D02*
X0077408Y0093807D01*
X0077500Y0093209D02*
X0170200Y0093209D01*
X0170200Y0093807D02*
X0138494Y0093807D01*
X0138316Y0093733D02*
X0139822Y0094358D01*
X0140976Y0095511D01*
X0141600Y0097018D01*
X0141600Y0098649D01*
X0140976Y0100156D01*
X0139822Y0101309D01*
X0138316Y0101933D01*
X0136684Y0101933D01*
X0135178Y0101309D01*
X0134024Y0100156D01*
X0133400Y0098649D01*
X0133400Y0097018D01*
X0134024Y0095511D01*
X0135178Y0094358D01*
X0136684Y0093733D01*
X0138316Y0093733D01*
X0139870Y0094406D02*
X0155412Y0094406D01*
X0155885Y0093933D02*
X0157200Y0093933D01*
X0157200Y0097533D01*
X0157800Y0097533D01*
X0157800Y0093933D01*
X0159115Y0093933D01*
X0161400Y0096218D01*
X0161400Y0097533D01*
X0157800Y0097533D01*
X0157800Y0098133D01*
X0161400Y0098133D01*
X0161400Y0099449D01*
X0159115Y0101733D01*
X0157800Y0101733D01*
X0157800Y0098133D01*
X0157200Y0098133D01*
X0157200Y0097533D01*
X0153600Y0097533D01*
X0153600Y0096218D01*
X0155885Y0093933D01*
X0157200Y0094406D02*
X0157800Y0094406D01*
X0157800Y0095004D02*
X0157200Y0095004D01*
X0157200Y0095603D02*
X0157800Y0095603D01*
X0157800Y0096201D02*
X0157200Y0096201D01*
X0157200Y0096800D02*
X0157800Y0096800D01*
X0157800Y0097398D02*
X0157200Y0097398D01*
X0157200Y0097997D02*
X0141600Y0097997D01*
X0141600Y0098595D02*
X0153600Y0098595D01*
X0153600Y0098133D02*
X0153600Y0099449D01*
X0155885Y0101733D01*
X0157200Y0101733D01*
X0157200Y0098133D01*
X0153600Y0098133D01*
X0153600Y0097398D02*
X0141600Y0097398D01*
X0141510Y0096800D02*
X0153600Y0096800D01*
X0153617Y0096201D02*
X0141262Y0096201D01*
X0141014Y0095603D02*
X0154215Y0095603D01*
X0154814Y0095004D02*
X0140469Y0095004D01*
X0136506Y0093807D02*
X0126094Y0093807D01*
X0125916Y0093733D02*
X0127422Y0094358D01*
X0128576Y0095511D01*
X0129200Y0097018D01*
X0129200Y0098649D01*
X0128576Y0100156D01*
X0127422Y0101309D01*
X0125916Y0101933D01*
X0119084Y0101933D01*
X0117578Y0101309D01*
X0116424Y0100156D01*
X0115800Y0098649D01*
X0115800Y0097018D01*
X0116424Y0095511D01*
X0117578Y0094358D01*
X0119084Y0093733D01*
X0125916Y0093733D01*
X0127470Y0094406D02*
X0135129Y0094406D01*
X0134531Y0095004D02*
X0128069Y0095004D01*
X0128614Y0095603D02*
X0133986Y0095603D01*
X0133738Y0096201D02*
X0128862Y0096201D01*
X0129110Y0096800D02*
X0133490Y0096800D01*
X0133400Y0097398D02*
X0129200Y0097398D01*
X0129200Y0097997D02*
X0133400Y0097997D01*
X0133400Y0098595D02*
X0129200Y0098595D01*
X0128974Y0099194D02*
X0133626Y0099194D01*
X0133874Y0099792D02*
X0128726Y0099792D01*
X0128341Y0100391D02*
X0134259Y0100391D01*
X0134858Y0100989D02*
X0127742Y0100989D01*
X0126750Y0101588D02*
X0135850Y0101588D01*
X0139150Y0101588D02*
X0155739Y0101588D01*
X0155140Y0100989D02*
X0140142Y0100989D01*
X0140741Y0100391D02*
X0154542Y0100391D01*
X0153943Y0099792D02*
X0141126Y0099792D01*
X0141374Y0099194D02*
X0153600Y0099194D01*
X0157200Y0099194D02*
X0157800Y0099194D01*
X0157800Y0099792D02*
X0157200Y0099792D01*
X0157200Y0100391D02*
X0157800Y0100391D01*
X0157800Y0100989D02*
X0157200Y0100989D01*
X0157200Y0101588D02*
X0157800Y0101588D01*
X0159261Y0101588D02*
X0175200Y0101588D01*
X0175200Y0100989D02*
X0159860Y0100989D01*
X0160458Y0100391D02*
X0171386Y0100391D01*
X0170515Y0099792D02*
X0161057Y0099792D01*
X0161400Y0099194D02*
X0170045Y0099194D01*
X0169797Y0098595D02*
X0161400Y0098595D01*
X0161400Y0097398D02*
X0169711Y0097398D01*
X0169711Y0097997D02*
X0157800Y0097997D01*
X0157800Y0098595D02*
X0157200Y0098595D01*
X0161400Y0096800D02*
X0169909Y0096800D01*
X0170188Y0096201D02*
X0161383Y0096201D01*
X0160785Y0095603D02*
X0170200Y0095603D01*
X0170200Y0095004D02*
X0160186Y0095004D01*
X0159588Y0094406D02*
X0170200Y0094406D01*
X0170200Y0092610D02*
X0072800Y0092610D01*
X0072200Y0092610D02*
X0020976Y0092610D01*
X0021574Y0092012D02*
X0067568Y0092012D01*
X0067704Y0091413D02*
X0022173Y0091413D01*
X0022772Y0090814D02*
X0067917Y0090814D01*
X0068222Y0090216D02*
X0023370Y0090216D01*
X0023969Y0089617D02*
X0068656Y0089617D01*
X0069244Y0089019D02*
X0024567Y0089019D01*
X0025166Y0088420D02*
X0070147Y0088420D01*
X0070955Y0087822D02*
X0025764Y0087822D01*
X0026363Y0087223D02*
X0069536Y0087223D01*
X0068938Y0086625D02*
X0026961Y0086625D01*
X0027560Y0086026D02*
X0068339Y0086026D01*
X0067946Y0085428D02*
X0028158Y0085428D01*
X0028757Y0084829D02*
X0067698Y0084829D01*
X0067450Y0084231D02*
X0029355Y0084231D01*
X0029954Y0083632D02*
X0067300Y0083632D01*
X0067300Y0083034D02*
X0030552Y0083034D01*
X0031151Y0082435D02*
X0067300Y0082435D01*
X0067300Y0081837D02*
X0031749Y0081837D01*
X0032348Y0081238D02*
X0067532Y0081238D01*
X0067780Y0080640D02*
X0032946Y0080640D01*
X0033545Y0080041D02*
X0068028Y0080041D01*
X0068537Y0079443D02*
X0034143Y0079443D01*
X0034742Y0078844D02*
X0069135Y0078844D01*
X0069987Y0078246D02*
X0035340Y0078246D01*
X0035939Y0077647D02*
X0071432Y0077647D01*
X0073568Y0077647D02*
X0085800Y0077647D01*
X0085800Y0077049D02*
X0036537Y0077049D01*
X0037136Y0076450D02*
X0086035Y0076450D01*
X0085800Y0077018D02*
X0086424Y0075511D01*
X0087578Y0074358D01*
X0089084Y0073733D01*
X0095916Y0073733D01*
X0097422Y0074358D01*
X0098576Y0075511D01*
X0099200Y0077018D01*
X0099200Y0078649D01*
X0098576Y0080156D01*
X0097422Y0081309D01*
X0095916Y0081933D01*
X0089084Y0081933D01*
X0087578Y0081309D01*
X0086424Y0080156D01*
X0085800Y0078649D01*
X0085800Y0077018D01*
X0085800Y0078246D02*
X0075013Y0078246D01*
X0075865Y0078844D02*
X0085881Y0078844D01*
X0086129Y0079443D02*
X0076463Y0079443D01*
X0076972Y0080041D02*
X0086377Y0080041D01*
X0086908Y0080640D02*
X0077220Y0080640D01*
X0077468Y0081238D02*
X0087507Y0081238D01*
X0088852Y0081837D02*
X0077700Y0081837D01*
X0077700Y0082435D02*
X0170200Y0082435D01*
X0170200Y0081837D02*
X0126148Y0081837D01*
X0125916Y0081933D02*
X0127422Y0081309D01*
X0128576Y0080156D01*
X0129200Y0078649D01*
X0129200Y0077018D01*
X0128576Y0075511D01*
X0127422Y0074358D01*
X0125916Y0073733D01*
X0119084Y0073733D01*
X0117578Y0074358D01*
X0116424Y0075511D01*
X0115800Y0077018D01*
X0115800Y0078649D01*
X0116424Y0080156D01*
X0117578Y0081309D01*
X0119084Y0081933D01*
X0125916Y0081933D01*
X0127493Y0081238D02*
X0170200Y0081238D01*
X0170200Y0080640D02*
X0128092Y0080640D01*
X0128623Y0080041D02*
X0170200Y0080041D01*
X0170200Y0079443D02*
X0128871Y0079443D01*
X0129119Y0078844D02*
X0170200Y0078844D01*
X0170200Y0078246D02*
X0129200Y0078246D01*
X0129200Y0077647D02*
X0170200Y0077647D01*
X0170200Y0077049D02*
X0129200Y0077049D01*
X0128965Y0076450D02*
X0170200Y0076450D01*
X0170200Y0075852D02*
X0128717Y0075852D01*
X0128318Y0075253D02*
X0170200Y0075253D01*
X0170200Y0074655D02*
X0127720Y0074655D01*
X0126695Y0074056D02*
X0170200Y0074056D01*
X0170200Y0073458D02*
X0039800Y0073458D01*
X0039800Y0072859D02*
X0170200Y0072859D01*
X0170200Y0072261D02*
X0039800Y0072261D01*
X0039800Y0071662D02*
X0045531Y0071662D01*
X0045802Y0071933D02*
X0043400Y0069532D01*
X0043400Y0066135D01*
X0045200Y0064335D01*
X0045200Y0038786D01*
X0026628Y0020214D01*
X0025308Y0020324D01*
X0023198Y0022433D01*
X0019802Y0022433D01*
X0017400Y0020032D01*
X0017400Y0016635D01*
X0019802Y0014233D01*
X0023198Y0014233D01*
X0024722Y0015757D01*
X0026469Y0015611D01*
X0026547Y0015533D01*
X0027404Y0015533D01*
X0028258Y0015462D01*
X0028342Y0015533D01*
X0028453Y0015533D01*
X0029059Y0016139D01*
X0029713Y0016693D01*
X0029722Y0016803D01*
X0049800Y0036881D01*
X0049800Y0064335D01*
X0051600Y0066135D01*
X0051600Y0069532D01*
X0049198Y0071933D01*
X0045802Y0071933D01*
X0044932Y0071064D02*
X0040068Y0071064D01*
X0040666Y0070465D02*
X0044334Y0070465D01*
X0043735Y0069867D02*
X0041265Y0069867D01*
X0041600Y0069268D02*
X0043400Y0069268D01*
X0043400Y0068670D02*
X0041600Y0068670D01*
X0041600Y0068071D02*
X0043400Y0068071D01*
X0043400Y0067473D02*
X0041600Y0067473D01*
X0041600Y0066874D02*
X0043400Y0066874D01*
X0043400Y0066276D02*
X0041600Y0066276D01*
X0041142Y0065677D02*
X0043858Y0065677D01*
X0044457Y0065079D02*
X0040543Y0065079D01*
X0039945Y0064480D02*
X0045055Y0064480D01*
X0045200Y0063881D02*
X0039800Y0063881D01*
X0039800Y0063283D02*
X0045200Y0063283D01*
X0045200Y0062684D02*
X0039800Y0062684D01*
X0039800Y0062086D02*
X0045200Y0062086D01*
X0045200Y0061487D02*
X0039800Y0061487D01*
X0039800Y0060889D02*
X0045200Y0060889D01*
X0045200Y0060290D02*
X0039800Y0060290D01*
X0039800Y0059692D02*
X0045200Y0059692D01*
X0045200Y0059093D02*
X0039800Y0059093D01*
X0039800Y0058495D02*
X0045200Y0058495D01*
X0045200Y0057896D02*
X0039800Y0057896D01*
X0039800Y0057298D02*
X0045200Y0057298D01*
X0045200Y0056699D02*
X0039800Y0056699D01*
X0039800Y0056101D02*
X0045200Y0056101D01*
X0045200Y0055502D02*
X0039800Y0055502D01*
X0039800Y0054904D02*
X0045200Y0054904D01*
X0045200Y0054305D02*
X0039800Y0054305D01*
X0039800Y0053707D02*
X0045200Y0053707D01*
X0045200Y0053108D02*
X0039800Y0053108D01*
X0039800Y0052510D02*
X0045200Y0052510D01*
X0045200Y0051911D02*
X0039800Y0051911D01*
X0039800Y0051313D02*
X0045200Y0051313D01*
X0045200Y0050714D02*
X0039800Y0050714D01*
X0039800Y0050116D02*
X0045200Y0050116D01*
X0045200Y0049517D02*
X0039800Y0049517D01*
X0039800Y0048919D02*
X0045200Y0048919D01*
X0045200Y0048320D02*
X0039800Y0048320D01*
X0039800Y0047722D02*
X0045200Y0047722D01*
X0045200Y0047123D02*
X0040564Y0047123D01*
X0041163Y0046525D02*
X0045200Y0046525D01*
X0045200Y0045926D02*
X0041761Y0045926D01*
X0042095Y0045328D02*
X0045200Y0045328D01*
X0045200Y0044729D02*
X0042343Y0044729D01*
X0042591Y0044131D02*
X0045200Y0044131D01*
X0045200Y0043532D02*
X0042700Y0043532D01*
X0042700Y0042934D02*
X0045200Y0042934D01*
X0045200Y0042335D02*
X0042700Y0042335D01*
X0042674Y0041737D02*
X0045200Y0041737D01*
X0045200Y0041138D02*
X0042426Y0041138D01*
X0042178Y0040540D02*
X0045200Y0040540D01*
X0045200Y0039941D02*
X0041930Y0039941D01*
X0041363Y0039343D02*
X0045200Y0039343D01*
X0045158Y0038744D02*
X0040765Y0038744D01*
X0039771Y0038145D02*
X0044559Y0038145D01*
X0043961Y0037547D02*
X0009000Y0037547D01*
X0009000Y0038145D02*
X0015747Y0038145D01*
X0015581Y0038200D02*
X0016329Y0037956D01*
X0017106Y0037833D01*
X0017200Y0037833D01*
X0017200Y0042533D01*
X0017800Y0042533D01*
X0017800Y0037833D01*
X0017894Y0037833D01*
X0018671Y0037956D01*
X0019419Y0038200D01*
X0020121Y0038557D01*
X0020757Y0039020D01*
X0021314Y0039576D01*
X0021776Y0040213D01*
X0022134Y0040914D01*
X0022377Y0041662D01*
X0022500Y0042440D01*
X0022500Y0042533D01*
X0017800Y0042533D01*
X0017800Y0043133D01*
X0022500Y0043133D01*
X0022500Y0043227D01*
X0022377Y0044004D01*
X0022134Y0044753D01*
X0021776Y0045454D01*
X0021314Y0046091D01*
X0020757Y0046647D01*
X0020121Y0047110D01*
X0019419Y0047467D01*
X0018671Y0047710D01*
X0017894Y0047833D01*
X0017800Y0047833D01*
X0017800Y0043133D01*
X0017200Y0043133D01*
X0017200Y0042533D01*
X0012500Y0042533D01*
X0012500Y0042440D01*
X0012623Y0041662D01*
X0012866Y0040914D01*
X0013224Y0040213D01*
X0013686Y0039576D01*
X0014243Y0039020D01*
X0014879Y0038557D01*
X0015581Y0038200D01*
X0014622Y0038744D02*
X0009000Y0038744D01*
X0009000Y0039343D02*
X0013920Y0039343D01*
X0013421Y0039941D02*
X0009000Y0039941D01*
X0009000Y0040540D02*
X0013057Y0040540D01*
X0012794Y0041138D02*
X0009000Y0041138D01*
X0009000Y0041737D02*
X0012611Y0041737D01*
X0012517Y0042335D02*
X0009000Y0042335D01*
X0009000Y0042934D02*
X0017200Y0042934D01*
X0017200Y0043133D02*
X0012500Y0043133D01*
X0012500Y0043227D01*
X0012623Y0044004D01*
X0012866Y0044753D01*
X0013224Y0045454D01*
X0013686Y0046091D01*
X0014243Y0046647D01*
X0014879Y0047110D01*
X0015581Y0047467D01*
X0016329Y0047710D01*
X0017106Y0047833D01*
X0017200Y0047833D01*
X0017200Y0043133D01*
X0017200Y0043532D02*
X0017800Y0043532D01*
X0017800Y0042934D02*
X0032300Y0042934D01*
X0032300Y0043532D02*
X0022452Y0043532D01*
X0022336Y0044131D02*
X0032409Y0044131D01*
X0032657Y0044729D02*
X0022141Y0044729D01*
X0021841Y0045328D02*
X0032905Y0045328D01*
X0033239Y0045926D02*
X0021433Y0045926D01*
X0020880Y0046525D02*
X0033837Y0046525D01*
X0034436Y0047123D02*
X0020094Y0047123D01*
X0018598Y0047722D02*
X0035200Y0047722D01*
X0035200Y0048320D02*
X0009000Y0048320D01*
X0009000Y0047722D02*
X0016402Y0047722D01*
X0017200Y0047722D02*
X0017800Y0047722D01*
X0017800Y0047123D02*
X0017200Y0047123D01*
X0017200Y0046525D02*
X0017800Y0046525D01*
X0017800Y0045926D02*
X0017200Y0045926D01*
X0017200Y0045328D02*
X0017800Y0045328D01*
X0017800Y0044729D02*
X0017200Y0044729D01*
X0017200Y0044131D02*
X0017800Y0044131D01*
X0017800Y0042335D02*
X0017200Y0042335D01*
X0017200Y0041737D02*
X0017800Y0041737D01*
X0017800Y0041138D02*
X0017200Y0041138D01*
X0017200Y0040540D02*
X0017800Y0040540D01*
X0017800Y0039941D02*
X0017200Y0039941D01*
X0017200Y0039343D02*
X0017800Y0039343D01*
X0017800Y0038744D02*
X0017200Y0038744D01*
X0017200Y0038145D02*
X0017800Y0038145D01*
X0019253Y0038145D02*
X0035229Y0038145D01*
X0034235Y0038744D02*
X0020378Y0038744D01*
X0021080Y0039343D02*
X0033637Y0039343D01*
X0033070Y0039941D02*
X0021579Y0039941D01*
X0021943Y0040540D02*
X0032822Y0040540D01*
X0032574Y0041138D02*
X0022206Y0041138D01*
X0022389Y0041737D02*
X0032326Y0041737D01*
X0032300Y0042335D02*
X0022483Y0042335D01*
X0014906Y0047123D02*
X0009000Y0047123D01*
X0009000Y0046525D02*
X0014120Y0046525D01*
X0013567Y0045926D02*
X0009000Y0045926D01*
X0009000Y0045328D02*
X0013159Y0045328D01*
X0012859Y0044729D02*
X0009000Y0044729D01*
X0009000Y0044131D02*
X0012664Y0044131D01*
X0012548Y0043532D02*
X0009000Y0043532D01*
X0009000Y0048919D02*
X0035200Y0048919D01*
X0035200Y0049517D02*
X0009000Y0049517D01*
X0009000Y0050116D02*
X0035200Y0050116D01*
X0035200Y0050714D02*
X0009000Y0050714D01*
X0009000Y0051313D02*
X0035200Y0051313D01*
X0035200Y0051911D02*
X0009000Y0051911D01*
X0009000Y0052510D02*
X0035200Y0052510D01*
X0035200Y0053108D02*
X0009000Y0053108D01*
X0009000Y0053707D02*
X0035200Y0053707D01*
X0035200Y0054305D02*
X0009000Y0054305D01*
X0009000Y0054904D02*
X0035200Y0054904D01*
X0035200Y0055502D02*
X0024113Y0055502D01*
X0024712Y0056101D02*
X0035200Y0056101D01*
X0035200Y0056699D02*
X0025049Y0056699D01*
X0025289Y0057298D02*
X0035200Y0057298D01*
X0035200Y0057896D02*
X0025289Y0057896D01*
X0025245Y0058495D02*
X0035200Y0058495D01*
X0035200Y0059093D02*
X0024997Y0059093D01*
X0024800Y0059692D02*
X0035200Y0059692D01*
X0035200Y0060290D02*
X0024800Y0060290D01*
X0024800Y0060889D02*
X0035200Y0060889D01*
X0035200Y0061487D02*
X0024800Y0061487D01*
X0024800Y0062086D02*
X0035200Y0062086D01*
X0035200Y0062684D02*
X0024800Y0062684D01*
X0024800Y0063283D02*
X0035200Y0063283D01*
X0035200Y0063881D02*
X0024800Y0063881D01*
X0024800Y0064480D02*
X0035055Y0064480D01*
X0034457Y0065079D02*
X0024800Y0065079D01*
X0024800Y0065677D02*
X0033858Y0065677D01*
X0033400Y0066276D02*
X0024800Y0066276D01*
X0024800Y0066874D02*
X0033400Y0066874D01*
X0033400Y0067473D02*
X0024800Y0067473D01*
X0024800Y0068071D02*
X0033400Y0068071D01*
X0033400Y0068670D02*
X0024800Y0068670D01*
X0024800Y0069268D02*
X0033400Y0069268D01*
X0033735Y0069867D02*
X0024800Y0069867D01*
X0024800Y0070465D02*
X0034334Y0070465D01*
X0034932Y0071064D02*
X0024800Y0071064D01*
X0024800Y0071662D02*
X0035200Y0071662D01*
X0034820Y0072261D02*
X0024800Y0072261D01*
X0024800Y0072859D02*
X0034221Y0072859D01*
X0033623Y0073458D02*
X0024800Y0073458D01*
X0024800Y0074056D02*
X0033024Y0074056D01*
X0032426Y0074655D02*
X0024800Y0074655D01*
X0024800Y0075253D02*
X0031827Y0075253D01*
X0031229Y0075852D02*
X0024800Y0075852D01*
X0024800Y0076450D02*
X0030630Y0076450D01*
X0030032Y0077049D02*
X0024800Y0077049D01*
X0024800Y0077647D02*
X0029433Y0077647D01*
X0028835Y0078246D02*
X0024800Y0078246D01*
X0024742Y0078844D02*
X0028236Y0078844D01*
X0027638Y0079443D02*
X0024143Y0079443D01*
X0023545Y0080041D02*
X0027039Y0080041D01*
X0026441Y0080640D02*
X0022946Y0080640D01*
X0022348Y0081238D02*
X0025842Y0081238D01*
X0025244Y0081837D02*
X0021749Y0081837D01*
X0021151Y0082435D02*
X0024645Y0082435D01*
X0024047Y0083034D02*
X0020552Y0083034D01*
X0019954Y0083632D02*
X0023448Y0083632D01*
X0022850Y0084231D02*
X0019355Y0084231D01*
X0018757Y0084829D02*
X0022251Y0084829D01*
X0021653Y0085428D02*
X0018158Y0085428D01*
X0017560Y0086026D02*
X0021054Y0086026D01*
X0020456Y0086625D02*
X0017628Y0086625D01*
X0017700Y0087223D02*
X0019857Y0087223D01*
X0019259Y0087822D02*
X0017700Y0087822D01*
X0017700Y0088420D02*
X0018660Y0088420D01*
X0018062Y0089019D02*
X0017637Y0089019D01*
X0017463Y0089617D02*
X0017389Y0089617D01*
X0020377Y0093209D02*
X0067500Y0093209D01*
X0067592Y0093807D02*
X0019779Y0093807D01*
X0019180Y0094406D02*
X0067754Y0094406D01*
X0067994Y0095004D02*
X0018582Y0095004D01*
X0017983Y0095603D02*
X0068332Y0095603D01*
X0068797Y0096201D02*
X0017452Y0096201D01*
X0017700Y0096800D02*
X0069453Y0096800D01*
X0070445Y0097398D02*
X0017700Y0097398D01*
X0017700Y0097997D02*
X0070589Y0097997D01*
X0069384Y0098595D02*
X0017700Y0098595D01*
X0017565Y0099194D02*
X0068786Y0099194D01*
X0068187Y0099792D02*
X0017317Y0099792D01*
X0017069Y0100391D02*
X0067883Y0100391D01*
X0067635Y0100989D02*
X0016698Y0100989D01*
X0016100Y0101588D02*
X0067388Y0101588D01*
X0067300Y0102186D02*
X0015501Y0102186D01*
X0014134Y0102785D02*
X0067300Y0102785D01*
X0061400Y0108171D02*
X0086000Y0108171D01*
X0086000Y0108133D02*
X0092200Y0108133D01*
X0092200Y0107533D01*
X0092800Y0107533D01*
X0092800Y0103933D01*
X0095484Y0103933D01*
X0096238Y0104083D01*
X0096947Y0104377D01*
X0097586Y0104804D01*
X0098129Y0105347D01*
X0098556Y0105986D01*
X0098850Y0106696D01*
X0099000Y0107449D01*
X0099000Y0107533D01*
X0092800Y0107533D01*
X0092800Y0108133D01*
X0099000Y0108133D01*
X0099000Y0108217D01*
X0098850Y0108971D01*
X0098556Y0109681D01*
X0098129Y0110319D01*
X0097586Y0110863D01*
X0096947Y0111289D01*
X0096238Y0111583D01*
X0095484Y0111733D01*
X0092800Y0111733D01*
X0092800Y0108133D01*
X0092200Y0108133D01*
X0092200Y0111733D01*
X0089516Y0111733D01*
X0088762Y0111583D01*
X0088053Y0111289D01*
X0087414Y0110863D01*
X0086871Y0110319D01*
X0086444Y0109681D01*
X0086150Y0108971D01*
X0086000Y0108217D01*
X0086000Y0108133D01*
X0086000Y0107533D02*
X0086000Y0107449D01*
X0086150Y0106696D01*
X0086444Y0105986D01*
X0086871Y0105347D01*
X0087414Y0104804D01*
X0088053Y0104377D01*
X0088762Y0104083D01*
X0089516Y0103933D01*
X0092200Y0103933D01*
X0092200Y0107533D01*
X0086000Y0107533D01*
X0086094Y0106974D02*
X0075713Y0106974D01*
X0076311Y0106376D02*
X0086282Y0106376D01*
X0086583Y0105777D02*
X0076909Y0105777D01*
X0077157Y0105179D02*
X0087039Y0105179D01*
X0087749Y0104580D02*
X0077405Y0104580D01*
X0077653Y0103982D02*
X0089272Y0103982D01*
X0092200Y0103982D02*
X0092800Y0103982D01*
X0092800Y0104580D02*
X0092200Y0104580D01*
X0092200Y0105179D02*
X0092800Y0105179D01*
X0092800Y0105777D02*
X0092200Y0105777D01*
X0092200Y0106376D02*
X0092800Y0106376D01*
X0092800Y0106974D02*
X0092200Y0106974D01*
X0092200Y0107573D02*
X0074646Y0107573D01*
X0086110Y0108770D02*
X0061400Y0108770D01*
X0061400Y0109368D02*
X0086315Y0109368D01*
X0086635Y0109967D02*
X0060882Y0109967D01*
X0060283Y0110565D02*
X0087117Y0110565D01*
X0087865Y0111164D02*
X0059685Y0111164D01*
X0077432Y0092012D02*
X0170200Y0092012D01*
X0170200Y0091413D02*
X0126649Y0091413D01*
X0126947Y0091289D02*
X0126238Y0091583D01*
X0125484Y0091733D01*
X0122800Y0091733D01*
X0122800Y0088133D01*
X0129000Y0088133D01*
X0129000Y0088217D01*
X0128850Y0088971D01*
X0128556Y0089681D01*
X0128129Y0090319D01*
X0127586Y0090863D01*
X0126947Y0091289D01*
X0127634Y0090814D02*
X0170200Y0090814D01*
X0170200Y0090216D02*
X0128198Y0090216D01*
X0128582Y0089617D02*
X0170200Y0089617D01*
X0170200Y0089019D02*
X0128830Y0089019D01*
X0128960Y0088420D02*
X0170200Y0088420D01*
X0170200Y0087822D02*
X0122800Y0087822D01*
X0122800Y0087533D02*
X0122800Y0088133D01*
X0122200Y0088133D01*
X0122200Y0087533D01*
X0122800Y0087533D01*
X0122800Y0083933D01*
X0125484Y0083933D01*
X0126238Y0084083D01*
X0126947Y0084377D01*
X0127586Y0084804D01*
X0128129Y0085347D01*
X0128556Y0085986D01*
X0128850Y0086696D01*
X0129000Y0087449D01*
X0129000Y0087533D01*
X0122800Y0087533D01*
X0122800Y0087223D02*
X0122200Y0087223D01*
X0122200Y0087533D02*
X0122200Y0083933D01*
X0119516Y0083933D01*
X0118762Y0084083D01*
X0118053Y0084377D01*
X0117414Y0084804D01*
X0116871Y0085347D01*
X0116444Y0085986D01*
X0116150Y0086696D01*
X0116000Y0087449D01*
X0116000Y0087533D01*
X0122200Y0087533D01*
X0122200Y0087822D02*
X0099200Y0087822D01*
X0099200Y0088420D02*
X0116040Y0088420D01*
X0116000Y0088217D02*
X0116150Y0088971D01*
X0116444Y0089681D01*
X0116871Y0090319D01*
X0117414Y0090863D01*
X0118053Y0091289D01*
X0118762Y0091583D01*
X0119516Y0091733D01*
X0122200Y0091733D01*
X0122200Y0088133D01*
X0116000Y0088133D01*
X0116000Y0088217D01*
X0116170Y0089019D02*
X0099047Y0089019D01*
X0099200Y0088649D02*
X0098576Y0090156D01*
X0097422Y0091309D01*
X0095916Y0091933D01*
X0089084Y0091933D01*
X0087578Y0091309D01*
X0086424Y0090156D01*
X0085800Y0088649D01*
X0085800Y0087018D01*
X0086424Y0085511D01*
X0087578Y0084358D01*
X0089084Y0083733D01*
X0095916Y0083733D01*
X0097422Y0084358D01*
X0098576Y0085511D01*
X0099200Y0087018D01*
X0099200Y0088649D01*
X0098799Y0089617D02*
X0116418Y0089617D01*
X0116802Y0090216D02*
X0098516Y0090216D01*
X0097917Y0090814D02*
X0117366Y0090814D01*
X0118351Y0091413D02*
X0097172Y0091413D01*
X0096094Y0093807D02*
X0118906Y0093807D01*
X0117529Y0094406D02*
X0097470Y0094406D01*
X0098069Y0095004D02*
X0116931Y0095004D01*
X0116386Y0095603D02*
X0098614Y0095603D01*
X0098862Y0096201D02*
X0116138Y0096201D01*
X0115890Y0096800D02*
X0099110Y0096800D01*
X0099200Y0097398D02*
X0115800Y0097398D01*
X0115800Y0097997D02*
X0099200Y0097997D01*
X0099200Y0098595D02*
X0115800Y0098595D01*
X0116026Y0099194D02*
X0098974Y0099194D01*
X0098726Y0099792D02*
X0116274Y0099792D01*
X0116659Y0100391D02*
X0098341Y0100391D01*
X0097742Y0100989D02*
X0117258Y0100989D01*
X0118250Y0101588D02*
X0096750Y0101588D01*
X0095727Y0103982D02*
X0118485Y0103982D01*
X0117355Y0104580D02*
X0097251Y0104580D01*
X0097961Y0105179D02*
X0116756Y0105179D01*
X0116314Y0105777D02*
X0098417Y0105777D01*
X0098718Y0106376D02*
X0116066Y0106376D01*
X0115818Y0106974D02*
X0098906Y0106974D01*
X0099000Y0108171D02*
X0115800Y0108171D01*
X0115800Y0107573D02*
X0092800Y0107573D01*
X0092800Y0108171D02*
X0092200Y0108171D01*
X0092200Y0108770D02*
X0092800Y0108770D01*
X0092800Y0109368D02*
X0092200Y0109368D01*
X0092200Y0109967D02*
X0092800Y0109967D01*
X0092800Y0110565D02*
X0092200Y0110565D01*
X0092200Y0111164D02*
X0092800Y0111164D01*
X0097135Y0111164D02*
X0117432Y0111164D01*
X0116834Y0110565D02*
X0097883Y0110565D01*
X0098365Y0109967D02*
X0116346Y0109967D01*
X0116098Y0109368D02*
X0098685Y0109368D01*
X0098890Y0108770D02*
X0115850Y0108770D01*
X0126937Y0114156D02*
X0196323Y0114156D01*
X0196921Y0113558D02*
X0015579Y0113558D01*
X0016177Y0114156D02*
X0088063Y0114156D01*
X0087180Y0114755D02*
X0016776Y0114755D01*
X0017101Y0115353D02*
X0086582Y0115353D01*
X0086241Y0115952D02*
X0017349Y0115952D01*
X0017597Y0116550D02*
X0085994Y0116550D01*
X0085800Y0117149D02*
X0017700Y0117149D01*
X0017700Y0117748D02*
X0085800Y0117748D01*
X0085800Y0118346D02*
X0017700Y0118346D01*
X0017668Y0118945D02*
X0085922Y0118945D01*
X0086170Y0119543D02*
X0017420Y0119543D01*
X0017172Y0120142D02*
X0086418Y0120142D01*
X0087008Y0120740D02*
X0016924Y0120740D01*
X0016349Y0121339D02*
X0087649Y0121339D01*
X0096757Y0144082D02*
X0118243Y0144082D01*
X0117255Y0144681D02*
X0097745Y0144681D01*
X0098344Y0145279D02*
X0116656Y0145279D01*
X0116272Y0145878D02*
X0098728Y0145878D01*
X0098976Y0146476D02*
X0116024Y0146476D01*
X0115800Y0147075D02*
X0099200Y0147075D01*
X0099200Y0147673D02*
X0115800Y0147673D01*
X0115800Y0148272D02*
X0099200Y0148272D01*
X0099108Y0148870D02*
X0115892Y0148870D01*
X0116140Y0149469D02*
X0098860Y0149469D01*
X0098613Y0150067D02*
X0116387Y0150067D01*
X0116934Y0150666D02*
X0098066Y0150666D01*
X0097467Y0151264D02*
X0117533Y0151264D01*
X0118914Y0151863D02*
X0096086Y0151863D01*
X0097179Y0154257D02*
X0117821Y0154257D01*
X0117578Y0154358D02*
X0119084Y0153733D01*
X0125916Y0153733D01*
X0127422Y0154358D01*
X0128576Y0155511D01*
X0129200Y0157018D01*
X0129200Y0158649D01*
X0128576Y0160156D01*
X0127422Y0161309D01*
X0125916Y0161933D01*
X0119084Y0161933D01*
X0117578Y0161309D01*
X0116424Y0160156D01*
X0115800Y0158649D01*
X0115800Y0157018D01*
X0116424Y0155511D01*
X0117578Y0154358D01*
X0117080Y0154855D02*
X0097920Y0154855D01*
X0098519Y0155454D02*
X0116481Y0155454D01*
X0116200Y0156052D02*
X0098800Y0156052D01*
X0099048Y0156651D02*
X0115952Y0156651D01*
X0115800Y0157249D02*
X0099200Y0157249D01*
X0099200Y0157848D02*
X0115800Y0157848D01*
X0115800Y0158446D02*
X0099200Y0158446D01*
X0099036Y0159045D02*
X0115964Y0159045D01*
X0116212Y0159643D02*
X0098788Y0159643D01*
X0098490Y0160242D02*
X0116510Y0160242D01*
X0117109Y0160840D02*
X0097891Y0160840D01*
X0097109Y0161439D02*
X0117891Y0161439D01*
X0122200Y0164431D02*
X0122800Y0164431D01*
X0122800Y0165030D02*
X0122200Y0165030D01*
X0122200Y0165628D02*
X0122800Y0165628D01*
X0122800Y0166227D02*
X0122200Y0166227D01*
X0122200Y0166825D02*
X0122800Y0166825D01*
X0122800Y0168621D02*
X0122200Y0168621D01*
X0122200Y0169219D02*
X0122800Y0169219D01*
X0122800Y0169818D02*
X0122200Y0169818D01*
X0122200Y0170416D02*
X0122800Y0170416D01*
X0122800Y0171015D02*
X0122200Y0171015D01*
X0122200Y0171614D02*
X0122800Y0171614D01*
X0125916Y0173733D02*
X0119084Y0173733D01*
X0117578Y0174358D01*
X0116424Y0175511D01*
X0115800Y0177018D01*
X0115800Y0178649D01*
X0116424Y0180156D01*
X0117578Y0181309D01*
X0119084Y0181933D01*
X0125916Y0181933D01*
X0127422Y0181309D01*
X0128576Y0180156D01*
X0129200Y0178649D01*
X0129200Y0177018D01*
X0128576Y0175511D01*
X0127422Y0174358D01*
X0125916Y0173733D01*
X0126578Y0174008D02*
X0135527Y0174008D01*
X0135802Y0173733D02*
X0133400Y0176135D01*
X0133400Y0179532D01*
X0135802Y0181933D01*
X0139198Y0181933D01*
X0141600Y0179532D01*
X0141600Y0176135D01*
X0139198Y0173733D01*
X0135802Y0173733D01*
X0134929Y0174606D02*
X0127671Y0174606D01*
X0128270Y0175205D02*
X0134330Y0175205D01*
X0133732Y0175803D02*
X0128697Y0175803D01*
X0128945Y0176402D02*
X0133400Y0176402D01*
X0133400Y0177000D02*
X0129193Y0177000D01*
X0129200Y0177599D02*
X0133400Y0177599D01*
X0133400Y0178197D02*
X0129200Y0178197D01*
X0129139Y0178796D02*
X0133400Y0178796D01*
X0133400Y0179394D02*
X0128891Y0179394D01*
X0128643Y0179993D02*
X0133861Y0179993D01*
X0134460Y0180591D02*
X0128140Y0180591D01*
X0127542Y0181190D02*
X0135058Y0181190D01*
X0135657Y0181788D02*
X0126266Y0181788D01*
X0118734Y0181788D02*
X0096266Y0181788D01*
X0097542Y0181190D02*
X0117458Y0181190D01*
X0116860Y0180591D02*
X0098140Y0180591D01*
X0098643Y0179993D02*
X0116357Y0179993D01*
X0116109Y0179394D02*
X0098891Y0179394D01*
X0099139Y0178796D02*
X0115861Y0178796D01*
X0115800Y0178197D02*
X0099200Y0178197D01*
X0099200Y0177599D02*
X0115800Y0177599D01*
X0115807Y0177000D02*
X0099193Y0177000D01*
X0098945Y0176402D02*
X0116055Y0176402D01*
X0116303Y0175803D02*
X0098697Y0175803D01*
X0098270Y0175205D02*
X0116730Y0175205D01*
X0117329Y0174606D02*
X0097671Y0174606D01*
X0096578Y0174008D02*
X0118422Y0174008D01*
X0118914Y0171614D02*
X0096688Y0171614D01*
X0097717Y0171015D02*
X0117642Y0171015D01*
X0116968Y0170416D02*
X0098315Y0170416D01*
X0098716Y0169818D02*
X0116536Y0169818D01*
X0116253Y0169219D02*
X0098964Y0169219D01*
X0099200Y0168621D02*
X0116080Y0168621D01*
X0127109Y0161439D02*
X0202500Y0161439D01*
X0202500Y0160840D02*
X0127891Y0160840D01*
X0128490Y0160242D02*
X0202500Y0160242D01*
X0202500Y0159643D02*
X0128788Y0159643D01*
X0129036Y0159045D02*
X0202500Y0159045D01*
X0202500Y0158446D02*
X0129200Y0158446D01*
X0129200Y0157848D02*
X0202500Y0157848D01*
X0202500Y0157249D02*
X0129200Y0157249D01*
X0129048Y0156651D02*
X0202500Y0156651D01*
X0202500Y0156052D02*
X0128800Y0156052D01*
X0128519Y0155454D02*
X0202500Y0155454D01*
X0202500Y0154855D02*
X0127920Y0154855D01*
X0127179Y0154257D02*
X0202500Y0154257D01*
X0202500Y0142885D02*
X0201392Y0142885D01*
X0197335Y0133309D02*
X0015165Y0133309D01*
X0014314Y0132710D02*
X0198186Y0132710D01*
X0196925Y0132112D02*
X0015575Y0132112D01*
X0014743Y0123134D02*
X0197757Y0123134D01*
X0197764Y0122536D02*
X0014736Y0122536D01*
X0015750Y0121937D02*
X0196750Y0121937D01*
X0196151Y0121339D02*
X0127351Y0121339D01*
X0127992Y0120740D02*
X0195576Y0120740D01*
X0195328Y0120142D02*
X0128582Y0120142D01*
X0128830Y0119543D02*
X0195080Y0119543D01*
X0194832Y0118945D02*
X0129078Y0118945D01*
X0129200Y0118346D02*
X0194800Y0118346D01*
X0194800Y0117748D02*
X0129200Y0117748D01*
X0129200Y0117149D02*
X0194800Y0117149D01*
X0194903Y0116550D02*
X0129006Y0116550D01*
X0128759Y0115952D02*
X0195151Y0115952D01*
X0195399Y0115353D02*
X0128418Y0115353D01*
X0127820Y0114755D02*
X0195724Y0114755D01*
X0198178Y0112959D02*
X0014322Y0112959D01*
X0017462Y0079443D02*
X0017638Y0079443D01*
X0017700Y0078844D02*
X0018236Y0078844D01*
X0017700Y0078246D02*
X0018835Y0078246D01*
X0019433Y0077647D02*
X0017700Y0077647D01*
X0017700Y0077049D02*
X0020032Y0077049D01*
X0020200Y0076450D02*
X0017556Y0076450D01*
X0017308Y0075852D02*
X0020200Y0075852D01*
X0020200Y0075253D02*
X0017060Y0075253D01*
X0016675Y0074655D02*
X0020200Y0074655D01*
X0020200Y0074056D02*
X0016077Y0074056D01*
X0015478Y0073458D02*
X0020200Y0073458D01*
X0020200Y0072859D02*
X0014080Y0072859D01*
X0014824Y0072261D02*
X0020200Y0072261D01*
X0020200Y0071662D02*
X0015737Y0071662D01*
X0016333Y0071064D02*
X0020200Y0071064D01*
X0020200Y0070465D02*
X0016768Y0070465D01*
X0017076Y0069867D02*
X0020200Y0069867D01*
X0020200Y0069268D02*
X0017291Y0069268D01*
X0017430Y0068670D02*
X0020200Y0068670D01*
X0020200Y0068071D02*
X0012800Y0068071D01*
X0012800Y0067473D02*
X0012200Y0067473D01*
X0012200Y0066874D02*
X0012800Y0066874D01*
X0012800Y0066276D02*
X0012200Y0066276D01*
X0012200Y0065677D02*
X0012800Y0065677D01*
X0012800Y0065079D02*
X0012200Y0065079D01*
X0012200Y0064480D02*
X0012800Y0064480D01*
X0012800Y0063881D02*
X0012200Y0063881D01*
X0012200Y0063283D02*
X0012800Y0063283D01*
X0014583Y0063283D02*
X0020200Y0063283D01*
X0020200Y0063881D02*
X0015567Y0063881D01*
X0016218Y0064480D02*
X0020200Y0064480D01*
X0020200Y0065079D02*
X0016679Y0065079D01*
X0017013Y0065677D02*
X0020200Y0065677D01*
X0020200Y0066276D02*
X0017251Y0066276D01*
X0017410Y0066874D02*
X0020200Y0066874D01*
X0020200Y0067473D02*
X0017500Y0067473D01*
X0020200Y0062684D02*
X0009000Y0062684D01*
X0009000Y0062086D02*
X0020200Y0062086D01*
X0020200Y0061487D02*
X0009000Y0061487D01*
X0009000Y0060889D02*
X0020200Y0060889D01*
X0020200Y0060290D02*
X0009000Y0060290D01*
X0009000Y0059692D02*
X0020200Y0059692D01*
X0020003Y0059093D02*
X0009000Y0059093D01*
X0009000Y0058495D02*
X0019755Y0058495D01*
X0019711Y0057896D02*
X0009000Y0057896D01*
X0009000Y0057298D02*
X0019711Y0057298D01*
X0019951Y0056699D02*
X0009000Y0056699D01*
X0009000Y0056101D02*
X0020288Y0056101D01*
X0020887Y0055502D02*
X0009000Y0055502D01*
X0009000Y0063283D02*
X0010417Y0063283D01*
X0009433Y0063881D02*
X0009000Y0063881D01*
X0009000Y0036948D02*
X0043362Y0036948D01*
X0042764Y0036350D02*
X0009000Y0036350D01*
X0009000Y0035751D02*
X0042165Y0035751D01*
X0041567Y0035153D02*
X0009000Y0035153D01*
X0009000Y0034554D02*
X0040968Y0034554D01*
X0040370Y0033956D02*
X0009000Y0033956D01*
X0009000Y0033357D02*
X0039771Y0033357D01*
X0039173Y0032759D02*
X0009000Y0032759D01*
X0009000Y0032160D02*
X0038574Y0032160D01*
X0037976Y0031562D02*
X0009000Y0031562D01*
X0009000Y0030963D02*
X0037377Y0030963D01*
X0036779Y0030365D02*
X0009000Y0030365D01*
X0009000Y0029766D02*
X0036180Y0029766D01*
X0035582Y0029168D02*
X0009000Y0029168D01*
X0009000Y0028569D02*
X0034983Y0028569D01*
X0034385Y0027971D02*
X0009000Y0027971D01*
X0009000Y0027372D02*
X0033786Y0027372D01*
X0033188Y0026774D02*
X0009000Y0026774D01*
X0009000Y0026175D02*
X0032589Y0026175D01*
X0031991Y0025577D02*
X0009000Y0025577D01*
X0009000Y0024978D02*
X0031392Y0024978D01*
X0030794Y0024380D02*
X0009000Y0024380D01*
X0009000Y0023781D02*
X0030195Y0023781D01*
X0029597Y0023183D02*
X0009000Y0023183D01*
X0009000Y0022584D02*
X0028998Y0022584D01*
X0028400Y0021986D02*
X0023646Y0021986D01*
X0024244Y0021387D02*
X0027801Y0021387D01*
X0027203Y0020789D02*
X0024843Y0020789D01*
X0029602Y0016599D02*
X0035900Y0016599D01*
X0035900Y0016135D02*
X0038302Y0013733D01*
X0041698Y0013733D01*
X0044100Y0016135D01*
X0044100Y0019026D01*
X0059181Y0036261D01*
X0059800Y0036881D01*
X0059800Y0036969D01*
X0059858Y0037036D01*
X0059800Y0037910D01*
X0059800Y0064335D01*
X0061600Y0066135D01*
X0061600Y0069532D01*
X0059198Y0071933D01*
X0055802Y0071933D01*
X0053400Y0069532D01*
X0053400Y0066135D01*
X0055200Y0064335D01*
X0055200Y0038698D01*
X0040531Y0021933D01*
X0038302Y0021933D01*
X0035900Y0019532D01*
X0035900Y0016135D01*
X0036034Y0016001D02*
X0028920Y0016001D01*
X0030117Y0017198D02*
X0035900Y0017198D01*
X0035900Y0017796D02*
X0030715Y0017796D01*
X0031314Y0018395D02*
X0035900Y0018395D01*
X0035900Y0018993D02*
X0031912Y0018993D01*
X0032511Y0019592D02*
X0035960Y0019592D01*
X0036559Y0020190D02*
X0033110Y0020190D01*
X0033708Y0020789D02*
X0037157Y0020789D01*
X0037756Y0021387D02*
X0034307Y0021387D01*
X0034905Y0021986D02*
X0040577Y0021986D01*
X0041101Y0022584D02*
X0035504Y0022584D01*
X0036102Y0023183D02*
X0041625Y0023183D01*
X0042148Y0023781D02*
X0036701Y0023781D01*
X0037299Y0024380D02*
X0042672Y0024380D01*
X0043196Y0024978D02*
X0037898Y0024978D01*
X0038496Y0025577D02*
X0043719Y0025577D01*
X0044243Y0026175D02*
X0039095Y0026175D01*
X0039693Y0026774D02*
X0044767Y0026774D01*
X0045290Y0027372D02*
X0040292Y0027372D01*
X0040890Y0027971D02*
X0045814Y0027971D01*
X0046338Y0028569D02*
X0041489Y0028569D01*
X0042087Y0029168D02*
X0046862Y0029168D01*
X0047385Y0029766D02*
X0042686Y0029766D01*
X0043284Y0030365D02*
X0047909Y0030365D01*
X0048433Y0030963D02*
X0043883Y0030963D01*
X0044481Y0031562D02*
X0048956Y0031562D01*
X0049480Y0032160D02*
X0045080Y0032160D01*
X0045678Y0032759D02*
X0050004Y0032759D01*
X0050527Y0033357D02*
X0046277Y0033357D01*
X0046875Y0033956D02*
X0051051Y0033956D01*
X0051575Y0034554D02*
X0047474Y0034554D01*
X0048072Y0035153D02*
X0052099Y0035153D01*
X0052622Y0035751D02*
X0048671Y0035751D01*
X0049269Y0036350D02*
X0053146Y0036350D01*
X0053670Y0036948D02*
X0049800Y0036948D01*
X0049800Y0037547D02*
X0054193Y0037547D01*
X0054717Y0038145D02*
X0049800Y0038145D01*
X0049800Y0038744D02*
X0055200Y0038744D01*
X0055200Y0039343D02*
X0049800Y0039343D01*
X0049800Y0039941D02*
X0055200Y0039941D01*
X0055200Y0040540D02*
X0049800Y0040540D01*
X0049800Y0041138D02*
X0055200Y0041138D01*
X0055200Y0041737D02*
X0049800Y0041737D01*
X0049800Y0042335D02*
X0055200Y0042335D01*
X0055200Y0042934D02*
X0049800Y0042934D01*
X0049800Y0043532D02*
X0055200Y0043532D01*
X0055200Y0044131D02*
X0049800Y0044131D01*
X0049800Y0044729D02*
X0055200Y0044729D01*
X0055200Y0045328D02*
X0049800Y0045328D01*
X0049800Y0045926D02*
X0055200Y0045926D01*
X0055200Y0046525D02*
X0049800Y0046525D01*
X0049800Y0047123D02*
X0055200Y0047123D01*
X0055200Y0047722D02*
X0049800Y0047722D01*
X0049800Y0048320D02*
X0055200Y0048320D01*
X0055200Y0048919D02*
X0049800Y0048919D01*
X0049800Y0049517D02*
X0055200Y0049517D01*
X0055200Y0050116D02*
X0049800Y0050116D01*
X0049800Y0050714D02*
X0055200Y0050714D01*
X0055200Y0051313D02*
X0049800Y0051313D01*
X0049800Y0051911D02*
X0055200Y0051911D01*
X0055200Y0052510D02*
X0049800Y0052510D01*
X0049800Y0053108D02*
X0055200Y0053108D01*
X0055200Y0053707D02*
X0049800Y0053707D01*
X0049800Y0054305D02*
X0055200Y0054305D01*
X0055200Y0054904D02*
X0049800Y0054904D01*
X0049800Y0055502D02*
X0055200Y0055502D01*
X0055200Y0056101D02*
X0049800Y0056101D01*
X0049800Y0056699D02*
X0055200Y0056699D01*
X0055200Y0057298D02*
X0049800Y0057298D01*
X0049800Y0057896D02*
X0055200Y0057896D01*
X0055200Y0058495D02*
X0049800Y0058495D01*
X0049800Y0059093D02*
X0055200Y0059093D01*
X0055200Y0059692D02*
X0049800Y0059692D01*
X0049800Y0060290D02*
X0055200Y0060290D01*
X0055200Y0060889D02*
X0049800Y0060889D01*
X0049800Y0061487D02*
X0055200Y0061487D01*
X0055200Y0062086D02*
X0049800Y0062086D01*
X0049800Y0062684D02*
X0055200Y0062684D01*
X0055200Y0063283D02*
X0049800Y0063283D01*
X0049800Y0063881D02*
X0055200Y0063881D01*
X0055055Y0064480D02*
X0049945Y0064480D01*
X0050543Y0065079D02*
X0054457Y0065079D01*
X0053858Y0065677D02*
X0051142Y0065677D01*
X0051600Y0066276D02*
X0053400Y0066276D01*
X0053400Y0066874D02*
X0051600Y0066874D01*
X0051600Y0067473D02*
X0053400Y0067473D01*
X0053400Y0068071D02*
X0051600Y0068071D01*
X0051600Y0068670D02*
X0053400Y0068670D01*
X0053400Y0069268D02*
X0051600Y0069268D01*
X0051265Y0069867D02*
X0053735Y0069867D01*
X0054334Y0070465D02*
X0050666Y0070465D01*
X0050068Y0071064D02*
X0054932Y0071064D01*
X0055531Y0071662D02*
X0049469Y0071662D01*
X0059469Y0071662D02*
X0088430Y0071662D01*
X0089084Y0071933D02*
X0087578Y0071309D01*
X0086424Y0070156D01*
X0085800Y0068649D01*
X0085800Y0067018D01*
X0086424Y0065511D01*
X0087578Y0064358D01*
X0089084Y0063733D01*
X0095916Y0063733D01*
X0097422Y0064358D01*
X0098576Y0065511D01*
X0099200Y0067018D01*
X0099200Y0068649D01*
X0098576Y0070156D01*
X0097422Y0071309D01*
X0095916Y0071933D01*
X0089084Y0071933D01*
X0087332Y0071064D02*
X0060068Y0071064D01*
X0060666Y0070465D02*
X0063566Y0070465D01*
X0063945Y0070622D02*
X0062920Y0070198D01*
X0062136Y0069413D01*
X0061711Y0068388D01*
X0061711Y0067279D01*
X0062136Y0066253D01*
X0062200Y0066189D01*
X0062200Y0054978D01*
X0062136Y0054913D01*
X0061711Y0053888D01*
X0061711Y0052779D01*
X0062136Y0051753D01*
X0062920Y0050969D01*
X0063945Y0050544D01*
X0065055Y0050544D01*
X0066080Y0050969D01*
X0066864Y0051753D01*
X0067289Y0052779D01*
X0067289Y0053888D01*
X0066864Y0054913D01*
X0066800Y0054978D01*
X0066800Y0066189D01*
X0066864Y0066253D01*
X0067289Y0067279D01*
X0067289Y0068388D01*
X0066864Y0069413D01*
X0066080Y0070198D01*
X0065055Y0070622D01*
X0063945Y0070622D01*
X0065434Y0070465D02*
X0086734Y0070465D01*
X0086304Y0069867D02*
X0066411Y0069867D01*
X0066924Y0069268D02*
X0086056Y0069268D01*
X0085809Y0068670D02*
X0067172Y0068670D01*
X0067289Y0068071D02*
X0085800Y0068071D01*
X0085800Y0067473D02*
X0067289Y0067473D01*
X0067121Y0066874D02*
X0085860Y0066874D01*
X0086107Y0066276D02*
X0066873Y0066276D01*
X0066800Y0065677D02*
X0086355Y0065677D01*
X0086857Y0065079D02*
X0066800Y0065079D01*
X0066800Y0064480D02*
X0087455Y0064480D01*
X0088727Y0063881D02*
X0066800Y0063881D01*
X0066800Y0063283D02*
X0170200Y0063283D01*
X0170200Y0063881D02*
X0126273Y0063881D01*
X0125916Y0063733D02*
X0127422Y0064358D01*
X0128576Y0065511D01*
X0129200Y0067018D01*
X0129200Y0068649D01*
X0128576Y0070156D01*
X0127422Y0071309D01*
X0125916Y0071933D01*
X0119084Y0071933D01*
X0117578Y0071309D01*
X0116424Y0070156D01*
X0115800Y0068649D01*
X0115800Y0067018D01*
X0116424Y0065511D01*
X0117578Y0064358D01*
X0119084Y0063733D01*
X0125916Y0063733D01*
X0127545Y0064480D02*
X0170200Y0064480D01*
X0170200Y0065079D02*
X0128143Y0065079D01*
X0128645Y0065677D02*
X0170200Y0065677D01*
X0170200Y0066276D02*
X0128893Y0066276D01*
X0129140Y0066874D02*
X0170200Y0066874D01*
X0170200Y0067473D02*
X0129200Y0067473D01*
X0129200Y0068071D02*
X0170200Y0068071D01*
X0170200Y0068670D02*
X0129191Y0068670D01*
X0128944Y0069268D02*
X0170200Y0069268D01*
X0170200Y0069867D02*
X0128696Y0069867D01*
X0128266Y0070465D02*
X0170200Y0070465D01*
X0170200Y0071064D02*
X0127668Y0071064D01*
X0126570Y0071662D02*
X0170200Y0071662D01*
X0174800Y0071662D02*
X0175200Y0071662D01*
X0175200Y0071064D02*
X0174800Y0071064D01*
X0174800Y0070465D02*
X0175200Y0070465D01*
X0175200Y0069867D02*
X0174800Y0069867D01*
X0174800Y0069268D02*
X0175200Y0069268D01*
X0175200Y0068670D02*
X0174800Y0068670D01*
X0174800Y0068071D02*
X0175200Y0068071D01*
X0175200Y0067473D02*
X0174800Y0067473D01*
X0174800Y0066874D02*
X0175200Y0066874D01*
X0175200Y0066276D02*
X0174800Y0066276D01*
X0174800Y0065677D02*
X0175200Y0065677D01*
X0175200Y0065079D02*
X0174800Y0065079D01*
X0174800Y0064480D02*
X0175200Y0064480D01*
X0175200Y0063881D02*
X0174800Y0063881D01*
X0174800Y0063283D02*
X0175200Y0063283D01*
X0175200Y0062684D02*
X0174800Y0062684D01*
X0174800Y0062086D02*
X0175200Y0062086D01*
X0175200Y0061487D02*
X0174800Y0061487D01*
X0174800Y0060889D02*
X0175200Y0060889D01*
X0175200Y0060290D02*
X0174800Y0060290D01*
X0174800Y0059692D02*
X0175200Y0059692D01*
X0175200Y0059093D02*
X0174800Y0059093D01*
X0174800Y0058495D02*
X0175200Y0058495D01*
X0175200Y0057896D02*
X0174800Y0057896D01*
X0174800Y0057298D02*
X0175200Y0057298D01*
X0175200Y0056699D02*
X0174800Y0056699D01*
X0174800Y0056101D02*
X0175200Y0056101D01*
X0175200Y0055502D02*
X0174800Y0055502D01*
X0174800Y0054904D02*
X0175200Y0054904D01*
X0175200Y0054305D02*
X0174800Y0054305D01*
X0174800Y0053707D02*
X0175200Y0053707D01*
X0175200Y0053108D02*
X0174800Y0053108D01*
X0174800Y0052510D02*
X0175200Y0052510D01*
X0175200Y0051911D02*
X0174800Y0051911D01*
X0175200Y0051313D02*
X0174232Y0051313D01*
X0173634Y0050714D02*
X0175200Y0050714D01*
X0175200Y0050116D02*
X0173035Y0050116D01*
X0172437Y0049517D02*
X0175200Y0049517D01*
X0175200Y0048919D02*
X0171838Y0048919D01*
X0171240Y0048320D02*
X0175200Y0048320D01*
X0175200Y0047722D02*
X0170641Y0047722D01*
X0170043Y0047123D02*
X0175200Y0047123D01*
X0175200Y0046525D02*
X0169444Y0046525D01*
X0168845Y0045926D02*
X0175200Y0045926D01*
X0175200Y0045328D02*
X0168247Y0045328D01*
X0167648Y0044729D02*
X0175200Y0044729D01*
X0175200Y0044131D02*
X0167050Y0044131D01*
X0166451Y0043532D02*
X0175200Y0043532D01*
X0175200Y0042934D02*
X0165853Y0042934D01*
X0165254Y0042335D02*
X0175200Y0042335D01*
X0175200Y0041737D02*
X0164656Y0041737D01*
X0164057Y0041138D02*
X0175200Y0041138D01*
X0175200Y0040540D02*
X0163459Y0040540D01*
X0162860Y0039941D02*
X0175200Y0039941D01*
X0175200Y0039343D02*
X0162262Y0039343D01*
X0161663Y0038744D02*
X0175200Y0038744D01*
X0175200Y0038145D02*
X0161065Y0038145D01*
X0160466Y0037547D02*
X0175200Y0037547D01*
X0175200Y0036948D02*
X0159868Y0036948D01*
X0159269Y0036350D02*
X0175200Y0036350D01*
X0175200Y0035751D02*
X0158671Y0035751D01*
X0158072Y0035153D02*
X0175200Y0035153D01*
X0175200Y0034554D02*
X0157474Y0034554D01*
X0156875Y0033956D02*
X0167781Y0033956D01*
X0168121Y0033956D02*
X0168721Y0033956D01*
X0169061Y0033956D02*
X0175200Y0033956D01*
X0175200Y0033357D02*
X0170569Y0033357D01*
X0171275Y0032759D02*
X0175200Y0032759D01*
X0175200Y0032160D02*
X0171726Y0032160D01*
X0172023Y0031562D02*
X0175200Y0031562D01*
X0175200Y0030963D02*
X0174184Y0030963D01*
X0168721Y0030963D02*
X0168121Y0030963D01*
X0168121Y0030365D02*
X0153829Y0030365D01*
X0154574Y0030963D02*
X0164636Y0030963D01*
X0164819Y0031562D02*
X0154992Y0031562D01*
X0155240Y0032160D02*
X0165116Y0032160D01*
X0165568Y0032759D02*
X0155678Y0032759D01*
X0156277Y0033357D02*
X0166273Y0033357D01*
X0168121Y0033357D02*
X0168721Y0033357D01*
X0168721Y0032759D02*
X0168121Y0032759D01*
X0168121Y0032160D02*
X0168721Y0032160D01*
X0168721Y0031562D02*
X0168121Y0031562D01*
X0164546Y0029766D02*
X0114800Y0029766D01*
X0114800Y0029168D02*
X0164662Y0029168D01*
X0164875Y0028569D02*
X0114800Y0028569D01*
X0114800Y0027971D02*
X0165205Y0027971D01*
X0165702Y0027372D02*
X0114800Y0027372D01*
X0114800Y0026774D02*
X0165599Y0026774D01*
X0165001Y0026175D02*
X0114956Y0026175D01*
X0114800Y0026332D02*
X0114800Y0036881D01*
X0121653Y0043733D01*
X0125916Y0043733D01*
X0127422Y0044358D01*
X0128576Y0045511D01*
X0129200Y0047018D01*
X0129200Y0048649D01*
X0128576Y0050156D01*
X0127422Y0051309D01*
X0125916Y0051933D01*
X0119084Y0051933D01*
X0117578Y0051309D01*
X0116424Y0050156D01*
X0115800Y0048649D01*
X0115800Y0047018D01*
X0116424Y0045511D01*
X0116675Y0045261D01*
X0110200Y0038786D01*
X0110200Y0026332D01*
X0108400Y0024532D01*
X0108400Y0021135D01*
X0110802Y0018733D01*
X0114198Y0018733D01*
X0116600Y0021135D01*
X0116600Y0024532D01*
X0114800Y0026332D01*
X0115555Y0025577D02*
X0164733Y0025577D01*
X0164485Y0024978D02*
X0116153Y0024978D01*
X0116600Y0024380D02*
X0164346Y0024380D01*
X0164346Y0023781D02*
X0116600Y0023781D01*
X0116600Y0023183D02*
X0164346Y0023183D01*
X0164528Y0022584D02*
X0116600Y0022584D01*
X0116600Y0021986D02*
X0164776Y0021986D01*
X0165105Y0021387D02*
X0116600Y0021387D01*
X0116254Y0020789D02*
X0165703Y0020789D01*
X0165315Y0020190D02*
X0115655Y0020190D01*
X0115057Y0019592D02*
X0164863Y0019592D01*
X0164615Y0018993D02*
X0114458Y0018993D01*
X0114115Y0016733D02*
X0112800Y0016733D01*
X0112800Y0013133D01*
X0116400Y0013133D01*
X0116400Y0014449D01*
X0114115Y0016733D01*
X0114250Y0016599D02*
X0124198Y0016599D01*
X0124221Y0016622D02*
X0122964Y0015365D01*
X0122283Y0013722D01*
X0122283Y0011944D01*
X0122964Y0010302D01*
X0124221Y0009045D01*
X0125863Y0008365D01*
X0127641Y0008365D01*
X0129283Y0009045D01*
X0130540Y0010302D01*
X0130902Y0011176D01*
X0131172Y0010525D01*
X0132318Y0009379D01*
X0133815Y0008759D01*
X0135437Y0008759D01*
X0136934Y0009379D01*
X0138080Y0010525D01*
X0138563Y0011690D01*
X0139046Y0010525D01*
X0140192Y0009379D01*
X0141689Y0008759D01*
X0143311Y0008759D01*
X0144808Y0009379D01*
X0145954Y0010525D01*
X0146437Y0011690D01*
X0146920Y0010525D01*
X0148066Y0009379D01*
X0149563Y0008759D01*
X0151185Y0008759D01*
X0152682Y0009379D01*
X0153828Y0010525D01*
X0154098Y0011176D01*
X0154460Y0010302D01*
X0155717Y0009045D01*
X0157359Y0008365D01*
X0159137Y0008365D01*
X0160779Y0009045D01*
X0162036Y0010302D01*
X0162717Y0011944D01*
X0162717Y0013722D01*
X0162036Y0015365D01*
X0160779Y0016622D01*
X0159137Y0017302D01*
X0157359Y0017302D01*
X0155717Y0016622D01*
X0154460Y0015365D01*
X0154098Y0014491D01*
X0153828Y0015142D01*
X0152682Y0016288D01*
X0151185Y0016908D01*
X0149563Y0016908D01*
X0148066Y0016288D01*
X0146920Y0015142D01*
X0146437Y0013977D01*
X0145954Y0015142D01*
X0144808Y0016288D01*
X0143311Y0016908D01*
X0141689Y0016908D01*
X0140192Y0016288D01*
X0139046Y0015142D01*
X0138563Y0013977D01*
X0138080Y0015142D01*
X0136934Y0016288D01*
X0135437Y0016908D01*
X0133815Y0016908D01*
X0132318Y0016288D01*
X0131172Y0015142D01*
X0130902Y0014491D01*
X0130540Y0015365D01*
X0129283Y0016622D01*
X0127641Y0017302D01*
X0125863Y0017302D01*
X0124221Y0016622D01*
X0123600Y0016001D02*
X0114848Y0016001D01*
X0115447Y0015402D02*
X0123001Y0015402D01*
X0122731Y0014804D02*
X0116045Y0014804D01*
X0116400Y0014205D02*
X0122483Y0014205D01*
X0122283Y0013607D02*
X0116400Y0013607D01*
X0116400Y0012533D02*
X0112800Y0012533D01*
X0112800Y0008933D01*
X0114115Y0008933D01*
X0116400Y0011218D01*
X0116400Y0012533D01*
X0116400Y0012410D02*
X0122283Y0012410D01*
X0122283Y0013008D02*
X0112800Y0013008D01*
X0112800Y0013133D02*
X0112800Y0012533D01*
X0112200Y0012533D01*
X0112200Y0008933D01*
X0110885Y0008933D01*
X0108600Y0011218D01*
X0108600Y0012533D01*
X0112200Y0012533D01*
X0112200Y0013133D01*
X0108600Y0013133D01*
X0108600Y0014449D01*
X0110885Y0016733D01*
X0112200Y0016733D01*
X0112200Y0013133D01*
X0112800Y0013133D01*
X0112800Y0013607D02*
X0112200Y0013607D01*
X0112200Y0014205D02*
X0112800Y0014205D01*
X0112800Y0014804D02*
X0112200Y0014804D01*
X0112200Y0015402D02*
X0112800Y0015402D01*
X0112800Y0016001D02*
X0112200Y0016001D01*
X0112200Y0016599D02*
X0112800Y0016599D01*
X0110750Y0016599D02*
X0104100Y0016599D01*
X0104100Y0016135D02*
X0101698Y0013733D01*
X0098302Y0013733D01*
X0095900Y0016135D01*
X0095900Y0019532D01*
X0098302Y0021933D01*
X0101698Y0021933D01*
X0104100Y0019532D01*
X0104100Y0016135D01*
X0103966Y0016001D02*
X0110152Y0016001D01*
X0109553Y0015402D02*
X0103367Y0015402D01*
X0102768Y0014804D02*
X0108955Y0014804D01*
X0108600Y0014205D02*
X0102170Y0014205D01*
X0104100Y0017198D02*
X0125612Y0017198D01*
X0127892Y0017198D02*
X0157108Y0017198D01*
X0155694Y0016599D02*
X0151931Y0016599D01*
X0152969Y0016001D02*
X0155096Y0016001D01*
X0154497Y0015402D02*
X0153568Y0015402D01*
X0153968Y0014804D02*
X0154227Y0014804D01*
X0154331Y0010614D02*
X0153865Y0010614D01*
X0153319Y0010015D02*
X0154746Y0010015D01*
X0155345Y0009417D02*
X0152720Y0009417D01*
X0151329Y0008818D02*
X0156264Y0008818D01*
X0160232Y0008818D02*
X0181390Y0008818D01*
X0181390Y0008220D02*
X0044100Y0008220D01*
X0044100Y0008818D02*
X0061479Y0008818D01*
X0061684Y0008733D02*
X0060178Y0009358D01*
X0059024Y0010511D01*
X0058400Y0012018D01*
X0058400Y0013649D01*
X0059024Y0015156D01*
X0060178Y0016309D01*
X0061684Y0016933D01*
X0063316Y0016933D01*
X0064822Y0016309D01*
X0065976Y0015156D01*
X0066600Y0013649D01*
X0066600Y0012018D01*
X0065976Y0010511D01*
X0064822Y0009358D01*
X0063316Y0008733D01*
X0061684Y0008733D01*
X0060118Y0009417D02*
X0044100Y0009417D01*
X0043616Y0010015D02*
X0059520Y0010015D01*
X0058981Y0010614D02*
X0043018Y0010614D01*
X0042419Y0011212D02*
X0058734Y0011212D01*
X0058486Y0011811D02*
X0041821Y0011811D01*
X0042170Y0014205D02*
X0058630Y0014205D01*
X0058400Y0013607D02*
X0009000Y0013607D01*
X0009000Y0014205D02*
X0037830Y0014205D01*
X0037231Y0014804D02*
X0023768Y0014804D01*
X0024367Y0015402D02*
X0036633Y0015402D01*
X0038179Y0011811D02*
X0023821Y0011811D01*
X0024419Y0011212D02*
X0037581Y0011212D01*
X0036982Y0010614D02*
X0025018Y0010614D01*
X0025600Y0010015D02*
X0036384Y0010015D01*
X0035900Y0009417D02*
X0025600Y0009417D01*
X0025600Y0008818D02*
X0035900Y0008818D01*
X0035900Y0008220D02*
X0025600Y0008220D01*
X0025600Y0007621D02*
X0035900Y0007621D01*
X0035900Y0007023D02*
X0025600Y0007023D01*
X0025389Y0006424D02*
X0035900Y0006424D01*
X0036209Y0005826D02*
X0024791Y0005826D01*
X0024192Y0005227D02*
X0036808Y0005227D01*
X0037406Y0004629D02*
X0023594Y0004629D01*
X0019406Y0004629D02*
X0009000Y0004629D01*
X0009000Y0005227D02*
X0018808Y0005227D01*
X0018209Y0005826D02*
X0009000Y0005826D01*
X0009000Y0006424D02*
X0017611Y0006424D01*
X0017400Y0007023D02*
X0009000Y0007023D01*
X0009000Y0007621D02*
X0017400Y0007621D01*
X0017400Y0008220D02*
X0009000Y0008220D01*
X0009000Y0008818D02*
X0017400Y0008818D01*
X0017400Y0009417D02*
X0009000Y0009417D01*
X0009000Y0010015D02*
X0017400Y0010015D01*
X0017982Y0010614D02*
X0009000Y0010614D01*
X0009000Y0011212D02*
X0018581Y0011212D01*
X0019179Y0011811D02*
X0009000Y0011811D01*
X0009000Y0012410D02*
X0019778Y0012410D01*
X0019231Y0014804D02*
X0009000Y0014804D01*
X0009000Y0015402D02*
X0018633Y0015402D01*
X0018034Y0016001D02*
X0009000Y0016001D01*
X0009000Y0016599D02*
X0017436Y0016599D01*
X0017400Y0017198D02*
X0009000Y0017198D01*
X0009000Y0017796D02*
X0017400Y0017796D01*
X0017400Y0018395D02*
X0009000Y0018395D01*
X0009000Y0018993D02*
X0017400Y0018993D01*
X0017400Y0019592D02*
X0009000Y0019592D01*
X0009000Y0020190D02*
X0017559Y0020190D01*
X0018157Y0020789D02*
X0009000Y0020789D01*
X0009000Y0021387D02*
X0018756Y0021387D01*
X0019354Y0021986D02*
X0009000Y0021986D01*
X0009000Y0013008D02*
X0058400Y0013008D01*
X0058400Y0012410D02*
X0023222Y0012410D01*
X0042768Y0014804D02*
X0058878Y0014804D01*
X0059270Y0015402D02*
X0043367Y0015402D01*
X0043966Y0016001D02*
X0059869Y0016001D01*
X0060878Y0016599D02*
X0044100Y0016599D01*
X0044100Y0017198D02*
X0095900Y0017198D01*
X0095900Y0017796D02*
X0044100Y0017796D01*
X0044100Y0018395D02*
X0095900Y0018395D01*
X0095900Y0018993D02*
X0094175Y0018993D01*
X0094115Y0018933D02*
X0096400Y0021218D01*
X0096400Y0022533D01*
X0092800Y0022533D01*
X0092800Y0018933D01*
X0094115Y0018933D01*
X0094774Y0019592D02*
X0095960Y0019592D01*
X0095372Y0020190D02*
X0096559Y0020190D01*
X0095971Y0020789D02*
X0097157Y0020789D01*
X0097756Y0021387D02*
X0096400Y0021387D01*
X0096400Y0021986D02*
X0108400Y0021986D01*
X0108400Y0022584D02*
X0092800Y0022584D01*
X0092800Y0022533D02*
X0092800Y0023133D01*
X0096400Y0023133D01*
X0096400Y0024449D01*
X0094115Y0026733D01*
X0092800Y0026733D01*
X0092800Y0023133D01*
X0092200Y0023133D01*
X0092200Y0022533D01*
X0092800Y0022533D01*
X0092800Y0021986D02*
X0092200Y0021986D01*
X0092200Y0022533D02*
X0092200Y0018933D01*
X0090885Y0018933D01*
X0088600Y0021218D01*
X0088600Y0022533D01*
X0092200Y0022533D01*
X0092200Y0022584D02*
X0077800Y0022584D01*
X0077800Y0022533D02*
X0077800Y0023133D01*
X0081400Y0023133D01*
X0081400Y0024449D01*
X0079115Y0026733D01*
X0077800Y0026733D01*
X0077800Y0023133D01*
X0077200Y0023133D01*
X0077200Y0022533D01*
X0077800Y0022533D01*
X0077800Y0018933D01*
X0079115Y0018933D01*
X0081400Y0021218D01*
X0081400Y0022533D01*
X0077800Y0022533D01*
X0077800Y0021986D02*
X0077200Y0021986D01*
X0077200Y0022533D02*
X0077200Y0018933D01*
X0075885Y0018933D01*
X0073600Y0021218D01*
X0073600Y0022533D01*
X0077200Y0022533D01*
X0077200Y0022584D02*
X0047213Y0022584D01*
X0046689Y0021986D02*
X0073600Y0021986D01*
X0073600Y0021387D02*
X0046166Y0021387D01*
X0045642Y0020789D02*
X0074029Y0020789D01*
X0074628Y0020190D02*
X0045118Y0020190D01*
X0044595Y0019592D02*
X0075226Y0019592D01*
X0075825Y0018993D02*
X0044100Y0018993D01*
X0047737Y0023183D02*
X0073600Y0023183D01*
X0073600Y0023133D02*
X0077200Y0023133D01*
X0077200Y0026733D01*
X0075885Y0026733D01*
X0073600Y0024449D01*
X0073600Y0023133D01*
X0073600Y0023781D02*
X0048261Y0023781D01*
X0048784Y0024380D02*
X0073600Y0024380D01*
X0074130Y0024978D02*
X0049308Y0024978D01*
X0049832Y0025577D02*
X0074728Y0025577D01*
X0075327Y0026175D02*
X0050355Y0026175D01*
X0050879Y0026774D02*
X0110200Y0026774D01*
X0110200Y0027372D02*
X0051403Y0027372D01*
X0051926Y0027971D02*
X0110200Y0027971D01*
X0110200Y0028569D02*
X0052450Y0028569D01*
X0052974Y0029168D02*
X0060650Y0029168D01*
X0060885Y0028933D02*
X0058600Y0031218D01*
X0058600Y0032533D01*
X0062200Y0032533D01*
X0062800Y0032533D01*
X0062800Y0028933D01*
X0064115Y0028933D01*
X0066400Y0031218D01*
X0066400Y0032533D01*
X0062800Y0032533D01*
X0062800Y0033133D01*
X0066400Y0033133D01*
X0066400Y0034449D01*
X0064115Y0036733D01*
X0062800Y0036733D01*
X0062800Y0033133D01*
X0062200Y0033133D01*
X0062200Y0032533D01*
X0062200Y0028933D01*
X0060885Y0028933D01*
X0060052Y0029766D02*
X0053498Y0029766D01*
X0054021Y0030365D02*
X0059453Y0030365D01*
X0058855Y0030963D02*
X0054545Y0030963D01*
X0055069Y0031562D02*
X0058600Y0031562D01*
X0058600Y0032160D02*
X0055592Y0032160D01*
X0056116Y0032759D02*
X0062200Y0032759D01*
X0062200Y0033133D02*
X0058600Y0033133D01*
X0058600Y0034449D01*
X0060885Y0036733D01*
X0062200Y0036733D01*
X0062200Y0033133D01*
X0062200Y0033357D02*
X0062800Y0033357D01*
X0062800Y0032759D02*
X0110200Y0032759D01*
X0110200Y0033357D02*
X0066400Y0033357D01*
X0066400Y0033956D02*
X0110200Y0033956D01*
X0110200Y0034554D02*
X0066294Y0034554D01*
X0065696Y0035153D02*
X0110200Y0035153D01*
X0110200Y0035751D02*
X0065097Y0035751D01*
X0064499Y0036350D02*
X0110200Y0036350D01*
X0110200Y0036948D02*
X0059800Y0036948D01*
X0059824Y0037547D02*
X0110200Y0037547D01*
X0110200Y0038145D02*
X0059800Y0038145D01*
X0059800Y0038744D02*
X0110200Y0038744D01*
X0110757Y0039343D02*
X0059800Y0039343D01*
X0059800Y0039941D02*
X0111355Y0039941D01*
X0111954Y0040540D02*
X0059800Y0040540D01*
X0059800Y0041138D02*
X0112552Y0041138D01*
X0113151Y0041737D02*
X0059800Y0041737D01*
X0059800Y0042335D02*
X0113749Y0042335D01*
X0114348Y0042934D02*
X0059800Y0042934D01*
X0059800Y0043532D02*
X0114946Y0043532D01*
X0115545Y0044131D02*
X0096875Y0044131D01*
X0097422Y0044358D02*
X0098576Y0045511D01*
X0099200Y0047018D01*
X0099200Y0048649D01*
X0098576Y0050156D01*
X0097422Y0051309D01*
X0095916Y0051933D01*
X0089084Y0051933D01*
X0087578Y0051309D01*
X0086424Y0050156D01*
X0085800Y0048649D01*
X0085800Y0047018D01*
X0086424Y0045511D01*
X0087578Y0044358D01*
X0089084Y0043733D01*
X0095916Y0043733D01*
X0097422Y0044358D01*
X0097794Y0044729D02*
X0116143Y0044729D01*
X0116607Y0045328D02*
X0098393Y0045328D01*
X0098748Y0045926D02*
X0116252Y0045926D01*
X0116004Y0046525D02*
X0098996Y0046525D01*
X0099200Y0047123D02*
X0115800Y0047123D01*
X0115800Y0047722D02*
X0099200Y0047722D01*
X0099200Y0048320D02*
X0115800Y0048320D01*
X0115912Y0048919D02*
X0099088Y0048919D01*
X0098840Y0049517D02*
X0116160Y0049517D01*
X0116408Y0050116D02*
X0098592Y0050116D01*
X0098017Y0050714D02*
X0116983Y0050714D01*
X0117586Y0051313D02*
X0097414Y0051313D01*
X0095969Y0051911D02*
X0119031Y0051911D01*
X0119084Y0053733D02*
X0125916Y0053733D01*
X0127422Y0054358D01*
X0128576Y0055511D01*
X0129200Y0057018D01*
X0129200Y0058649D01*
X0128576Y0060156D01*
X0127422Y0061309D01*
X0125916Y0061933D01*
X0119084Y0061933D01*
X0117578Y0061309D01*
X0116424Y0060156D01*
X0115800Y0058649D01*
X0115800Y0057018D01*
X0116424Y0055511D01*
X0117578Y0054358D01*
X0119084Y0053733D01*
X0117704Y0054305D02*
X0097296Y0054305D01*
X0097422Y0054358D02*
X0098576Y0055511D01*
X0099200Y0057018D01*
X0099200Y0058649D01*
X0098576Y0060156D01*
X0097422Y0061309D01*
X0095916Y0061933D01*
X0089084Y0061933D01*
X0087578Y0061309D01*
X0086424Y0060156D01*
X0085800Y0058649D01*
X0085800Y0057018D01*
X0086424Y0055511D01*
X0087578Y0054358D01*
X0089084Y0053733D01*
X0095916Y0053733D01*
X0097422Y0054358D01*
X0097969Y0054904D02*
X0117031Y0054904D01*
X0116433Y0055502D02*
X0098567Y0055502D01*
X0098820Y0056101D02*
X0116180Y0056101D01*
X0115932Y0056699D02*
X0099068Y0056699D01*
X0099200Y0057298D02*
X0115800Y0057298D01*
X0115800Y0057896D02*
X0099200Y0057896D01*
X0099200Y0058495D02*
X0115800Y0058495D01*
X0115984Y0059093D02*
X0099016Y0059093D01*
X0098768Y0059692D02*
X0116232Y0059692D01*
X0116559Y0060290D02*
X0098441Y0060290D01*
X0097843Y0060889D02*
X0117157Y0060889D01*
X0118008Y0061487D02*
X0096992Y0061487D01*
X0096273Y0063881D02*
X0118727Y0063881D01*
X0117455Y0064480D02*
X0097545Y0064480D01*
X0098143Y0065079D02*
X0116857Y0065079D01*
X0116355Y0065677D02*
X0098645Y0065677D01*
X0098893Y0066276D02*
X0116107Y0066276D01*
X0115860Y0066874D02*
X0099140Y0066874D01*
X0099200Y0067473D02*
X0115800Y0067473D01*
X0115800Y0068071D02*
X0099200Y0068071D01*
X0099191Y0068670D02*
X0115809Y0068670D01*
X0116056Y0069268D02*
X0098944Y0069268D01*
X0098696Y0069867D02*
X0116304Y0069867D01*
X0116734Y0070465D02*
X0098266Y0070465D01*
X0097668Y0071064D02*
X0117332Y0071064D01*
X0118430Y0071662D02*
X0096570Y0071662D01*
X0096695Y0074056D02*
X0118305Y0074056D01*
X0117280Y0074655D02*
X0097720Y0074655D01*
X0098318Y0075253D02*
X0116682Y0075253D01*
X0116283Y0075852D02*
X0098717Y0075852D01*
X0098965Y0076450D02*
X0116035Y0076450D01*
X0115800Y0077049D02*
X0099200Y0077049D01*
X0099200Y0077647D02*
X0115800Y0077647D01*
X0115800Y0078246D02*
X0099200Y0078246D01*
X0099119Y0078844D02*
X0115881Y0078844D01*
X0116129Y0079443D02*
X0098871Y0079443D01*
X0098623Y0080041D02*
X0116377Y0080041D01*
X0116908Y0080640D02*
X0098092Y0080640D01*
X0097493Y0081238D02*
X0117507Y0081238D01*
X0118852Y0081837D02*
X0096148Y0081837D01*
X0097117Y0084231D02*
X0118406Y0084231D01*
X0117389Y0084829D02*
X0097894Y0084829D01*
X0098493Y0085428D02*
X0116817Y0085428D01*
X0116427Y0086026D02*
X0098789Y0086026D01*
X0099037Y0086625D02*
X0116179Y0086625D01*
X0116045Y0087223D02*
X0099200Y0087223D01*
X0087883Y0084231D02*
X0077550Y0084231D01*
X0077700Y0083632D02*
X0170200Y0083632D01*
X0170200Y0083034D02*
X0077700Y0083034D01*
X0077302Y0084829D02*
X0087106Y0084829D01*
X0086507Y0085428D02*
X0077054Y0085428D01*
X0076661Y0086026D02*
X0086211Y0086026D01*
X0085963Y0086625D02*
X0076062Y0086625D01*
X0075464Y0087223D02*
X0085800Y0087223D01*
X0085800Y0087822D02*
X0074045Y0087822D01*
X0074853Y0088420D02*
X0085800Y0088420D01*
X0085953Y0089019D02*
X0075756Y0089019D01*
X0076344Y0089617D02*
X0086201Y0089617D01*
X0086484Y0090216D02*
X0076778Y0090216D01*
X0077083Y0090814D02*
X0087083Y0090814D01*
X0087828Y0091413D02*
X0077296Y0091413D01*
X0086283Y0075852D02*
X0037734Y0075852D01*
X0038333Y0075253D02*
X0086682Y0075253D01*
X0087280Y0074655D02*
X0038931Y0074655D01*
X0039530Y0074056D02*
X0088305Y0074056D01*
X0088008Y0061487D02*
X0074644Y0061487D01*
X0074198Y0061933D02*
X0070802Y0061933D01*
X0068400Y0059532D01*
X0068400Y0056135D01*
X0070802Y0053733D01*
X0074198Y0053733D01*
X0076600Y0056135D01*
X0076600Y0059532D01*
X0074198Y0061933D01*
X0075243Y0060889D02*
X0087157Y0060889D01*
X0086559Y0060290D02*
X0075841Y0060290D01*
X0076440Y0059692D02*
X0086232Y0059692D01*
X0085984Y0059093D02*
X0076600Y0059093D01*
X0076600Y0058495D02*
X0085800Y0058495D01*
X0085800Y0057896D02*
X0076600Y0057896D01*
X0076600Y0057298D02*
X0085800Y0057298D01*
X0085932Y0056699D02*
X0076600Y0056699D01*
X0076566Y0056101D02*
X0086180Y0056101D01*
X0086433Y0055502D02*
X0075967Y0055502D01*
X0075369Y0054904D02*
X0087031Y0054904D01*
X0087704Y0054305D02*
X0074770Y0054305D01*
X0074115Y0051733D02*
X0072800Y0051733D01*
X0072800Y0048133D01*
X0076400Y0048133D01*
X0076400Y0049449D01*
X0074115Y0051733D01*
X0074536Y0051313D02*
X0087586Y0051313D01*
X0086983Y0050714D02*
X0075134Y0050714D01*
X0075733Y0050116D02*
X0086408Y0050116D01*
X0086160Y0049517D02*
X0076332Y0049517D01*
X0076400Y0048919D02*
X0085912Y0048919D01*
X0085800Y0048320D02*
X0076400Y0048320D01*
X0076400Y0047533D02*
X0072800Y0047533D01*
X0072800Y0043933D01*
X0074115Y0043933D01*
X0076400Y0046218D01*
X0076400Y0047533D01*
X0076400Y0047123D02*
X0085800Y0047123D01*
X0085800Y0047722D02*
X0072800Y0047722D01*
X0072800Y0047533D02*
X0072800Y0048133D01*
X0072200Y0048133D01*
X0072200Y0047533D01*
X0072800Y0047533D01*
X0072800Y0047123D02*
X0072200Y0047123D01*
X0072200Y0047533D02*
X0072200Y0043933D01*
X0070885Y0043933D01*
X0068600Y0046218D01*
X0068600Y0047533D01*
X0072200Y0047533D01*
X0072200Y0047722D02*
X0059800Y0047722D01*
X0059800Y0048320D02*
X0068600Y0048320D01*
X0068600Y0048133D02*
X0068600Y0049449D01*
X0070885Y0051733D01*
X0072200Y0051733D01*
X0072200Y0048133D01*
X0068600Y0048133D01*
X0068600Y0048919D02*
X0059800Y0048919D01*
X0059800Y0049517D02*
X0068668Y0049517D01*
X0069267Y0050116D02*
X0059800Y0050116D01*
X0059800Y0050714D02*
X0063535Y0050714D01*
X0062576Y0051313D02*
X0059800Y0051313D01*
X0059800Y0051911D02*
X0062070Y0051911D01*
X0061822Y0052510D02*
X0059800Y0052510D01*
X0059800Y0053108D02*
X0061711Y0053108D01*
X0061711Y0053707D02*
X0059800Y0053707D01*
X0059800Y0054305D02*
X0061884Y0054305D01*
X0062132Y0054904D02*
X0059800Y0054904D01*
X0059800Y0055502D02*
X0062200Y0055502D01*
X0062200Y0056101D02*
X0059800Y0056101D01*
X0059800Y0056699D02*
X0062200Y0056699D01*
X0062200Y0057298D02*
X0059800Y0057298D01*
X0059800Y0057896D02*
X0062200Y0057896D01*
X0062200Y0058495D02*
X0059800Y0058495D01*
X0059800Y0059093D02*
X0062200Y0059093D01*
X0062200Y0059692D02*
X0059800Y0059692D01*
X0059800Y0060290D02*
X0062200Y0060290D01*
X0062200Y0060889D02*
X0059800Y0060889D01*
X0059800Y0061487D02*
X0062200Y0061487D01*
X0062200Y0062086D02*
X0059800Y0062086D01*
X0059800Y0062684D02*
X0062200Y0062684D01*
X0062200Y0063283D02*
X0059800Y0063283D01*
X0059800Y0063881D02*
X0062200Y0063881D01*
X0062200Y0064480D02*
X0059945Y0064480D01*
X0060543Y0065079D02*
X0062200Y0065079D01*
X0062200Y0065677D02*
X0061142Y0065677D01*
X0061600Y0066276D02*
X0062126Y0066276D01*
X0061879Y0066874D02*
X0061600Y0066874D01*
X0061600Y0067473D02*
X0061711Y0067473D01*
X0061711Y0068071D02*
X0061600Y0068071D01*
X0061600Y0068670D02*
X0061828Y0068670D01*
X0061600Y0069268D02*
X0062076Y0069268D01*
X0062589Y0069867D02*
X0061265Y0069867D01*
X0066800Y0062684D02*
X0170200Y0062684D01*
X0170200Y0062086D02*
X0066800Y0062086D01*
X0066800Y0061487D02*
X0070356Y0061487D01*
X0069757Y0060889D02*
X0066800Y0060889D01*
X0066800Y0060290D02*
X0069159Y0060290D01*
X0068560Y0059692D02*
X0066800Y0059692D01*
X0066800Y0059093D02*
X0068400Y0059093D01*
X0068400Y0058495D02*
X0066800Y0058495D01*
X0066800Y0057896D02*
X0068400Y0057896D01*
X0068400Y0057298D02*
X0066800Y0057298D01*
X0066800Y0056699D02*
X0068400Y0056699D01*
X0068434Y0056101D02*
X0066800Y0056101D01*
X0066800Y0055502D02*
X0069033Y0055502D01*
X0069631Y0054904D02*
X0066868Y0054904D01*
X0067116Y0054305D02*
X0070230Y0054305D01*
X0067289Y0053707D02*
X0170121Y0053707D01*
X0170200Y0054305D02*
X0127296Y0054305D01*
X0127969Y0054904D02*
X0170200Y0054904D01*
X0170200Y0055502D02*
X0128567Y0055502D01*
X0128820Y0056101D02*
X0170200Y0056101D01*
X0170200Y0056699D02*
X0129068Y0056699D01*
X0129200Y0057298D02*
X0170200Y0057298D01*
X0170200Y0057896D02*
X0129200Y0057896D01*
X0129200Y0058495D02*
X0170200Y0058495D01*
X0170200Y0059093D02*
X0129016Y0059093D01*
X0128768Y0059692D02*
X0170200Y0059692D01*
X0170200Y0060290D02*
X0128441Y0060290D01*
X0127843Y0060889D02*
X0170200Y0060889D01*
X0170200Y0061487D02*
X0126992Y0061487D01*
X0125969Y0051911D02*
X0168325Y0051911D01*
X0167727Y0051313D02*
X0127414Y0051313D01*
X0128017Y0050714D02*
X0167128Y0050714D01*
X0166530Y0050116D02*
X0128592Y0050116D01*
X0128840Y0049517D02*
X0165931Y0049517D01*
X0165333Y0048919D02*
X0129088Y0048919D01*
X0129200Y0048320D02*
X0164734Y0048320D01*
X0164136Y0047722D02*
X0129200Y0047722D01*
X0129200Y0047123D02*
X0163537Y0047123D01*
X0162939Y0046525D02*
X0128996Y0046525D01*
X0128748Y0045926D02*
X0162340Y0045926D01*
X0161742Y0045328D02*
X0128393Y0045328D01*
X0127794Y0044729D02*
X0161143Y0044729D01*
X0160545Y0044131D02*
X0126875Y0044131D01*
X0121451Y0043532D02*
X0159946Y0043532D01*
X0159348Y0042934D02*
X0120853Y0042934D01*
X0120254Y0042335D02*
X0158749Y0042335D01*
X0158151Y0041737D02*
X0119656Y0041737D01*
X0119057Y0041138D02*
X0157552Y0041138D01*
X0156954Y0040540D02*
X0118459Y0040540D01*
X0117860Y0039941D02*
X0156355Y0039941D01*
X0155757Y0039343D02*
X0117262Y0039343D01*
X0116663Y0038744D02*
X0155158Y0038744D01*
X0154559Y0038145D02*
X0116065Y0038145D01*
X0115466Y0037547D02*
X0153961Y0037547D01*
X0153362Y0036948D02*
X0114868Y0036948D01*
X0114800Y0036350D02*
X0152764Y0036350D01*
X0152165Y0035751D02*
X0114800Y0035751D01*
X0114800Y0035153D02*
X0150875Y0035153D01*
X0150277Y0034554D02*
X0114800Y0034554D01*
X0114800Y0033956D02*
X0149946Y0033956D01*
X0149711Y0033357D02*
X0114800Y0033357D01*
X0114800Y0032759D02*
X0149711Y0032759D01*
X0149760Y0032160D02*
X0114800Y0032160D01*
X0114800Y0031562D02*
X0150008Y0031562D01*
X0150426Y0030963D02*
X0114800Y0030963D01*
X0114800Y0030365D02*
X0151171Y0030365D01*
X0148817Y0016599D02*
X0144057Y0016599D01*
X0145095Y0016001D02*
X0147779Y0016001D01*
X0147180Y0015402D02*
X0145694Y0015402D01*
X0146094Y0014804D02*
X0146780Y0014804D01*
X0146532Y0014205D02*
X0146342Y0014205D01*
X0146239Y0011212D02*
X0146635Y0011212D01*
X0146883Y0010614D02*
X0145991Y0010614D01*
X0145445Y0010015D02*
X0147429Y0010015D01*
X0148028Y0009417D02*
X0144846Y0009417D01*
X0143455Y0008818D02*
X0149419Y0008818D01*
X0141545Y0008818D02*
X0135581Y0008818D01*
X0136972Y0009417D02*
X0140154Y0009417D01*
X0139555Y0010015D02*
X0137571Y0010015D01*
X0138117Y0010614D02*
X0139009Y0010614D01*
X0138761Y0011212D02*
X0138365Y0011212D01*
X0138468Y0014205D02*
X0138658Y0014205D01*
X0138906Y0014804D02*
X0138220Y0014804D01*
X0137820Y0015402D02*
X0139306Y0015402D01*
X0139905Y0016001D02*
X0137221Y0016001D01*
X0136183Y0016599D02*
X0140943Y0016599D01*
X0133069Y0016599D02*
X0129306Y0016599D01*
X0129904Y0016001D02*
X0132031Y0016001D01*
X0131432Y0015402D02*
X0130503Y0015402D01*
X0130773Y0014804D02*
X0131032Y0014804D01*
X0131135Y0010614D02*
X0130669Y0010614D01*
X0130254Y0010015D02*
X0131681Y0010015D01*
X0132280Y0009417D02*
X0129655Y0009417D01*
X0128736Y0008818D02*
X0133671Y0008818D01*
X0124768Y0008818D02*
X0094283Y0008818D01*
X0094198Y0008733D02*
X0096600Y0011135D01*
X0096600Y0014532D01*
X0094198Y0016933D01*
X0090802Y0016933D01*
X0088400Y0014532D01*
X0088400Y0011135D01*
X0090802Y0008733D01*
X0094198Y0008733D01*
X0094882Y0009417D02*
X0110401Y0009417D01*
X0109802Y0010015D02*
X0095480Y0010015D01*
X0096079Y0010614D02*
X0109204Y0010614D01*
X0108605Y0011212D02*
X0096600Y0011212D01*
X0096600Y0011811D02*
X0108600Y0011811D01*
X0108600Y0012410D02*
X0096600Y0012410D01*
X0096600Y0013008D02*
X0112200Y0013008D01*
X0112200Y0012410D02*
X0112800Y0012410D01*
X0112800Y0011811D02*
X0112200Y0011811D01*
X0112200Y0011212D02*
X0112800Y0011212D01*
X0112800Y0010614D02*
X0112200Y0010614D01*
X0112200Y0010015D02*
X0112800Y0010015D01*
X0112800Y0009417D02*
X0112200Y0009417D01*
X0114599Y0009417D02*
X0123849Y0009417D01*
X0123250Y0010015D02*
X0115198Y0010015D01*
X0115796Y0010614D02*
X0122835Y0010614D01*
X0122587Y0011212D02*
X0116395Y0011212D01*
X0116400Y0011811D02*
X0122339Y0011811D01*
X0110542Y0018993D02*
X0104100Y0018993D01*
X0104100Y0018395D02*
X0164367Y0018395D01*
X0164346Y0017796D02*
X0104100Y0017796D01*
X0104040Y0019592D02*
X0109943Y0019592D01*
X0109345Y0020190D02*
X0103441Y0020190D01*
X0102843Y0020789D02*
X0108746Y0020789D01*
X0108400Y0021387D02*
X0102244Y0021387D01*
X0096400Y0023183D02*
X0108400Y0023183D01*
X0108400Y0023781D02*
X0096400Y0023781D01*
X0096400Y0024380D02*
X0108400Y0024380D01*
X0108847Y0024978D02*
X0095870Y0024978D01*
X0095272Y0025577D02*
X0109445Y0025577D01*
X0110044Y0026175D02*
X0094673Y0026175D01*
X0092800Y0026175D02*
X0092200Y0026175D01*
X0092200Y0026733D02*
X0090885Y0026733D01*
X0088600Y0024449D01*
X0088600Y0023133D01*
X0092200Y0023133D01*
X0092200Y0026733D01*
X0092200Y0025577D02*
X0092800Y0025577D01*
X0092800Y0024978D02*
X0092200Y0024978D01*
X0092200Y0024380D02*
X0092800Y0024380D01*
X0092800Y0023781D02*
X0092200Y0023781D01*
X0092200Y0023183D02*
X0092800Y0023183D01*
X0092800Y0021387D02*
X0092200Y0021387D01*
X0092200Y0020789D02*
X0092800Y0020789D01*
X0092800Y0020190D02*
X0092200Y0020190D01*
X0092200Y0019592D02*
X0092800Y0019592D01*
X0092800Y0018993D02*
X0092200Y0018993D01*
X0090825Y0018993D02*
X0079175Y0018993D01*
X0079774Y0019592D02*
X0090226Y0019592D01*
X0089628Y0020190D02*
X0080372Y0020190D01*
X0080971Y0020789D02*
X0089029Y0020789D01*
X0088600Y0021387D02*
X0081400Y0021387D01*
X0081400Y0021986D02*
X0088600Y0021986D01*
X0088600Y0023183D02*
X0081400Y0023183D01*
X0081400Y0023781D02*
X0088600Y0023781D01*
X0088600Y0024380D02*
X0081400Y0024380D01*
X0080870Y0024978D02*
X0089130Y0024978D01*
X0089728Y0025577D02*
X0080272Y0025577D01*
X0079673Y0026175D02*
X0090327Y0026175D01*
X0090467Y0016599D02*
X0079532Y0016599D01*
X0079198Y0016933D02*
X0075802Y0016933D01*
X0073400Y0014532D01*
X0073400Y0011135D01*
X0075802Y0008733D01*
X0079198Y0008733D01*
X0081600Y0011135D01*
X0081600Y0014532D01*
X0079198Y0016933D01*
X0080131Y0016001D02*
X0089869Y0016001D01*
X0089270Y0015402D02*
X0080730Y0015402D01*
X0081328Y0014804D02*
X0088672Y0014804D01*
X0088400Y0014205D02*
X0081600Y0014205D01*
X0081600Y0013607D02*
X0088400Y0013607D01*
X0088400Y0013008D02*
X0081600Y0013008D01*
X0081600Y0012410D02*
X0088400Y0012410D01*
X0088400Y0011811D02*
X0081600Y0011811D01*
X0081600Y0011212D02*
X0088400Y0011212D01*
X0088921Y0010614D02*
X0081079Y0010614D01*
X0080480Y0010015D02*
X0089520Y0010015D01*
X0090118Y0009417D02*
X0079882Y0009417D01*
X0079283Y0008818D02*
X0090717Y0008818D01*
X0096600Y0013607D02*
X0108600Y0013607D01*
X0097830Y0014205D02*
X0096600Y0014205D01*
X0096328Y0014804D02*
X0097231Y0014804D01*
X0096633Y0015402D02*
X0095730Y0015402D01*
X0096034Y0016001D02*
X0095131Y0016001D01*
X0094532Y0016599D02*
X0095900Y0016599D01*
X0110200Y0029168D02*
X0064350Y0029168D01*
X0064948Y0029766D02*
X0110200Y0029766D01*
X0110200Y0030365D02*
X0065547Y0030365D01*
X0066145Y0030963D02*
X0110200Y0030963D01*
X0110200Y0031562D02*
X0066400Y0031562D01*
X0066400Y0032160D02*
X0110200Y0032160D01*
X0089031Y0051911D02*
X0066930Y0051911D01*
X0067178Y0052510D02*
X0168924Y0052510D01*
X0169522Y0053108D02*
X0067289Y0053108D01*
X0066424Y0051313D02*
X0070464Y0051313D01*
X0069865Y0050714D02*
X0065465Y0050714D01*
X0068600Y0047123D02*
X0059800Y0047123D01*
X0059800Y0046525D02*
X0068600Y0046525D01*
X0068892Y0045926D02*
X0059800Y0045926D01*
X0059800Y0045328D02*
X0069490Y0045328D01*
X0070089Y0044729D02*
X0059800Y0044729D01*
X0059800Y0044131D02*
X0070687Y0044131D01*
X0072200Y0044131D02*
X0072800Y0044131D01*
X0072800Y0044729D02*
X0072200Y0044729D01*
X0072200Y0045328D02*
X0072800Y0045328D01*
X0072800Y0045926D02*
X0072200Y0045926D01*
X0072200Y0046525D02*
X0072800Y0046525D01*
X0072800Y0048320D02*
X0072200Y0048320D01*
X0072200Y0048919D02*
X0072800Y0048919D01*
X0072800Y0049517D02*
X0072200Y0049517D01*
X0072200Y0050116D02*
X0072800Y0050116D01*
X0072800Y0050714D02*
X0072200Y0050714D01*
X0072200Y0051313D02*
X0072800Y0051313D01*
X0076400Y0046525D02*
X0086004Y0046525D01*
X0086252Y0045926D02*
X0076108Y0045926D01*
X0075510Y0045328D02*
X0086607Y0045328D01*
X0087206Y0044729D02*
X0074911Y0044729D01*
X0074313Y0044131D02*
X0088125Y0044131D01*
X0077800Y0026175D02*
X0077200Y0026175D01*
X0077200Y0025577D02*
X0077800Y0025577D01*
X0077800Y0024978D02*
X0077200Y0024978D01*
X0077200Y0024380D02*
X0077800Y0024380D01*
X0077800Y0023781D02*
X0077200Y0023781D01*
X0077200Y0023183D02*
X0077800Y0023183D01*
X0077800Y0021387D02*
X0077200Y0021387D01*
X0077200Y0020789D02*
X0077800Y0020789D01*
X0077800Y0020190D02*
X0077200Y0020190D01*
X0077200Y0019592D02*
X0077800Y0019592D01*
X0077800Y0018993D02*
X0077200Y0018993D01*
X0075467Y0016599D02*
X0064122Y0016599D01*
X0065131Y0016001D02*
X0074869Y0016001D01*
X0074270Y0015402D02*
X0065730Y0015402D01*
X0066122Y0014804D02*
X0073672Y0014804D01*
X0073400Y0014205D02*
X0066370Y0014205D01*
X0066600Y0013607D02*
X0073400Y0013607D01*
X0073400Y0013008D02*
X0066600Y0013008D01*
X0066600Y0012410D02*
X0073400Y0012410D01*
X0073400Y0011811D02*
X0066514Y0011811D01*
X0066266Y0011212D02*
X0073400Y0011212D01*
X0073921Y0010614D02*
X0066019Y0010614D01*
X0065480Y0010015D02*
X0074520Y0010015D01*
X0075118Y0009417D02*
X0064882Y0009417D01*
X0063521Y0008818D02*
X0075717Y0008818D01*
X0062800Y0029168D02*
X0062200Y0029168D01*
X0062200Y0029766D02*
X0062800Y0029766D01*
X0062800Y0030365D02*
X0062200Y0030365D01*
X0062200Y0030963D02*
X0062800Y0030963D01*
X0062800Y0031562D02*
X0062200Y0031562D01*
X0062200Y0032160D02*
X0062800Y0032160D01*
X0062800Y0033956D02*
X0062200Y0033956D01*
X0062200Y0034554D02*
X0062800Y0034554D01*
X0062800Y0035153D02*
X0062200Y0035153D01*
X0062200Y0035751D02*
X0062800Y0035751D01*
X0062800Y0036350D02*
X0062200Y0036350D01*
X0060501Y0036350D02*
X0059269Y0036350D01*
X0058735Y0035751D02*
X0059903Y0035751D01*
X0059304Y0035153D02*
X0058211Y0035153D01*
X0058706Y0034554D02*
X0057687Y0034554D01*
X0057163Y0033956D02*
X0058600Y0033956D01*
X0058600Y0033357D02*
X0056640Y0033357D01*
X0044100Y0007621D02*
X0181567Y0007621D01*
X0181815Y0007023D02*
X0044100Y0007023D01*
X0044100Y0006424D02*
X0182063Y0006424D01*
X0182311Y0005826D02*
X0043791Y0005826D01*
X0043192Y0005227D02*
X0182680Y0005227D01*
X0183279Y0004629D02*
X0042594Y0004629D01*
X0122200Y0084231D02*
X0122800Y0084231D01*
X0122800Y0084829D02*
X0122200Y0084829D01*
X0122200Y0085428D02*
X0122800Y0085428D01*
X0122800Y0086026D02*
X0122200Y0086026D01*
X0122200Y0086625D02*
X0122800Y0086625D01*
X0122800Y0088420D02*
X0122200Y0088420D01*
X0122200Y0089019D02*
X0122800Y0089019D01*
X0122800Y0089617D02*
X0122200Y0089617D01*
X0122200Y0090216D02*
X0122800Y0090216D01*
X0122800Y0090814D02*
X0122200Y0090814D01*
X0122200Y0091413D02*
X0122800Y0091413D01*
X0128955Y0087223D02*
X0170200Y0087223D01*
X0170200Y0086625D02*
X0128821Y0086625D01*
X0128573Y0086026D02*
X0170200Y0086026D01*
X0170200Y0085428D02*
X0128183Y0085428D01*
X0127611Y0084829D02*
X0170200Y0084829D01*
X0170200Y0084231D02*
X0126594Y0084231D01*
X0173614Y0100391D02*
X0175200Y0100391D01*
X0175200Y0099792D02*
X0174485Y0099792D01*
X0174955Y0099194D02*
X0175200Y0099194D01*
X0175200Y0096800D02*
X0175091Y0096800D01*
X0175200Y0096201D02*
X0174812Y0096201D01*
X0174800Y0095603D02*
X0175200Y0095603D01*
X0175200Y0095004D02*
X0174800Y0095004D01*
X0174800Y0094406D02*
X0175200Y0094406D01*
X0175200Y0093807D02*
X0174800Y0093807D01*
X0174800Y0093209D02*
X0175200Y0093209D01*
X0175200Y0092610D02*
X0174800Y0092610D01*
X0174800Y0092012D02*
X0175200Y0092012D01*
X0175200Y0091413D02*
X0174800Y0091413D01*
X0174800Y0090814D02*
X0175200Y0090814D01*
X0175200Y0090216D02*
X0174800Y0090216D01*
X0174800Y0089617D02*
X0175200Y0089617D01*
X0175200Y0089019D02*
X0174800Y0089019D01*
X0174800Y0088420D02*
X0175200Y0088420D01*
X0175200Y0087822D02*
X0174800Y0087822D01*
X0174800Y0087223D02*
X0175200Y0087223D01*
X0175200Y0086625D02*
X0174800Y0086625D01*
X0174800Y0086026D02*
X0175200Y0086026D01*
X0175200Y0085428D02*
X0174800Y0085428D01*
X0174800Y0084829D02*
X0175200Y0084829D01*
X0175200Y0084231D02*
X0174800Y0084231D01*
X0174800Y0083632D02*
X0175200Y0083632D01*
X0175200Y0083034D02*
X0174800Y0083034D01*
X0174800Y0082435D02*
X0175200Y0082435D01*
X0175200Y0081837D02*
X0174800Y0081837D01*
X0174800Y0081238D02*
X0175200Y0081238D01*
X0175200Y0080640D02*
X0174800Y0080640D01*
X0174800Y0080041D02*
X0175200Y0080041D01*
X0175200Y0079443D02*
X0174800Y0079443D01*
X0174800Y0078844D02*
X0175200Y0078844D01*
X0175200Y0078246D02*
X0174800Y0078246D01*
X0174800Y0077647D02*
X0175200Y0077647D01*
X0175200Y0077049D02*
X0174800Y0077049D01*
X0174800Y0076450D02*
X0175200Y0076450D01*
X0175200Y0075852D02*
X0174800Y0075852D01*
X0174800Y0075253D02*
X0175200Y0075253D01*
X0175200Y0074655D02*
X0174800Y0074655D01*
X0174800Y0074056D02*
X0175200Y0074056D01*
X0175200Y0073458D02*
X0174800Y0073458D01*
X0174800Y0072859D02*
X0175200Y0072859D01*
X0175200Y0072261D02*
X0174800Y0072261D01*
X0179800Y0072261D02*
X0197676Y0072261D01*
X0198420Y0072859D02*
X0179800Y0072859D01*
X0179800Y0073458D02*
X0197022Y0073458D01*
X0196423Y0074056D02*
X0179800Y0074056D01*
X0179800Y0074655D02*
X0195825Y0074655D01*
X0195440Y0075253D02*
X0179800Y0075253D01*
X0179800Y0075852D02*
X0195192Y0075852D01*
X0194944Y0076450D02*
X0179800Y0076450D01*
X0179800Y0077049D02*
X0194800Y0077049D01*
X0194800Y0077647D02*
X0179800Y0077647D01*
X0179800Y0078246D02*
X0194800Y0078246D01*
X0194800Y0078844D02*
X0179800Y0078844D01*
X0179800Y0079443D02*
X0195038Y0079443D01*
X0195286Y0080041D02*
X0179800Y0080041D01*
X0179800Y0080640D02*
X0195534Y0080640D01*
X0196051Y0081238D02*
X0179800Y0081238D01*
X0179800Y0081837D02*
X0196650Y0081837D01*
X0197522Y0082435D02*
X0179800Y0082435D01*
X0179800Y0083034D02*
X0197999Y0083034D01*
X0196847Y0083632D02*
X0179800Y0083632D01*
X0179800Y0084231D02*
X0196249Y0084231D01*
X0195650Y0084829D02*
X0179800Y0084829D01*
X0179800Y0085428D02*
X0195368Y0085428D01*
X0195120Y0086026D02*
X0179800Y0086026D01*
X0179800Y0086625D02*
X0194872Y0086625D01*
X0194800Y0087223D02*
X0179800Y0087223D01*
X0179800Y0087822D02*
X0194800Y0087822D01*
X0194800Y0088420D02*
X0179800Y0088420D01*
X0179800Y0089019D02*
X0194863Y0089019D01*
X0195111Y0089617D02*
X0179800Y0089617D01*
X0179800Y0090216D02*
X0195358Y0090216D01*
X0195627Y0090814D02*
X0179800Y0090814D01*
X0179800Y0091413D02*
X0196226Y0091413D01*
X0196824Y0092012D02*
X0179800Y0092012D01*
X0179800Y0092610D02*
X0197944Y0092610D01*
X0197577Y0093209D02*
X0179800Y0093209D01*
X0179800Y0093807D02*
X0196672Y0093807D01*
X0196074Y0094406D02*
X0179800Y0094406D01*
X0179800Y0095004D02*
X0195543Y0095004D01*
X0195296Y0095603D02*
X0179800Y0095603D01*
X0179800Y0096201D02*
X0195048Y0096201D01*
X0194800Y0096800D02*
X0179800Y0096800D01*
X0179800Y0097398D02*
X0194800Y0097398D01*
X0194800Y0097997D02*
X0179800Y0097997D01*
X0179800Y0098595D02*
X0194800Y0098595D01*
X0194935Y0099194D02*
X0179800Y0099194D01*
X0179800Y0099792D02*
X0195183Y0099792D01*
X0195431Y0100391D02*
X0179800Y0100391D01*
X0179800Y0100989D02*
X0195802Y0100989D01*
X0196400Y0101588D02*
X0179800Y0101588D01*
X0179800Y0102186D02*
X0196999Y0102186D01*
X0197155Y0103383D02*
X0179800Y0103383D01*
X0179800Y0102785D02*
X0198366Y0102785D01*
X0196498Y0103982D02*
X0179800Y0103982D01*
X0179800Y0104580D02*
X0195899Y0104580D01*
X0195471Y0105179D02*
X0179800Y0105179D01*
X0179800Y0105777D02*
X0195223Y0105777D01*
X0194975Y0106376D02*
X0179915Y0106376D01*
X0180163Y0106974D02*
X0194800Y0106974D01*
X0194800Y0107573D02*
X0180289Y0107573D01*
X0180289Y0108171D02*
X0194800Y0108171D01*
X0194800Y0108770D02*
X0180131Y0108770D01*
X0179883Y0109368D02*
X0195007Y0109368D01*
X0195255Y0109967D02*
X0179311Y0109967D01*
X0179800Y0071662D02*
X0196763Y0071662D01*
X0196167Y0071064D02*
X0179800Y0071064D01*
X0179800Y0070465D02*
X0195732Y0070465D01*
X0195424Y0069867D02*
X0179800Y0069867D01*
X0179800Y0069268D02*
X0195209Y0069268D01*
X0195070Y0068670D02*
X0179800Y0068670D01*
X0179800Y0068071D02*
X0199700Y0068071D01*
X0199700Y0067533D02*
X0195000Y0067533D01*
X0195000Y0067440D01*
X0195123Y0066662D01*
X0195366Y0065914D01*
X0195724Y0065213D01*
X0196186Y0064576D01*
X0196743Y0064020D01*
X0197379Y0063557D01*
X0198081Y0063200D01*
X0198829Y0062956D01*
X0199606Y0062833D01*
X0199700Y0062833D01*
X0199700Y0067533D01*
X0199700Y0067473D02*
X0200300Y0067473D01*
X0200300Y0066874D02*
X0199700Y0066874D01*
X0199700Y0066276D02*
X0200300Y0066276D01*
X0200300Y0065677D02*
X0199700Y0065677D01*
X0199700Y0065079D02*
X0200300Y0065079D01*
X0200300Y0064480D02*
X0199700Y0064480D01*
X0199700Y0063881D02*
X0200300Y0063881D01*
X0200300Y0063283D02*
X0199700Y0063283D01*
X0197917Y0063283D02*
X0179800Y0063283D01*
X0179800Y0063881D02*
X0196933Y0063881D01*
X0196282Y0064480D02*
X0179800Y0064480D01*
X0179800Y0065079D02*
X0195821Y0065079D01*
X0195487Y0065677D02*
X0179800Y0065677D01*
X0179800Y0066276D02*
X0195249Y0066276D01*
X0195090Y0066874D02*
X0179800Y0066874D01*
X0179800Y0067473D02*
X0195000Y0067473D01*
X0202083Y0063283D02*
X0202500Y0063283D01*
X0202500Y0062684D02*
X0179800Y0062684D01*
X0179800Y0062086D02*
X0202500Y0062086D01*
X0202500Y0061487D02*
X0179800Y0061487D01*
X0179800Y0060889D02*
X0202500Y0060889D01*
X0202500Y0060290D02*
X0179800Y0060290D01*
X0179800Y0059692D02*
X0202500Y0059692D01*
X0202500Y0059093D02*
X0179800Y0059093D01*
X0179800Y0058495D02*
X0202500Y0058495D01*
X0202500Y0057896D02*
X0179800Y0057896D01*
X0179800Y0057298D02*
X0202500Y0057298D01*
X0202500Y0056699D02*
X0179800Y0056699D01*
X0179800Y0056101D02*
X0202500Y0056101D01*
X0202500Y0055502D02*
X0179800Y0055502D01*
X0179800Y0054904D02*
X0202500Y0054904D01*
X0202500Y0054305D02*
X0179800Y0054305D01*
X0179800Y0053707D02*
X0202500Y0053707D01*
X0202500Y0053108D02*
X0179800Y0053108D01*
X0179800Y0052510D02*
X0202500Y0052510D01*
X0202500Y0051911D02*
X0179800Y0051911D01*
X0179800Y0051313D02*
X0202500Y0051313D01*
X0202500Y0050714D02*
X0179800Y0050714D01*
X0179800Y0050116D02*
X0202500Y0050116D01*
X0202500Y0049517D02*
X0179800Y0049517D01*
X0179800Y0048919D02*
X0202500Y0048919D01*
X0202500Y0048320D02*
X0179800Y0048320D01*
X0179800Y0047722D02*
X0202500Y0047722D01*
X0202500Y0047123D02*
X0179800Y0047123D01*
X0179800Y0046525D02*
X0202500Y0046525D01*
X0202500Y0045926D02*
X0179800Y0045926D01*
X0179800Y0045328D02*
X0202500Y0045328D01*
X0202500Y0044729D02*
X0191325Y0044729D01*
X0192528Y0044231D02*
X0189914Y0045314D01*
X0187086Y0045314D01*
X0184472Y0044231D01*
X0182472Y0042231D01*
X0181390Y0039618D01*
X0181390Y0036789D01*
X0182472Y0034176D01*
X0184472Y0032176D01*
X0187086Y0031093D01*
X0189914Y0031093D01*
X0192528Y0032176D01*
X0194528Y0034176D01*
X0195610Y0036789D01*
X0195610Y0039618D01*
X0194528Y0042231D01*
X0192528Y0044231D01*
X0192628Y0044131D02*
X0202500Y0044131D01*
X0202500Y0043532D02*
X0193227Y0043532D01*
X0193825Y0042934D02*
X0202500Y0042934D01*
X0202500Y0042335D02*
X0194424Y0042335D01*
X0194733Y0041737D02*
X0202500Y0041737D01*
X0202500Y0041138D02*
X0194980Y0041138D01*
X0195228Y0040540D02*
X0202500Y0040540D01*
X0202500Y0039941D02*
X0195476Y0039941D01*
X0195610Y0039343D02*
X0202500Y0039343D01*
X0202500Y0038744D02*
X0195610Y0038744D01*
X0195610Y0038145D02*
X0202500Y0038145D01*
X0202500Y0037547D02*
X0195610Y0037547D01*
X0195610Y0036948D02*
X0202500Y0036948D01*
X0202500Y0036350D02*
X0195428Y0036350D01*
X0195180Y0035751D02*
X0202500Y0035751D01*
X0202500Y0035153D02*
X0194933Y0035153D01*
X0194685Y0034554D02*
X0202500Y0034554D01*
X0202500Y0033956D02*
X0194308Y0033956D01*
X0193709Y0033357D02*
X0202500Y0033357D01*
X0202500Y0032759D02*
X0193111Y0032759D01*
X0192491Y0032160D02*
X0202500Y0032160D01*
X0202500Y0031562D02*
X0191046Y0031562D01*
X0185954Y0031562D02*
X0179800Y0031562D01*
X0179800Y0032160D02*
X0184509Y0032160D01*
X0183889Y0032759D02*
X0179800Y0032759D01*
X0179800Y0033357D02*
X0183291Y0033357D01*
X0182692Y0033956D02*
X0179800Y0033956D01*
X0179800Y0034554D02*
X0182315Y0034554D01*
X0182067Y0035153D02*
X0179800Y0035153D01*
X0179800Y0035751D02*
X0181820Y0035751D01*
X0181572Y0036350D02*
X0179800Y0036350D01*
X0179800Y0036948D02*
X0181390Y0036948D01*
X0181390Y0037547D02*
X0179800Y0037547D01*
X0179800Y0038145D02*
X0181390Y0038145D01*
X0181390Y0038744D02*
X0179800Y0038744D01*
X0179800Y0039343D02*
X0181390Y0039343D01*
X0181524Y0039941D02*
X0179800Y0039941D01*
X0179800Y0040540D02*
X0181772Y0040540D01*
X0182020Y0041138D02*
X0179800Y0041138D01*
X0179800Y0041737D02*
X0182267Y0041737D01*
X0182576Y0042335D02*
X0179800Y0042335D01*
X0179800Y0042934D02*
X0183175Y0042934D01*
X0183773Y0043532D02*
X0179800Y0043532D01*
X0179800Y0044131D02*
X0184372Y0044131D01*
X0185675Y0044729D02*
X0179800Y0044729D01*
X0179800Y0030963D02*
X0202500Y0030963D01*
X0202500Y0030365D02*
X0179800Y0030365D01*
X0179800Y0029766D02*
X0202500Y0029766D01*
X0202500Y0029168D02*
X0179800Y0029168D01*
X0179800Y0028569D02*
X0202500Y0028569D01*
X0202500Y0027971D02*
X0179800Y0027971D01*
X0179800Y0027372D02*
X0202500Y0027372D01*
X0202500Y0026774D02*
X0179800Y0026774D01*
X0179800Y0026175D02*
X0202500Y0026175D01*
X0202500Y0025577D02*
X0179800Y0025577D01*
X0179800Y0024978D02*
X0202500Y0024978D01*
X0202500Y0024380D02*
X0179800Y0024380D01*
X0179496Y0023781D02*
X0202500Y0023781D01*
X0202500Y0023183D02*
X0178897Y0023183D01*
X0178299Y0022584D02*
X0202500Y0022584D01*
X0202500Y0021986D02*
X0177700Y0021986D01*
X0177220Y0021387D02*
X0202500Y0021387D01*
X0202500Y0020789D02*
X0177220Y0020789D01*
X0177220Y0020190D02*
X0202500Y0020190D01*
X0202500Y0019592D02*
X0177104Y0019592D01*
X0176856Y0018993D02*
X0202500Y0018993D01*
X0202500Y0018395D02*
X0176608Y0018395D01*
X0176021Y0017796D02*
X0202500Y0017796D01*
X0202500Y0017198D02*
X0175377Y0017198D01*
X0172444Y0016599D02*
X0202500Y0016599D01*
X0202500Y0016001D02*
X0191297Y0016001D01*
X0192617Y0015402D02*
X0202500Y0015402D01*
X0202500Y0014804D02*
X0193215Y0014804D01*
X0193814Y0014205D02*
X0202500Y0014205D01*
X0202500Y0013607D02*
X0194412Y0013607D01*
X0194728Y0013008D02*
X0202500Y0013008D01*
X0202500Y0012410D02*
X0194976Y0012410D01*
X0195224Y0011811D02*
X0202500Y0011811D01*
X0202500Y0011212D02*
X0195471Y0011212D01*
X0195610Y0010614D02*
X0202500Y0010614D01*
X0202500Y0010015D02*
X0195610Y0010015D01*
X0195610Y0009417D02*
X0202500Y0009417D01*
X0202500Y0008818D02*
X0195610Y0008818D01*
X0195610Y0008220D02*
X0202500Y0008220D01*
X0202500Y0007621D02*
X0195433Y0007621D01*
X0195185Y0007023D02*
X0202500Y0007023D01*
X0202500Y0006424D02*
X0194937Y0006424D01*
X0194689Y0005826D02*
X0202500Y0005826D01*
X0202500Y0005227D02*
X0194320Y0005227D01*
X0193721Y0004629D02*
X0202500Y0004629D01*
X0185703Y0016001D02*
X0172197Y0016001D01*
X0171949Y0015402D02*
X0184383Y0015402D01*
X0183785Y0014804D02*
X0171453Y0014804D01*
X0170855Y0014205D02*
X0183186Y0014205D01*
X0182588Y0013607D02*
X0169587Y0013607D01*
X0167255Y0013607D02*
X0162717Y0013607D01*
X0162717Y0013008D02*
X0182272Y0013008D01*
X0182024Y0012410D02*
X0162717Y0012410D01*
X0162661Y0011811D02*
X0181776Y0011811D01*
X0181529Y0011212D02*
X0162413Y0011212D01*
X0162165Y0010614D02*
X0181390Y0010614D01*
X0181390Y0010015D02*
X0161750Y0010015D01*
X0161151Y0009417D02*
X0181390Y0009417D01*
X0165988Y0014205D02*
X0162517Y0014205D01*
X0162269Y0014804D02*
X0165389Y0014804D01*
X0164894Y0015402D02*
X0161999Y0015402D01*
X0161400Y0016001D02*
X0164646Y0016001D01*
X0164398Y0016599D02*
X0160802Y0016599D01*
X0159388Y0017198D02*
X0164346Y0017198D01*
X0088844Y0163833D02*
X0015500Y0163833D01*
X0016169Y0164431D02*
X0087504Y0164431D01*
X0086905Y0165030D02*
X0016644Y0165030D01*
X0016988Y0165628D02*
X0086375Y0165628D01*
X0086128Y0166227D02*
X0017235Y0166227D01*
X0017403Y0166825D02*
X0085880Y0166825D01*
X0085800Y0167424D02*
X0017497Y0167424D01*
X0017438Y0168621D02*
X0085800Y0168621D01*
X0085800Y0168022D02*
X0012800Y0168022D01*
X0016369Y0171015D02*
X0087283Y0171015D01*
X0086685Y0170416D02*
X0016795Y0170416D01*
X0017100Y0169818D02*
X0086284Y0169818D01*
X0086036Y0169219D02*
X0017307Y0169219D01*
X0015791Y0171614D02*
X0088312Y0171614D01*
X0086730Y0175205D02*
X0073442Y0175205D01*
X0074414Y0175803D02*
X0086303Y0175803D01*
X0086055Y0176402D02*
X0074926Y0176402D01*
X0075174Y0177000D02*
X0085807Y0177000D01*
X0085800Y0177599D02*
X0075289Y0177599D01*
X0075289Y0178197D02*
X0085800Y0178197D01*
X0085861Y0178796D02*
X0075120Y0178796D01*
X0074872Y0179394D02*
X0086109Y0179394D01*
X0086357Y0179993D02*
X0074800Y0179993D01*
X0074800Y0180591D02*
X0086860Y0180591D01*
X0087458Y0181190D02*
X0074800Y0181190D01*
X0074800Y0181788D02*
X0088734Y0181788D01*
X0074800Y0182387D02*
X0202500Y0182387D01*
X0202500Y0182985D02*
X0074800Y0182985D01*
X0074800Y0183584D02*
X0202500Y0183584D01*
X0202500Y0184182D02*
X0074800Y0184182D01*
X0074800Y0184781D02*
X0202500Y0184781D01*
X0202500Y0185379D02*
X0074800Y0185379D01*
X0074800Y0185978D02*
X0202500Y0185978D01*
X0202500Y0186576D02*
X0074800Y0186576D01*
X0074800Y0187175D02*
X0202500Y0187175D01*
X0202500Y0187773D02*
X0074800Y0187773D01*
X0070200Y0181788D02*
X0015899Y0181788D01*
X0016498Y0181190D02*
X0070200Y0181190D01*
X0059979Y0196152D02*
X0095021Y0196152D01*
X0095619Y0196751D02*
X0059381Y0196751D01*
X0010326Y0192561D02*
X0009000Y0192561D01*
X0009000Y0191963D02*
X0009276Y0191963D01*
X0139343Y0181788D02*
X0202500Y0181788D01*
X0202500Y0181190D02*
X0139942Y0181190D01*
X0140540Y0180591D02*
X0202500Y0180591D01*
X0202500Y0179993D02*
X0141139Y0179993D01*
X0141600Y0179394D02*
X0202500Y0179394D01*
X0202500Y0178796D02*
X0141600Y0178796D01*
X0141600Y0178197D02*
X0202500Y0178197D01*
X0202500Y0177599D02*
X0141600Y0177599D01*
X0141600Y0177000D02*
X0202500Y0177000D01*
X0202500Y0176402D02*
X0141600Y0176402D01*
X0141268Y0175803D02*
X0202500Y0175803D01*
X0202500Y0175205D02*
X0140670Y0175205D01*
X0140071Y0174606D02*
X0202500Y0174606D01*
X0202500Y0174008D02*
X0139473Y0174008D01*
D19*
X0092500Y0147833D02*
X0022500Y0147833D01*
X0012500Y0157833D01*
X0012500Y0147833D02*
X0022500Y0137833D01*
X0092500Y0137833D01*
X0072500Y0177833D02*
X0072500Y0192833D01*
X0012500Y0097833D02*
X0037500Y0072833D01*
X0037500Y0067833D01*
X0037500Y0042833D01*
X0047500Y0037833D02*
X0027500Y0017833D01*
X0021500Y0018333D01*
X0040000Y0017833D02*
X0057500Y0037833D01*
X0057500Y0067833D01*
X0064500Y0067833D02*
X0064500Y0053333D01*
X0047500Y0067833D02*
X0047500Y0037833D01*
X0022500Y0057833D02*
X0022500Y0077833D01*
X0012500Y0087833D01*
X0112500Y0037833D02*
X0112500Y0022833D01*
X0112500Y0037833D02*
X0122500Y0047833D01*
X0152500Y0032833D02*
X0172500Y0052833D01*
X0172500Y0097833D01*
X0177500Y0107833D02*
X0177500Y0025038D01*
X0173146Y0020684D01*
X0177500Y0032833D02*
X0177500Y0107833D01*
D20*
X0177500Y0107833D03*
X0172500Y0097833D03*
X0152500Y0032833D03*
X0064500Y0053333D03*
X0064500Y0067833D03*
X0022500Y0057833D03*
X0072500Y0177833D03*
X0072500Y0192833D03*
M02*
