%
M48
M72
T01C0.01378
T02C0.03150
T03C0.03200
T04C0.03937
T05C0.04000
T06C0.07480
%
T01
X22500Y57833
X64500Y53333
X64500Y67833
X152500Y32833
X172500Y97833
X177500Y107833
X72500Y177833
X72500Y192833
T02
X168421Y30133
X173146Y26983
X168421Y23833
X173146Y20684
X168421Y17534
X150374Y12833
X142500Y12833
X134626Y12833
T03
X21500Y8333
X21500Y18333
X40000Y17833
X40000Y7833
X62500Y12833
X77500Y12833
X77500Y22833
X62500Y32833
X72500Y47833
X72500Y57833
X57500Y67833
X47500Y67833
X37500Y67833
X37500Y107833
X47500Y107833
X57500Y107833
X92500Y107833
X92500Y97833
X92500Y87833
X92500Y77833
X92500Y67833
X92500Y57833
X92500Y47833
X92500Y22833
X100000Y17833
X92500Y12833
X112500Y12833
X112500Y22833
X122500Y47833
X122500Y57833
X122500Y67833
X122500Y77833
X122500Y87833
X122500Y97833
X122500Y107833
X122500Y117833
X122500Y127833
X122500Y137833
X122500Y147833
X122500Y157833
X122500Y167833
X122500Y177833
X137500Y177833
X137500Y167833
X97500Y192833
X92500Y177833
X92500Y167833
X92500Y157833
X92500Y147833
X92500Y137833
X92500Y127833
X92500Y117833
X137500Y97833
X157500Y97833
X57500Y192833
T04
X126752Y12833
X158248Y12833
T05
X17500Y42833
X37500Y42833
X12500Y67833
X12500Y77833
X12500Y87833
X12500Y97833
X12500Y107833
X12500Y117833
X12500Y127833
X12500Y137833
X12500Y147833
X12500Y157833
X12500Y167833
X12500Y177833
X12500Y187833
X27500Y187833
X47500Y187833
X72500Y102833
X72500Y92833
X72500Y82833
X200000Y77833
X200000Y67833
X200000Y87833
X200000Y97833
X200000Y107833
X200000Y117833
X200000Y127833
X200000Y137833
T06
X188500Y38203
X188500Y9463
M30
