G75*
%MOIN*%
%OFA0B0*%
%FSLAX25Y25*%
%IPPOS*%
%LPD*%
%AMOC8*
5,1,8,0,0,1.08239X$1,22.5*
%
%ADD10C,0.00000*%
%ADD11C,0.00600*%
%ADD12R,0.01100X0.00100*%
%ADD13R,0.01200X0.00100*%
%ADD14R,0.00900X0.00100*%
%ADD15R,0.01000X0.00100*%
%ADD16R,0.01400X0.00100*%
%ADD17R,0.00300X0.00100*%
%ADD18R,0.01300X0.00100*%
%ADD19R,0.00500X0.00100*%
%ADD20R,0.00700X0.00100*%
%ADD21R,0.00100X0.00100*%
%ADD22R,0.00600X0.00100*%
%ADD23R,0.00400X0.00100*%
%ADD24R,0.01700X0.00100*%
%ADD25R,0.02000X0.00100*%
%ADD26R,0.00200X0.00100*%
%ADD27R,0.01800X0.00100*%
%ADD28R,0.04000X0.00100*%
%ADD29R,0.01500X0.00100*%
%ADD30R,0.06200X0.00100*%
%ADD31R,0.10300X0.00100*%
%ADD32R,0.02900X0.00100*%
%ADD33R,0.02600X0.00100*%
%ADD34R,0.10900X0.00100*%
%ADD35R,0.02700X0.00100*%
%ADD36R,0.15000X0.00100*%
%ADD37R,0.16900X0.00100*%
%ADD38R,0.17300X0.00100*%
%ADD39R,0.18000X0.00100*%
%ADD40R,0.00800X0.00100*%
%ADD41R,0.02500X0.00100*%
%ADD42R,0.02200X0.00100*%
%ADD43R,0.13900X0.00100*%
%ADD44R,0.01600X0.00100*%
%ADD45R,0.14400X0.00100*%
%ADD46R,0.13700X0.00100*%
%ADD47R,0.01900X0.00100*%
%ADD48R,0.13500X0.00100*%
%ADD49R,0.02100X0.00100*%
%ADD50R,0.14000X0.00100*%
%ADD51R,0.14800X0.00100*%
%ADD52R,0.15600X0.00100*%
%ADD53R,0.08500X0.00100*%
%ADD54R,0.07700X0.00100*%
%ADD55R,0.08900X0.00100*%
%ADD56R,0.07300X0.00100*%
%ADD57R,0.08700X0.00100*%
%ADD58R,0.05900X0.00100*%
%ADD59R,0.09200X0.00100*%
%ADD60R,0.07400X0.00100*%
%ADD61R,0.06100X0.00100*%
%ADD62R,0.06000X0.00100*%
%ADD63R,0.06300X0.00100*%
%ADD64R,0.02400X0.00100*%
%ADD65R,0.03000X0.00100*%
%ADD66R,0.03100X0.00100*%
%ADD67R,0.03700X0.00100*%
%ADD68R,0.03500X0.00100*%
%ADD69R,0.05000X0.00100*%
%ADD70R,0.03900X0.00100*%
%ADD71R,0.03800X0.00100*%
%ADD72R,0.05800X0.00100*%
%ADD73R,0.03600X0.00100*%
%ADD74R,0.05100X0.00100*%
%ADD75R,0.04300X0.00100*%
%ADD76R,0.04800X0.00100*%
%ADD77R,0.04200X0.00100*%
%ADD78R,0.04500X0.00100*%
%ADD79R,0.04100X0.00100*%
%ADD80R,0.08100X0.00100*%
%ADD81R,0.04400X0.00100*%
%ADD82R,0.07800X0.00100*%
%ADD83R,0.03400X0.00100*%
%ADD84R,0.07200X0.00100*%
%ADD85R,0.03200X0.00100*%
%ADD86R,0.07900X0.00100*%
%ADD87R,0.07600X0.00100*%
%ADD88R,0.07100X0.00100*%
%ADD89R,0.02800X0.00100*%
%ADD90R,0.05500X0.00100*%
%ADD91R,0.06800X0.00100*%
%ADD92R,0.05200X0.00100*%
%ADD93R,0.04900X0.00100*%
%ADD94R,0.03300X0.00100*%
%ADD95R,0.07500X0.00100*%
%ADD96R,0.06900X0.00100*%
%ADD97R,0.06700X0.00100*%
%ADD98R,0.04700X0.00100*%
%ADD99R,0.07000X0.00100*%
%ADD100R,0.06600X0.00100*%
%ADD101R,0.05400X0.00100*%
%ADD102R,0.05700X0.00100*%
%ADD103R,0.04600X0.00100*%
%ADD104R,0.05600X0.00100*%
%ADD105R,0.05300X0.00100*%
%ADD106R,0.02300X0.00100*%
%ADD107R,0.08400X0.00100*%
%ADD108R,0.09300X0.00100*%
%ADD109R,0.10200X0.00100*%
%ADD110R,0.09800X0.00100*%
%ADD111R,0.08800X0.00100*%
%ADD112R,0.09000X0.00100*%
%ADD113R,0.09500X0.00100*%
%ADD114R,0.16200X0.00100*%
%ADD115R,0.20100X0.00100*%
%ADD116R,0.25300X0.00100*%
%ADD117R,0.24100X0.00100*%
%ADD118R,0.24400X0.00100*%
%ADD119R,0.24800X0.00100*%
%ADD120R,0.25000X0.00100*%
%ADD121R,0.25500X0.00100*%
%ADD122R,0.23400X0.00100*%
%ADD123R,0.23800X0.00100*%
%ADD124R,0.29800X0.00100*%
%ADD125R,0.30000X0.00100*%
%ADD126R,0.29700X0.00100*%
%ADD127R,0.36600X0.00100*%
%ADD128R,0.36500X0.00100*%
%ADD129R,0.37200X0.00100*%
%ADD130R,0.37400X0.00100*%
%ADD131R,0.37900X0.00100*%
%ADD132R,0.34900X0.00100*%
%ADD133R,0.18900X0.00100*%
%ADD134R,0.15500X0.00100*%
%ADD135R,0.15300X0.00100*%
%ADD136R,0.15700X0.00100*%
%ADD137R,0.12600X0.00100*%
%ADD138R,0.08200X0.00100*%
%ADD139R,0.10600X0.00100*%
%ADD140R,0.11600X0.00100*%
%ADD141R,0.12800X0.00100*%
%ADD142C,0.00500*%
D10*
X0007500Y0002833D02*
X0007500Y0199684D01*
X0204350Y0199684D01*
X0204350Y0002833D01*
X0007500Y0002833D01*
D11*
X0019294Y0063633D02*
X0021071Y0063633D01*
X0021071Y0070033D01*
X0019294Y0070033D01*
X0019294Y0070034D02*
X0019212Y0070032D01*
X0019130Y0070026D01*
X0019048Y0070017D01*
X0018967Y0070004D01*
X0018887Y0069987D01*
X0018807Y0069966D01*
X0018729Y0069942D01*
X0018652Y0069914D01*
X0018576Y0069883D01*
X0018501Y0069848D01*
X0018429Y0069809D01*
X0018358Y0069768D01*
X0018289Y0069723D01*
X0018223Y0069675D01*
X0018158Y0069624D01*
X0018096Y0069570D01*
X0018037Y0069513D01*
X0017980Y0069454D01*
X0017926Y0069392D01*
X0017875Y0069327D01*
X0017827Y0069261D01*
X0017782Y0069192D01*
X0017741Y0069121D01*
X0017702Y0069049D01*
X0017667Y0068974D01*
X0017636Y0068898D01*
X0017608Y0068821D01*
X0017584Y0068743D01*
X0017563Y0068663D01*
X0017546Y0068583D01*
X0017533Y0068502D01*
X0017524Y0068420D01*
X0017518Y0068338D01*
X0017516Y0068256D01*
X0017516Y0065411D01*
X0017518Y0065329D01*
X0017524Y0065247D01*
X0017533Y0065165D01*
X0017546Y0065084D01*
X0017563Y0065004D01*
X0017584Y0064924D01*
X0017608Y0064846D01*
X0017636Y0064769D01*
X0017667Y0064693D01*
X0017702Y0064618D01*
X0017741Y0064546D01*
X0017782Y0064475D01*
X0017827Y0064406D01*
X0017875Y0064340D01*
X0017926Y0064275D01*
X0017980Y0064213D01*
X0018037Y0064154D01*
X0018096Y0064097D01*
X0018158Y0064043D01*
X0018223Y0063992D01*
X0018289Y0063944D01*
X0018358Y0063899D01*
X0018429Y0063858D01*
X0018501Y0063819D01*
X0018576Y0063784D01*
X0018652Y0063753D01*
X0018729Y0063725D01*
X0018807Y0063701D01*
X0018887Y0063680D01*
X0018967Y0063663D01*
X0019048Y0063650D01*
X0019130Y0063641D01*
X0019212Y0063635D01*
X0019294Y0063633D01*
X0024080Y0063633D02*
X0024080Y0070033D01*
X0027636Y0070033D02*
X0024080Y0063633D01*
X0027636Y0063633D02*
X0027636Y0070033D01*
X0030644Y0070033D02*
X0032778Y0070033D01*
X0032852Y0070031D01*
X0032927Y0070025D01*
X0033000Y0070015D01*
X0033074Y0070002D01*
X0033146Y0069985D01*
X0033217Y0069963D01*
X0033288Y0069939D01*
X0033356Y0069910D01*
X0033424Y0069878D01*
X0033489Y0069842D01*
X0033552Y0069804D01*
X0033614Y0069761D01*
X0033673Y0069716D01*
X0033730Y0069668D01*
X0033784Y0069617D01*
X0033835Y0069563D01*
X0033883Y0069506D01*
X0033928Y0069447D01*
X0033971Y0069385D01*
X0034009Y0069322D01*
X0034045Y0069257D01*
X0034077Y0069189D01*
X0034106Y0069121D01*
X0034130Y0069050D01*
X0034152Y0068979D01*
X0034169Y0068907D01*
X0034182Y0068833D01*
X0034192Y0068760D01*
X0034198Y0068685D01*
X0034200Y0068611D01*
X0034200Y0065056D01*
X0034198Y0064982D01*
X0034192Y0064907D01*
X0034182Y0064834D01*
X0034169Y0064760D01*
X0034152Y0064688D01*
X0034130Y0064617D01*
X0034106Y0064546D01*
X0034077Y0064478D01*
X0034045Y0064410D01*
X0034009Y0064345D01*
X0033971Y0064282D01*
X0033928Y0064220D01*
X0033883Y0064161D01*
X0033835Y0064104D01*
X0033784Y0064050D01*
X0033730Y0063999D01*
X0033673Y0063951D01*
X0033614Y0063906D01*
X0033552Y0063863D01*
X0033489Y0063825D01*
X0033424Y0063789D01*
X0033356Y0063757D01*
X0033288Y0063728D01*
X0033217Y0063704D01*
X0033146Y0063682D01*
X0033074Y0063665D01*
X0033000Y0063652D01*
X0032927Y0063642D01*
X0032852Y0063636D01*
X0032778Y0063634D01*
X0032778Y0063633D02*
X0030644Y0063633D01*
X0030644Y0067189D01*
X0031711Y0067189D01*
X0032422Y0073633D02*
X0034200Y0073633D01*
X0032422Y0073633D02*
X0032339Y0073635D01*
X0032256Y0073641D01*
X0032173Y0073651D01*
X0032090Y0073664D01*
X0032009Y0073682D01*
X0031928Y0073703D01*
X0031849Y0073728D01*
X0031771Y0073757D01*
X0031694Y0073789D01*
X0031619Y0073825D01*
X0031545Y0073864D01*
X0031474Y0073907D01*
X0031404Y0073953D01*
X0031337Y0074003D01*
X0031272Y0074055D01*
X0031210Y0074110D01*
X0031150Y0074169D01*
X0031093Y0074230D01*
X0031039Y0074293D01*
X0030988Y0074359D01*
X0030941Y0074428D01*
X0030896Y0074498D01*
X0030855Y0074571D01*
X0030818Y0074645D01*
X0030783Y0074721D01*
X0030753Y0074799D01*
X0030726Y0074877D01*
X0030703Y0074958D01*
X0030683Y0075039D01*
X0030668Y0075121D01*
X0030656Y0075203D01*
X0030648Y0075286D01*
X0030644Y0075369D01*
X0030644Y0075453D01*
X0030648Y0075536D01*
X0030656Y0075619D01*
X0030668Y0075701D01*
X0030683Y0075783D01*
X0030703Y0075864D01*
X0030726Y0075945D01*
X0030753Y0076023D01*
X0030783Y0076101D01*
X0030818Y0076177D01*
X0030855Y0076251D01*
X0030896Y0076324D01*
X0030941Y0076394D01*
X0030988Y0076463D01*
X0031039Y0076529D01*
X0031093Y0076592D01*
X0031150Y0076653D01*
X0031210Y0076712D01*
X0031272Y0076767D01*
X0031337Y0076819D01*
X0031404Y0076869D01*
X0031474Y0076915D01*
X0031545Y0076958D01*
X0031619Y0076997D01*
X0031694Y0077033D01*
X0031771Y0077065D01*
X0031849Y0077094D01*
X0031928Y0077119D01*
X0032009Y0077140D01*
X0032090Y0077158D01*
X0032173Y0077171D01*
X0032256Y0077181D01*
X0032339Y0077187D01*
X0032422Y0077189D01*
X0032067Y0077189D02*
X0033489Y0077189D01*
X0032067Y0077189D02*
X0031993Y0077191D01*
X0031918Y0077197D01*
X0031845Y0077207D01*
X0031771Y0077220D01*
X0031699Y0077237D01*
X0031628Y0077259D01*
X0031557Y0077283D01*
X0031489Y0077312D01*
X0031421Y0077344D01*
X0031356Y0077380D01*
X0031293Y0077418D01*
X0031231Y0077461D01*
X0031172Y0077506D01*
X0031115Y0077554D01*
X0031061Y0077605D01*
X0031010Y0077659D01*
X0030962Y0077716D01*
X0030917Y0077775D01*
X0030874Y0077837D01*
X0030836Y0077900D01*
X0030800Y0077965D01*
X0030768Y0078033D01*
X0030739Y0078101D01*
X0030715Y0078172D01*
X0030693Y0078243D01*
X0030676Y0078315D01*
X0030663Y0078389D01*
X0030653Y0078462D01*
X0030647Y0078537D01*
X0030645Y0078611D01*
X0030647Y0078685D01*
X0030653Y0078760D01*
X0030663Y0078833D01*
X0030676Y0078907D01*
X0030693Y0078979D01*
X0030715Y0079050D01*
X0030739Y0079121D01*
X0030768Y0079189D01*
X0030800Y0079257D01*
X0030836Y0079322D01*
X0030874Y0079385D01*
X0030917Y0079447D01*
X0030962Y0079506D01*
X0031010Y0079563D01*
X0031061Y0079617D01*
X0031115Y0079668D01*
X0031172Y0079716D01*
X0031231Y0079761D01*
X0031293Y0079804D01*
X0031356Y0079842D01*
X0031421Y0079878D01*
X0031489Y0079910D01*
X0031557Y0079939D01*
X0031628Y0079963D01*
X0031699Y0079985D01*
X0031771Y0080002D01*
X0031845Y0080015D01*
X0031918Y0080025D01*
X0031993Y0080031D01*
X0032067Y0080033D01*
X0034200Y0080033D01*
X0029200Y0083633D02*
X0027067Y0090033D01*
X0024933Y0083633D01*
X0025467Y0085233D02*
X0028667Y0085233D01*
X0022690Y0085056D02*
X0019135Y0085056D01*
X0020202Y0086478D02*
X0020202Y0083633D01*
X0022690Y0085056D02*
X0021268Y0090033D01*
X0020845Y0093633D02*
X0020845Y0096478D01*
X0019779Y0095056D02*
X0023334Y0095056D01*
X0021912Y0100033D01*
X0021556Y0103633D02*
X0023334Y0103633D01*
X0021556Y0103633D02*
X0021473Y0103635D01*
X0021390Y0103641D01*
X0021307Y0103651D01*
X0021224Y0103664D01*
X0021143Y0103682D01*
X0021062Y0103703D01*
X0020983Y0103728D01*
X0020905Y0103757D01*
X0020828Y0103789D01*
X0020753Y0103825D01*
X0020679Y0103864D01*
X0020608Y0103907D01*
X0020538Y0103953D01*
X0020471Y0104003D01*
X0020406Y0104055D01*
X0020344Y0104110D01*
X0020284Y0104169D01*
X0020227Y0104230D01*
X0020173Y0104293D01*
X0020122Y0104359D01*
X0020075Y0104428D01*
X0020030Y0104498D01*
X0019989Y0104571D01*
X0019952Y0104645D01*
X0019917Y0104721D01*
X0019887Y0104799D01*
X0019860Y0104877D01*
X0019837Y0104958D01*
X0019817Y0105039D01*
X0019802Y0105121D01*
X0019790Y0105203D01*
X0019782Y0105286D01*
X0019778Y0105369D01*
X0019778Y0105453D01*
X0019782Y0105536D01*
X0019790Y0105619D01*
X0019802Y0105701D01*
X0019817Y0105783D01*
X0019837Y0105864D01*
X0019860Y0105945D01*
X0019887Y0106023D01*
X0019917Y0106101D01*
X0019952Y0106177D01*
X0019989Y0106251D01*
X0020030Y0106324D01*
X0020075Y0106394D01*
X0020122Y0106463D01*
X0020173Y0106529D01*
X0020227Y0106592D01*
X0020284Y0106653D01*
X0020344Y0106712D01*
X0020406Y0106767D01*
X0020471Y0106819D01*
X0020538Y0106869D01*
X0020608Y0106915D01*
X0020679Y0106958D01*
X0020753Y0106997D01*
X0020828Y0107033D01*
X0020905Y0107065D01*
X0020983Y0107094D01*
X0021062Y0107119D01*
X0021143Y0107140D01*
X0021224Y0107158D01*
X0021307Y0107171D01*
X0021390Y0107181D01*
X0021473Y0107187D01*
X0021556Y0107189D01*
X0021201Y0107189D02*
X0022623Y0107189D01*
X0021201Y0107189D02*
X0021127Y0107191D01*
X0021052Y0107197D01*
X0020979Y0107207D01*
X0020905Y0107220D01*
X0020833Y0107237D01*
X0020762Y0107259D01*
X0020691Y0107283D01*
X0020623Y0107312D01*
X0020555Y0107344D01*
X0020490Y0107380D01*
X0020427Y0107418D01*
X0020365Y0107461D01*
X0020306Y0107506D01*
X0020249Y0107554D01*
X0020195Y0107605D01*
X0020144Y0107659D01*
X0020096Y0107716D01*
X0020051Y0107775D01*
X0020008Y0107837D01*
X0019970Y0107900D01*
X0019934Y0107965D01*
X0019902Y0108033D01*
X0019873Y0108101D01*
X0019849Y0108172D01*
X0019827Y0108243D01*
X0019810Y0108315D01*
X0019797Y0108389D01*
X0019787Y0108462D01*
X0019781Y0108537D01*
X0019779Y0108611D01*
X0019781Y0108685D01*
X0019787Y0108760D01*
X0019797Y0108833D01*
X0019810Y0108907D01*
X0019827Y0108979D01*
X0019849Y0109050D01*
X0019873Y0109121D01*
X0019902Y0109189D01*
X0019934Y0109257D01*
X0019970Y0109322D01*
X0020008Y0109385D01*
X0020051Y0109447D01*
X0020096Y0109506D01*
X0020144Y0109563D01*
X0020195Y0109617D01*
X0020249Y0109668D01*
X0020306Y0109716D01*
X0020365Y0109761D01*
X0020427Y0109804D01*
X0020490Y0109842D01*
X0020555Y0109878D01*
X0020623Y0109910D01*
X0020691Y0109939D01*
X0020762Y0109963D01*
X0020833Y0109985D01*
X0020905Y0110002D01*
X0020979Y0110015D01*
X0021052Y0110025D01*
X0021127Y0110031D01*
X0021201Y0110033D01*
X0023334Y0110033D01*
X0023334Y0113633D02*
X0019779Y0113633D01*
X0023334Y0113633D02*
X0020312Y0117189D01*
X0021379Y0120034D02*
X0021468Y0120032D01*
X0021557Y0120026D01*
X0021646Y0120017D01*
X0021734Y0120003D01*
X0021821Y0119986D01*
X0021908Y0119965D01*
X0021994Y0119940D01*
X0022078Y0119912D01*
X0022161Y0119879D01*
X0022243Y0119844D01*
X0022323Y0119804D01*
X0022401Y0119762D01*
X0022478Y0119716D01*
X0022552Y0119667D01*
X0022624Y0119614D01*
X0022694Y0119559D01*
X0022761Y0119500D01*
X0022826Y0119439D01*
X0022888Y0119375D01*
X0022947Y0119308D01*
X0023003Y0119239D01*
X0023056Y0119167D01*
X0023106Y0119093D01*
X0023153Y0119017D01*
X0023196Y0118940D01*
X0023236Y0118860D01*
X0023273Y0118778D01*
X0023306Y0118696D01*
X0023335Y0118611D01*
X0020311Y0117188D02*
X0020254Y0117246D01*
X0020198Y0117307D01*
X0020146Y0117370D01*
X0020097Y0117435D01*
X0020051Y0117503D01*
X0020009Y0117573D01*
X0019969Y0117645D01*
X0019934Y0117718D01*
X0019901Y0117794D01*
X0019873Y0117870D01*
X0019848Y0117948D01*
X0019827Y0118027D01*
X0019809Y0118107D01*
X0019796Y0118188D01*
X0019786Y0118269D01*
X0019780Y0118351D01*
X0019778Y0118433D01*
X0019779Y0118433D02*
X0019781Y0118512D01*
X0019787Y0118590D01*
X0019796Y0118668D01*
X0019810Y0118745D01*
X0019827Y0118822D01*
X0019848Y0118897D01*
X0019873Y0118972D01*
X0019901Y0119045D01*
X0019933Y0119117D01*
X0019968Y0119187D01*
X0020007Y0119256D01*
X0020049Y0119322D01*
X0020094Y0119386D01*
X0020142Y0119448D01*
X0020193Y0119507D01*
X0020248Y0119564D01*
X0020305Y0119619D01*
X0020364Y0119670D01*
X0020426Y0119718D01*
X0020490Y0119763D01*
X0020556Y0119805D01*
X0020625Y0119844D01*
X0020695Y0119879D01*
X0020767Y0119911D01*
X0020840Y0119939D01*
X0020915Y0119964D01*
X0020990Y0119985D01*
X0021067Y0120002D01*
X0021144Y0120016D01*
X0021222Y0120025D01*
X0021300Y0120031D01*
X0021379Y0120033D01*
X0020913Y0123633D02*
X0020913Y0130033D01*
X0022690Y0128611D01*
X0025467Y0125233D02*
X0028667Y0125233D01*
X0029200Y0123633D02*
X0027067Y0130033D01*
X0024933Y0123633D01*
X0022690Y0123633D02*
X0019135Y0123633D01*
X0027422Y0120033D02*
X0029200Y0120033D01*
X0029200Y0113633D01*
X0027422Y0113633D01*
X0027339Y0113635D01*
X0027256Y0113641D01*
X0027173Y0113651D01*
X0027090Y0113664D01*
X0027009Y0113682D01*
X0026928Y0113703D01*
X0026849Y0113728D01*
X0026771Y0113757D01*
X0026694Y0113789D01*
X0026619Y0113825D01*
X0026545Y0113864D01*
X0026474Y0113907D01*
X0026404Y0113953D01*
X0026337Y0114003D01*
X0026272Y0114055D01*
X0026210Y0114110D01*
X0026150Y0114169D01*
X0026093Y0114230D01*
X0026039Y0114293D01*
X0025988Y0114359D01*
X0025941Y0114428D01*
X0025896Y0114498D01*
X0025855Y0114571D01*
X0025818Y0114645D01*
X0025783Y0114721D01*
X0025753Y0114799D01*
X0025726Y0114877D01*
X0025703Y0114958D01*
X0025683Y0115039D01*
X0025668Y0115121D01*
X0025656Y0115203D01*
X0025648Y0115286D01*
X0025644Y0115369D01*
X0025644Y0115453D01*
X0025648Y0115536D01*
X0025656Y0115619D01*
X0025668Y0115701D01*
X0025683Y0115783D01*
X0025703Y0115864D01*
X0025726Y0115945D01*
X0025753Y0116023D01*
X0025783Y0116101D01*
X0025818Y0116177D01*
X0025855Y0116251D01*
X0025896Y0116324D01*
X0025941Y0116394D01*
X0025988Y0116463D01*
X0026039Y0116529D01*
X0026093Y0116592D01*
X0026150Y0116653D01*
X0026210Y0116712D01*
X0026272Y0116767D01*
X0026337Y0116819D01*
X0026404Y0116869D01*
X0026474Y0116915D01*
X0026545Y0116958D01*
X0026619Y0116997D01*
X0026694Y0117033D01*
X0026771Y0117065D01*
X0026849Y0117094D01*
X0026928Y0117119D01*
X0027009Y0117140D01*
X0027090Y0117158D01*
X0027173Y0117171D01*
X0027256Y0117181D01*
X0027339Y0117187D01*
X0027422Y0117189D01*
X0029200Y0117189D01*
X0027422Y0117189D02*
X0027348Y0117191D01*
X0027273Y0117197D01*
X0027200Y0117207D01*
X0027126Y0117220D01*
X0027054Y0117237D01*
X0026983Y0117259D01*
X0026912Y0117283D01*
X0026844Y0117312D01*
X0026776Y0117344D01*
X0026711Y0117380D01*
X0026648Y0117418D01*
X0026586Y0117461D01*
X0026527Y0117506D01*
X0026470Y0117554D01*
X0026416Y0117605D01*
X0026365Y0117659D01*
X0026317Y0117716D01*
X0026272Y0117775D01*
X0026229Y0117837D01*
X0026191Y0117900D01*
X0026155Y0117965D01*
X0026123Y0118033D01*
X0026094Y0118101D01*
X0026070Y0118172D01*
X0026048Y0118243D01*
X0026031Y0118315D01*
X0026018Y0118389D01*
X0026008Y0118462D01*
X0026002Y0118537D01*
X0026000Y0118611D01*
X0026002Y0118685D01*
X0026008Y0118760D01*
X0026018Y0118833D01*
X0026031Y0118907D01*
X0026048Y0118979D01*
X0026070Y0119050D01*
X0026094Y0119121D01*
X0026123Y0119189D01*
X0026155Y0119257D01*
X0026191Y0119322D01*
X0026229Y0119385D01*
X0026272Y0119447D01*
X0026317Y0119506D01*
X0026365Y0119563D01*
X0026416Y0119617D01*
X0026470Y0119668D01*
X0026527Y0119716D01*
X0026586Y0119761D01*
X0026648Y0119804D01*
X0026711Y0119842D01*
X0026776Y0119878D01*
X0026844Y0119910D01*
X0026912Y0119939D01*
X0026983Y0119963D01*
X0027054Y0119985D01*
X0027126Y0120002D01*
X0027200Y0120015D01*
X0027273Y0120025D01*
X0027348Y0120031D01*
X0027422Y0120033D01*
X0027422Y0110033D02*
X0029200Y0110033D01*
X0029200Y0103633D01*
X0027422Y0103633D01*
X0027339Y0103635D01*
X0027256Y0103641D01*
X0027173Y0103651D01*
X0027090Y0103664D01*
X0027009Y0103682D01*
X0026928Y0103703D01*
X0026849Y0103728D01*
X0026771Y0103757D01*
X0026694Y0103789D01*
X0026619Y0103825D01*
X0026545Y0103864D01*
X0026474Y0103907D01*
X0026404Y0103953D01*
X0026337Y0104003D01*
X0026272Y0104055D01*
X0026210Y0104110D01*
X0026150Y0104169D01*
X0026093Y0104230D01*
X0026039Y0104293D01*
X0025988Y0104359D01*
X0025941Y0104428D01*
X0025896Y0104498D01*
X0025855Y0104571D01*
X0025818Y0104645D01*
X0025783Y0104721D01*
X0025753Y0104799D01*
X0025726Y0104877D01*
X0025703Y0104958D01*
X0025683Y0105039D01*
X0025668Y0105121D01*
X0025656Y0105203D01*
X0025648Y0105286D01*
X0025644Y0105369D01*
X0025644Y0105453D01*
X0025648Y0105536D01*
X0025656Y0105619D01*
X0025668Y0105701D01*
X0025683Y0105783D01*
X0025703Y0105864D01*
X0025726Y0105945D01*
X0025753Y0106023D01*
X0025783Y0106101D01*
X0025818Y0106177D01*
X0025855Y0106251D01*
X0025896Y0106324D01*
X0025941Y0106394D01*
X0025988Y0106463D01*
X0026039Y0106529D01*
X0026093Y0106592D01*
X0026150Y0106653D01*
X0026210Y0106712D01*
X0026272Y0106767D01*
X0026337Y0106819D01*
X0026404Y0106869D01*
X0026474Y0106915D01*
X0026545Y0106958D01*
X0026619Y0106997D01*
X0026694Y0107033D01*
X0026771Y0107065D01*
X0026849Y0107094D01*
X0026928Y0107119D01*
X0027009Y0107140D01*
X0027090Y0107158D01*
X0027173Y0107171D01*
X0027256Y0107181D01*
X0027339Y0107187D01*
X0027422Y0107189D01*
X0029200Y0107189D01*
X0027422Y0107189D02*
X0027348Y0107191D01*
X0027273Y0107197D01*
X0027200Y0107207D01*
X0027126Y0107220D01*
X0027054Y0107237D01*
X0026983Y0107259D01*
X0026912Y0107283D01*
X0026844Y0107312D01*
X0026776Y0107344D01*
X0026711Y0107380D01*
X0026648Y0107418D01*
X0026586Y0107461D01*
X0026527Y0107506D01*
X0026470Y0107554D01*
X0026416Y0107605D01*
X0026365Y0107659D01*
X0026317Y0107716D01*
X0026272Y0107775D01*
X0026229Y0107837D01*
X0026191Y0107900D01*
X0026155Y0107965D01*
X0026123Y0108033D01*
X0026094Y0108101D01*
X0026070Y0108172D01*
X0026048Y0108243D01*
X0026031Y0108315D01*
X0026018Y0108389D01*
X0026008Y0108462D01*
X0026002Y0108537D01*
X0026000Y0108611D01*
X0026002Y0108685D01*
X0026008Y0108760D01*
X0026018Y0108833D01*
X0026031Y0108907D01*
X0026048Y0108979D01*
X0026070Y0109050D01*
X0026094Y0109121D01*
X0026123Y0109189D01*
X0026155Y0109257D01*
X0026191Y0109322D01*
X0026229Y0109385D01*
X0026272Y0109447D01*
X0026317Y0109506D01*
X0026365Y0109563D01*
X0026416Y0109617D01*
X0026470Y0109668D01*
X0026527Y0109716D01*
X0026586Y0109761D01*
X0026648Y0109804D01*
X0026711Y0109842D01*
X0026776Y0109878D01*
X0026844Y0109910D01*
X0026912Y0109939D01*
X0026983Y0109963D01*
X0027054Y0109985D01*
X0027126Y0110002D01*
X0027200Y0110015D01*
X0027273Y0110025D01*
X0027348Y0110031D01*
X0027422Y0110033D01*
X0027422Y0100033D02*
X0029200Y0100033D01*
X0029200Y0093633D01*
X0027422Y0093633D01*
X0027339Y0093635D01*
X0027256Y0093641D01*
X0027173Y0093651D01*
X0027090Y0093664D01*
X0027009Y0093682D01*
X0026928Y0093703D01*
X0026849Y0093728D01*
X0026771Y0093757D01*
X0026694Y0093789D01*
X0026619Y0093825D01*
X0026545Y0093864D01*
X0026474Y0093907D01*
X0026404Y0093953D01*
X0026337Y0094003D01*
X0026272Y0094055D01*
X0026210Y0094110D01*
X0026150Y0094169D01*
X0026093Y0094230D01*
X0026039Y0094293D01*
X0025988Y0094359D01*
X0025941Y0094428D01*
X0025896Y0094498D01*
X0025855Y0094571D01*
X0025818Y0094645D01*
X0025783Y0094721D01*
X0025753Y0094799D01*
X0025726Y0094877D01*
X0025703Y0094958D01*
X0025683Y0095039D01*
X0025668Y0095121D01*
X0025656Y0095203D01*
X0025648Y0095286D01*
X0025644Y0095369D01*
X0025644Y0095453D01*
X0025648Y0095536D01*
X0025656Y0095619D01*
X0025668Y0095701D01*
X0025683Y0095783D01*
X0025703Y0095864D01*
X0025726Y0095945D01*
X0025753Y0096023D01*
X0025783Y0096101D01*
X0025818Y0096177D01*
X0025855Y0096251D01*
X0025896Y0096324D01*
X0025941Y0096394D01*
X0025988Y0096463D01*
X0026039Y0096529D01*
X0026093Y0096592D01*
X0026150Y0096653D01*
X0026210Y0096712D01*
X0026272Y0096767D01*
X0026337Y0096819D01*
X0026404Y0096869D01*
X0026474Y0096915D01*
X0026545Y0096958D01*
X0026619Y0096997D01*
X0026694Y0097033D01*
X0026771Y0097065D01*
X0026849Y0097094D01*
X0026928Y0097119D01*
X0027009Y0097140D01*
X0027090Y0097158D01*
X0027173Y0097171D01*
X0027256Y0097181D01*
X0027339Y0097187D01*
X0027422Y0097189D01*
X0029200Y0097189D01*
X0027422Y0097189D02*
X0027348Y0097191D01*
X0027273Y0097197D01*
X0027200Y0097207D01*
X0027126Y0097220D01*
X0027054Y0097237D01*
X0026983Y0097259D01*
X0026912Y0097283D01*
X0026844Y0097312D01*
X0026776Y0097344D01*
X0026711Y0097380D01*
X0026648Y0097418D01*
X0026586Y0097461D01*
X0026527Y0097506D01*
X0026470Y0097554D01*
X0026416Y0097605D01*
X0026365Y0097659D01*
X0026317Y0097716D01*
X0026272Y0097775D01*
X0026229Y0097837D01*
X0026191Y0097900D01*
X0026155Y0097965D01*
X0026123Y0098033D01*
X0026094Y0098101D01*
X0026070Y0098172D01*
X0026048Y0098243D01*
X0026031Y0098315D01*
X0026018Y0098389D01*
X0026008Y0098462D01*
X0026002Y0098537D01*
X0026000Y0098611D01*
X0026002Y0098685D01*
X0026008Y0098760D01*
X0026018Y0098833D01*
X0026031Y0098907D01*
X0026048Y0098979D01*
X0026070Y0099050D01*
X0026094Y0099121D01*
X0026123Y0099189D01*
X0026155Y0099257D01*
X0026191Y0099322D01*
X0026229Y0099385D01*
X0026272Y0099447D01*
X0026317Y0099506D01*
X0026365Y0099563D01*
X0026416Y0099617D01*
X0026470Y0099668D01*
X0026527Y0099716D01*
X0026586Y0099761D01*
X0026648Y0099804D01*
X0026711Y0099842D01*
X0026776Y0099878D01*
X0026844Y0099910D01*
X0026912Y0099939D01*
X0026983Y0099963D01*
X0027054Y0099985D01*
X0027126Y0100002D01*
X0027200Y0100015D01*
X0027273Y0100025D01*
X0027348Y0100031D01*
X0027422Y0100033D01*
X0025584Y0080033D02*
X0023451Y0080033D01*
X0023377Y0080031D01*
X0023302Y0080025D01*
X0023229Y0080015D01*
X0023155Y0080002D01*
X0023083Y0079985D01*
X0023012Y0079963D01*
X0022941Y0079939D01*
X0022873Y0079910D01*
X0022805Y0079878D01*
X0022740Y0079842D01*
X0022677Y0079804D01*
X0022615Y0079761D01*
X0022556Y0079716D01*
X0022499Y0079668D01*
X0022445Y0079617D01*
X0022394Y0079563D01*
X0022346Y0079506D01*
X0022301Y0079447D01*
X0022258Y0079385D01*
X0022220Y0079322D01*
X0022184Y0079257D01*
X0022152Y0079189D01*
X0022123Y0079121D01*
X0022099Y0079050D01*
X0022077Y0078979D01*
X0022060Y0078907D01*
X0022047Y0078833D01*
X0022037Y0078760D01*
X0022031Y0078685D01*
X0022029Y0078611D01*
X0022031Y0078537D01*
X0022037Y0078462D01*
X0022047Y0078389D01*
X0022060Y0078315D01*
X0022077Y0078243D01*
X0022099Y0078172D01*
X0022123Y0078101D01*
X0022152Y0078033D01*
X0022184Y0077965D01*
X0022220Y0077900D01*
X0022258Y0077837D01*
X0022301Y0077775D01*
X0022346Y0077716D01*
X0022394Y0077659D01*
X0022445Y0077605D01*
X0022499Y0077554D01*
X0022556Y0077506D01*
X0022615Y0077461D01*
X0022677Y0077418D01*
X0022740Y0077380D01*
X0022805Y0077344D01*
X0022873Y0077312D01*
X0022941Y0077283D01*
X0023012Y0077259D01*
X0023083Y0077237D01*
X0023155Y0077220D01*
X0023229Y0077207D01*
X0023302Y0077197D01*
X0023377Y0077191D01*
X0023451Y0077189D01*
X0024873Y0077189D01*
X0023807Y0077189D02*
X0023724Y0077187D01*
X0023641Y0077181D01*
X0023558Y0077171D01*
X0023475Y0077158D01*
X0023394Y0077140D01*
X0023313Y0077119D01*
X0023234Y0077094D01*
X0023156Y0077065D01*
X0023079Y0077033D01*
X0023004Y0076997D01*
X0022930Y0076958D01*
X0022859Y0076915D01*
X0022789Y0076869D01*
X0022722Y0076819D01*
X0022657Y0076767D01*
X0022595Y0076712D01*
X0022535Y0076653D01*
X0022478Y0076592D01*
X0022424Y0076529D01*
X0022373Y0076463D01*
X0022326Y0076394D01*
X0022281Y0076324D01*
X0022240Y0076251D01*
X0022203Y0076177D01*
X0022168Y0076101D01*
X0022138Y0076023D01*
X0022111Y0075945D01*
X0022088Y0075864D01*
X0022068Y0075783D01*
X0022053Y0075701D01*
X0022041Y0075619D01*
X0022033Y0075536D01*
X0022029Y0075453D01*
X0022029Y0075369D01*
X0022033Y0075286D01*
X0022041Y0075203D01*
X0022053Y0075121D01*
X0022068Y0075039D01*
X0022088Y0074958D01*
X0022111Y0074877D01*
X0022138Y0074799D01*
X0022168Y0074721D01*
X0022203Y0074645D01*
X0022240Y0074571D01*
X0022281Y0074498D01*
X0022326Y0074428D01*
X0022373Y0074359D01*
X0022424Y0074293D01*
X0022478Y0074230D01*
X0022535Y0074169D01*
X0022595Y0074110D01*
X0022657Y0074055D01*
X0022722Y0074003D01*
X0022789Y0073953D01*
X0022859Y0073907D01*
X0022930Y0073864D01*
X0023004Y0073825D01*
X0023079Y0073789D01*
X0023156Y0073757D01*
X0023234Y0073728D01*
X0023313Y0073703D01*
X0023394Y0073682D01*
X0023475Y0073664D01*
X0023558Y0073651D01*
X0023641Y0073641D01*
X0023724Y0073635D01*
X0023807Y0073633D01*
X0025584Y0073633D01*
X0027937Y0073633D02*
X0028292Y0073633D01*
X0028292Y0073989D01*
X0027937Y0073989D01*
X0027937Y0073633D01*
X0017653Y0073633D02*
X0019786Y0080033D01*
X0015519Y0080033D02*
X0017653Y0073633D01*
X0024933Y0133633D02*
X0027067Y0140033D01*
X0029200Y0133633D01*
X0028667Y0135233D02*
X0025467Y0135233D01*
X0019668Y0134522D02*
X0019608Y0134649D01*
X0019552Y0134778D01*
X0019499Y0134908D01*
X0019449Y0135040D01*
X0019403Y0135173D01*
X0019361Y0135307D01*
X0019322Y0135442D01*
X0019286Y0135579D01*
X0019255Y0135716D01*
X0019227Y0135854D01*
X0019202Y0135992D01*
X0019182Y0136131D01*
X0019165Y0136271D01*
X0019152Y0136411D01*
X0019143Y0136552D01*
X0019137Y0136692D01*
X0019135Y0136833D01*
X0022690Y0136833D02*
X0022688Y0136974D01*
X0022682Y0137114D01*
X0022673Y0137255D01*
X0022660Y0137395D01*
X0022643Y0137535D01*
X0022623Y0137674D01*
X0022598Y0137812D01*
X0022570Y0137950D01*
X0022539Y0138087D01*
X0022503Y0138224D01*
X0022464Y0138359D01*
X0022422Y0138493D01*
X0022376Y0138626D01*
X0022326Y0138758D01*
X0022273Y0138888D01*
X0022217Y0139017D01*
X0022157Y0139144D01*
X0022158Y0139145D02*
X0022133Y0139211D01*
X0022105Y0139276D01*
X0022073Y0139340D01*
X0022038Y0139401D01*
X0021999Y0139461D01*
X0021958Y0139519D01*
X0021913Y0139574D01*
X0021865Y0139626D01*
X0021815Y0139676D01*
X0021762Y0139724D01*
X0021707Y0139768D01*
X0021649Y0139809D01*
X0021589Y0139847D01*
X0021527Y0139882D01*
X0021463Y0139913D01*
X0021398Y0139941D01*
X0021331Y0139966D01*
X0021264Y0139986D01*
X0021195Y0140003D01*
X0021125Y0140017D01*
X0021055Y0140026D01*
X0020984Y0140032D01*
X0020913Y0140034D01*
X0020842Y0140032D01*
X0020771Y0140026D01*
X0020701Y0140017D01*
X0020631Y0140003D01*
X0020562Y0139986D01*
X0020495Y0139966D01*
X0020428Y0139941D01*
X0020363Y0139913D01*
X0020299Y0139882D01*
X0020237Y0139847D01*
X0020177Y0139809D01*
X0020120Y0139768D01*
X0020064Y0139724D01*
X0020011Y0139676D01*
X0019961Y0139626D01*
X0019913Y0139574D01*
X0019868Y0139519D01*
X0019827Y0139461D01*
X0019788Y0139401D01*
X0019753Y0139340D01*
X0019721Y0139276D01*
X0019693Y0139211D01*
X0019668Y0139145D01*
X0019490Y0138611D02*
X0022335Y0135056D01*
X0020913Y0133633D02*
X0020842Y0133635D01*
X0020771Y0133641D01*
X0020701Y0133650D01*
X0020631Y0133664D01*
X0020562Y0133681D01*
X0020495Y0133701D01*
X0020428Y0133726D01*
X0020363Y0133754D01*
X0020299Y0133785D01*
X0020237Y0133820D01*
X0020177Y0133858D01*
X0020120Y0133899D01*
X0020064Y0133943D01*
X0020011Y0133991D01*
X0019961Y0134041D01*
X0019913Y0134093D01*
X0019868Y0134148D01*
X0019827Y0134206D01*
X0019788Y0134266D01*
X0019753Y0134327D01*
X0019721Y0134391D01*
X0019693Y0134456D01*
X0019668Y0134522D01*
X0020913Y0133633D02*
X0020984Y0133635D01*
X0021055Y0133641D01*
X0021125Y0133650D01*
X0021195Y0133664D01*
X0021264Y0133681D01*
X0021331Y0133701D01*
X0021398Y0133726D01*
X0021463Y0133754D01*
X0021527Y0133785D01*
X0021589Y0133820D01*
X0021649Y0133858D01*
X0021707Y0133899D01*
X0021762Y0133943D01*
X0021815Y0133991D01*
X0021865Y0134041D01*
X0021913Y0134093D01*
X0021958Y0134148D01*
X0021999Y0134206D01*
X0022038Y0134266D01*
X0022073Y0134327D01*
X0022105Y0134391D01*
X0022133Y0134456D01*
X0022158Y0134522D01*
X0019135Y0136833D02*
X0019137Y0136974D01*
X0019143Y0137114D01*
X0019152Y0137255D01*
X0019165Y0137395D01*
X0019182Y0137535D01*
X0019202Y0137674D01*
X0019227Y0137812D01*
X0019255Y0137950D01*
X0019286Y0138087D01*
X0019322Y0138224D01*
X0019361Y0138359D01*
X0019403Y0138493D01*
X0019449Y0138626D01*
X0019499Y0138758D01*
X0019552Y0138888D01*
X0019608Y0139017D01*
X0019668Y0139144D01*
X0022690Y0136833D02*
X0022688Y0136692D01*
X0022682Y0136552D01*
X0022673Y0136411D01*
X0022660Y0136271D01*
X0022643Y0136131D01*
X0022623Y0135992D01*
X0022598Y0135854D01*
X0022570Y0135716D01*
X0022539Y0135579D01*
X0022503Y0135442D01*
X0022464Y0135307D01*
X0022422Y0135173D01*
X0022376Y0135040D01*
X0022326Y0134908D01*
X0022273Y0134778D01*
X0022217Y0134649D01*
X0022157Y0134522D01*
X0178016Y0067756D02*
X0178016Y0064911D01*
X0178018Y0064829D01*
X0178024Y0064747D01*
X0178033Y0064665D01*
X0178046Y0064584D01*
X0178063Y0064504D01*
X0178084Y0064424D01*
X0178108Y0064346D01*
X0178136Y0064269D01*
X0178167Y0064193D01*
X0178202Y0064118D01*
X0178241Y0064046D01*
X0178282Y0063975D01*
X0178327Y0063906D01*
X0178375Y0063840D01*
X0178426Y0063775D01*
X0178480Y0063713D01*
X0178537Y0063654D01*
X0178596Y0063597D01*
X0178658Y0063543D01*
X0178723Y0063492D01*
X0178789Y0063444D01*
X0178858Y0063399D01*
X0178929Y0063358D01*
X0179001Y0063319D01*
X0179076Y0063284D01*
X0179152Y0063253D01*
X0179229Y0063225D01*
X0179307Y0063201D01*
X0179387Y0063180D01*
X0179467Y0063163D01*
X0179548Y0063150D01*
X0179630Y0063141D01*
X0179712Y0063135D01*
X0179794Y0063133D01*
X0181571Y0063133D01*
X0181571Y0069533D01*
X0179794Y0069533D01*
X0179794Y0069534D02*
X0179712Y0069532D01*
X0179630Y0069526D01*
X0179548Y0069517D01*
X0179467Y0069504D01*
X0179387Y0069487D01*
X0179307Y0069466D01*
X0179229Y0069442D01*
X0179152Y0069414D01*
X0179076Y0069383D01*
X0179001Y0069348D01*
X0178929Y0069309D01*
X0178858Y0069268D01*
X0178789Y0069223D01*
X0178723Y0069175D01*
X0178658Y0069124D01*
X0178596Y0069070D01*
X0178537Y0069013D01*
X0178480Y0068954D01*
X0178426Y0068892D01*
X0178375Y0068827D01*
X0178327Y0068761D01*
X0178282Y0068692D01*
X0178241Y0068621D01*
X0178202Y0068549D01*
X0178167Y0068474D01*
X0178136Y0068398D01*
X0178108Y0068321D01*
X0178084Y0068243D01*
X0178063Y0068163D01*
X0178046Y0068083D01*
X0178033Y0068002D01*
X0178024Y0067920D01*
X0178018Y0067838D01*
X0178016Y0067756D01*
X0184580Y0069533D02*
X0184580Y0063133D01*
X0188136Y0069533D01*
X0188136Y0063133D01*
X0191144Y0063133D02*
X0191144Y0066689D01*
X0192211Y0066689D01*
X0194700Y0068111D02*
X0194698Y0068185D01*
X0194692Y0068260D01*
X0194682Y0068333D01*
X0194669Y0068407D01*
X0194652Y0068479D01*
X0194630Y0068550D01*
X0194606Y0068621D01*
X0194577Y0068689D01*
X0194545Y0068757D01*
X0194509Y0068822D01*
X0194471Y0068885D01*
X0194428Y0068947D01*
X0194383Y0069006D01*
X0194335Y0069063D01*
X0194284Y0069117D01*
X0194230Y0069168D01*
X0194173Y0069216D01*
X0194114Y0069261D01*
X0194052Y0069304D01*
X0193989Y0069342D01*
X0193924Y0069378D01*
X0193856Y0069410D01*
X0193788Y0069439D01*
X0193717Y0069463D01*
X0193646Y0069485D01*
X0193574Y0069502D01*
X0193500Y0069515D01*
X0193427Y0069525D01*
X0193352Y0069531D01*
X0193278Y0069533D01*
X0191144Y0069533D01*
X0194700Y0068111D02*
X0194700Y0064556D01*
X0194698Y0064482D01*
X0194692Y0064407D01*
X0194682Y0064334D01*
X0194669Y0064260D01*
X0194652Y0064188D01*
X0194630Y0064117D01*
X0194606Y0064046D01*
X0194577Y0063978D01*
X0194545Y0063910D01*
X0194509Y0063845D01*
X0194471Y0063782D01*
X0194428Y0063720D01*
X0194383Y0063661D01*
X0194335Y0063604D01*
X0194284Y0063550D01*
X0194230Y0063499D01*
X0194173Y0063451D01*
X0194114Y0063406D01*
X0194052Y0063363D01*
X0193989Y0063325D01*
X0193924Y0063289D01*
X0193856Y0063257D01*
X0193788Y0063228D01*
X0193717Y0063204D01*
X0193646Y0063182D01*
X0193574Y0063165D01*
X0193500Y0063152D01*
X0193427Y0063142D01*
X0193352Y0063136D01*
X0193278Y0063134D01*
X0193278Y0063133D02*
X0191144Y0063133D01*
X0192567Y0073133D02*
X0194700Y0073133D01*
X0192567Y0073134D02*
X0192493Y0073136D01*
X0192418Y0073142D01*
X0192345Y0073152D01*
X0192271Y0073165D01*
X0192199Y0073182D01*
X0192128Y0073204D01*
X0192057Y0073228D01*
X0191989Y0073257D01*
X0191921Y0073289D01*
X0191856Y0073325D01*
X0191793Y0073363D01*
X0191731Y0073406D01*
X0191672Y0073451D01*
X0191615Y0073499D01*
X0191561Y0073550D01*
X0191510Y0073604D01*
X0191462Y0073661D01*
X0191417Y0073720D01*
X0191374Y0073782D01*
X0191336Y0073845D01*
X0191300Y0073910D01*
X0191268Y0073978D01*
X0191239Y0074046D01*
X0191215Y0074117D01*
X0191193Y0074188D01*
X0191176Y0074260D01*
X0191163Y0074334D01*
X0191153Y0074407D01*
X0191147Y0074482D01*
X0191145Y0074556D01*
X0191144Y0074556D02*
X0191144Y0075267D01*
X0191145Y0075267D02*
X0191147Y0075341D01*
X0191153Y0075416D01*
X0191163Y0075489D01*
X0191176Y0075563D01*
X0191193Y0075635D01*
X0191215Y0075706D01*
X0191239Y0075777D01*
X0191268Y0075845D01*
X0191300Y0075913D01*
X0191336Y0075978D01*
X0191374Y0076041D01*
X0191417Y0076103D01*
X0191462Y0076162D01*
X0191510Y0076219D01*
X0191561Y0076273D01*
X0191615Y0076324D01*
X0191672Y0076372D01*
X0191731Y0076417D01*
X0191793Y0076460D01*
X0191856Y0076498D01*
X0191921Y0076534D01*
X0191989Y0076566D01*
X0192057Y0076595D01*
X0192128Y0076619D01*
X0192199Y0076641D01*
X0192271Y0076658D01*
X0192345Y0076671D01*
X0192418Y0076681D01*
X0192493Y0076687D01*
X0192567Y0076689D01*
X0194700Y0076689D01*
X0194700Y0079533D01*
X0191144Y0079533D01*
X0188902Y0079533D02*
X0186768Y0073133D01*
X0184635Y0079533D01*
X0187056Y0083133D02*
X0185279Y0089533D01*
X0188834Y0089533D01*
X0188834Y0088822D01*
X0192922Y0089533D02*
X0192848Y0089531D01*
X0192773Y0089525D01*
X0192700Y0089515D01*
X0192626Y0089502D01*
X0192554Y0089485D01*
X0192483Y0089463D01*
X0192412Y0089439D01*
X0192344Y0089410D01*
X0192276Y0089378D01*
X0192211Y0089342D01*
X0192148Y0089304D01*
X0192086Y0089261D01*
X0192027Y0089216D01*
X0191970Y0089168D01*
X0191916Y0089117D01*
X0191865Y0089063D01*
X0191817Y0089006D01*
X0191772Y0088947D01*
X0191729Y0088885D01*
X0191691Y0088822D01*
X0191655Y0088757D01*
X0191623Y0088689D01*
X0191594Y0088621D01*
X0191570Y0088550D01*
X0191548Y0088479D01*
X0191531Y0088407D01*
X0191518Y0088333D01*
X0191508Y0088260D01*
X0191502Y0088185D01*
X0191500Y0088111D01*
X0191502Y0088037D01*
X0191508Y0087962D01*
X0191518Y0087889D01*
X0191531Y0087815D01*
X0191548Y0087743D01*
X0191570Y0087672D01*
X0191594Y0087601D01*
X0191623Y0087533D01*
X0191655Y0087465D01*
X0191691Y0087400D01*
X0191729Y0087337D01*
X0191772Y0087275D01*
X0191817Y0087216D01*
X0191865Y0087159D01*
X0191916Y0087105D01*
X0191970Y0087054D01*
X0192027Y0087006D01*
X0192086Y0086961D01*
X0192148Y0086918D01*
X0192211Y0086880D01*
X0192276Y0086844D01*
X0192344Y0086812D01*
X0192412Y0086783D01*
X0192483Y0086759D01*
X0192554Y0086737D01*
X0192626Y0086720D01*
X0192700Y0086707D01*
X0192773Y0086697D01*
X0192848Y0086691D01*
X0192922Y0086689D01*
X0194700Y0086689D01*
X0192922Y0086689D02*
X0192839Y0086687D01*
X0192756Y0086681D01*
X0192673Y0086671D01*
X0192590Y0086658D01*
X0192509Y0086640D01*
X0192428Y0086619D01*
X0192349Y0086594D01*
X0192271Y0086565D01*
X0192194Y0086533D01*
X0192119Y0086497D01*
X0192045Y0086458D01*
X0191974Y0086415D01*
X0191904Y0086369D01*
X0191837Y0086319D01*
X0191772Y0086267D01*
X0191710Y0086212D01*
X0191650Y0086153D01*
X0191593Y0086092D01*
X0191539Y0086029D01*
X0191488Y0085963D01*
X0191441Y0085894D01*
X0191396Y0085824D01*
X0191355Y0085751D01*
X0191318Y0085677D01*
X0191283Y0085601D01*
X0191253Y0085523D01*
X0191226Y0085445D01*
X0191203Y0085364D01*
X0191183Y0085283D01*
X0191168Y0085201D01*
X0191156Y0085119D01*
X0191148Y0085036D01*
X0191144Y0084953D01*
X0191144Y0084869D01*
X0191148Y0084786D01*
X0191156Y0084703D01*
X0191168Y0084621D01*
X0191183Y0084539D01*
X0191203Y0084458D01*
X0191226Y0084377D01*
X0191253Y0084299D01*
X0191283Y0084221D01*
X0191318Y0084145D01*
X0191355Y0084071D01*
X0191396Y0083998D01*
X0191441Y0083928D01*
X0191488Y0083859D01*
X0191539Y0083793D01*
X0191593Y0083730D01*
X0191650Y0083669D01*
X0191710Y0083610D01*
X0191772Y0083555D01*
X0191837Y0083503D01*
X0191904Y0083453D01*
X0191974Y0083407D01*
X0192045Y0083364D01*
X0192119Y0083325D01*
X0192194Y0083289D01*
X0192271Y0083257D01*
X0192349Y0083228D01*
X0192428Y0083203D01*
X0192509Y0083182D01*
X0192590Y0083164D01*
X0192673Y0083151D01*
X0192756Y0083141D01*
X0192839Y0083135D01*
X0192922Y0083133D01*
X0194700Y0083133D01*
X0194700Y0089533D01*
X0192922Y0089533D01*
X0192922Y0093133D02*
X0194700Y0093133D01*
X0194700Y0099533D01*
X0192922Y0099533D01*
X0192848Y0099531D01*
X0192773Y0099525D01*
X0192700Y0099515D01*
X0192626Y0099502D01*
X0192554Y0099485D01*
X0192483Y0099463D01*
X0192412Y0099439D01*
X0192344Y0099410D01*
X0192276Y0099378D01*
X0192211Y0099342D01*
X0192148Y0099304D01*
X0192086Y0099261D01*
X0192027Y0099216D01*
X0191970Y0099168D01*
X0191916Y0099117D01*
X0191865Y0099063D01*
X0191817Y0099006D01*
X0191772Y0098947D01*
X0191729Y0098885D01*
X0191691Y0098822D01*
X0191655Y0098757D01*
X0191623Y0098689D01*
X0191594Y0098621D01*
X0191570Y0098550D01*
X0191548Y0098479D01*
X0191531Y0098407D01*
X0191518Y0098333D01*
X0191508Y0098260D01*
X0191502Y0098185D01*
X0191500Y0098111D01*
X0191502Y0098037D01*
X0191508Y0097962D01*
X0191518Y0097889D01*
X0191531Y0097815D01*
X0191548Y0097743D01*
X0191570Y0097672D01*
X0191594Y0097601D01*
X0191623Y0097533D01*
X0191655Y0097465D01*
X0191691Y0097400D01*
X0191729Y0097337D01*
X0191772Y0097275D01*
X0191817Y0097216D01*
X0191865Y0097159D01*
X0191916Y0097105D01*
X0191970Y0097054D01*
X0192027Y0097006D01*
X0192086Y0096961D01*
X0192148Y0096918D01*
X0192211Y0096880D01*
X0192276Y0096844D01*
X0192344Y0096812D01*
X0192412Y0096783D01*
X0192483Y0096759D01*
X0192554Y0096737D01*
X0192626Y0096720D01*
X0192700Y0096707D01*
X0192773Y0096697D01*
X0192848Y0096691D01*
X0192922Y0096689D01*
X0194700Y0096689D01*
X0192922Y0096689D02*
X0192839Y0096687D01*
X0192756Y0096681D01*
X0192673Y0096671D01*
X0192590Y0096658D01*
X0192509Y0096640D01*
X0192428Y0096619D01*
X0192349Y0096594D01*
X0192271Y0096565D01*
X0192194Y0096533D01*
X0192119Y0096497D01*
X0192045Y0096458D01*
X0191974Y0096415D01*
X0191904Y0096369D01*
X0191837Y0096319D01*
X0191772Y0096267D01*
X0191710Y0096212D01*
X0191650Y0096153D01*
X0191593Y0096092D01*
X0191539Y0096029D01*
X0191488Y0095963D01*
X0191441Y0095894D01*
X0191396Y0095824D01*
X0191355Y0095751D01*
X0191318Y0095677D01*
X0191283Y0095601D01*
X0191253Y0095523D01*
X0191226Y0095445D01*
X0191203Y0095364D01*
X0191183Y0095283D01*
X0191168Y0095201D01*
X0191156Y0095119D01*
X0191148Y0095036D01*
X0191144Y0094953D01*
X0191144Y0094869D01*
X0191148Y0094786D01*
X0191156Y0094703D01*
X0191168Y0094621D01*
X0191183Y0094539D01*
X0191203Y0094458D01*
X0191226Y0094377D01*
X0191253Y0094299D01*
X0191283Y0094221D01*
X0191318Y0094145D01*
X0191355Y0094071D01*
X0191396Y0093998D01*
X0191441Y0093928D01*
X0191488Y0093859D01*
X0191539Y0093793D01*
X0191593Y0093730D01*
X0191650Y0093669D01*
X0191710Y0093610D01*
X0191772Y0093555D01*
X0191837Y0093503D01*
X0191904Y0093453D01*
X0191974Y0093407D01*
X0192045Y0093364D01*
X0192119Y0093325D01*
X0192194Y0093289D01*
X0192271Y0093257D01*
X0192349Y0093228D01*
X0192428Y0093203D01*
X0192509Y0093182D01*
X0192590Y0093164D01*
X0192673Y0093151D01*
X0192756Y0093141D01*
X0192839Y0093135D01*
X0192922Y0093133D01*
X0188834Y0094911D02*
X0188832Y0094828D01*
X0188826Y0094745D01*
X0188816Y0094662D01*
X0188803Y0094579D01*
X0188785Y0094498D01*
X0188764Y0094417D01*
X0188739Y0094338D01*
X0188710Y0094260D01*
X0188678Y0094183D01*
X0188642Y0094108D01*
X0188603Y0094034D01*
X0188560Y0093963D01*
X0188514Y0093893D01*
X0188464Y0093826D01*
X0188412Y0093761D01*
X0188357Y0093699D01*
X0188298Y0093639D01*
X0188237Y0093582D01*
X0188174Y0093528D01*
X0188108Y0093477D01*
X0188039Y0093430D01*
X0187969Y0093385D01*
X0187896Y0093344D01*
X0187822Y0093307D01*
X0187746Y0093272D01*
X0187668Y0093242D01*
X0187590Y0093215D01*
X0187509Y0093192D01*
X0187428Y0093172D01*
X0187346Y0093157D01*
X0187264Y0093145D01*
X0187181Y0093137D01*
X0187098Y0093133D01*
X0187014Y0093133D01*
X0186931Y0093137D01*
X0186848Y0093145D01*
X0186766Y0093157D01*
X0186684Y0093172D01*
X0186603Y0093192D01*
X0186522Y0093215D01*
X0186444Y0093242D01*
X0186366Y0093272D01*
X0186290Y0093307D01*
X0186216Y0093344D01*
X0186143Y0093385D01*
X0186073Y0093430D01*
X0186004Y0093477D01*
X0185938Y0093528D01*
X0185875Y0093582D01*
X0185814Y0093639D01*
X0185755Y0093699D01*
X0185700Y0093761D01*
X0185648Y0093826D01*
X0185598Y0093893D01*
X0185552Y0093963D01*
X0185509Y0094034D01*
X0185470Y0094108D01*
X0185434Y0094183D01*
X0185402Y0094260D01*
X0185373Y0094338D01*
X0185348Y0094417D01*
X0185327Y0094498D01*
X0185309Y0094579D01*
X0185296Y0094662D01*
X0185286Y0094745D01*
X0185280Y0094828D01*
X0185278Y0094911D01*
X0185280Y0094994D01*
X0185286Y0095077D01*
X0185296Y0095160D01*
X0185309Y0095243D01*
X0185327Y0095324D01*
X0185348Y0095405D01*
X0185373Y0095484D01*
X0185402Y0095562D01*
X0185434Y0095639D01*
X0185470Y0095714D01*
X0185509Y0095788D01*
X0185552Y0095859D01*
X0185598Y0095929D01*
X0185648Y0095996D01*
X0185700Y0096061D01*
X0185755Y0096123D01*
X0185814Y0096183D01*
X0185875Y0096240D01*
X0185938Y0096294D01*
X0186004Y0096345D01*
X0186073Y0096392D01*
X0186143Y0096437D01*
X0186216Y0096478D01*
X0186290Y0096515D01*
X0186366Y0096550D01*
X0186444Y0096580D01*
X0186522Y0096607D01*
X0186603Y0096630D01*
X0186684Y0096650D01*
X0186766Y0096665D01*
X0186848Y0096677D01*
X0186931Y0096685D01*
X0187014Y0096689D01*
X0187098Y0096689D01*
X0187181Y0096685D01*
X0187264Y0096677D01*
X0187346Y0096665D01*
X0187428Y0096650D01*
X0187509Y0096630D01*
X0187590Y0096607D01*
X0187668Y0096580D01*
X0187746Y0096550D01*
X0187822Y0096515D01*
X0187896Y0096478D01*
X0187969Y0096437D01*
X0188039Y0096392D01*
X0188108Y0096345D01*
X0188174Y0096294D01*
X0188237Y0096240D01*
X0188298Y0096183D01*
X0188357Y0096123D01*
X0188412Y0096061D01*
X0188464Y0095996D01*
X0188514Y0095929D01*
X0188560Y0095859D01*
X0188603Y0095788D01*
X0188642Y0095714D01*
X0188678Y0095639D01*
X0188710Y0095562D01*
X0188739Y0095484D01*
X0188764Y0095405D01*
X0188785Y0095324D01*
X0188803Y0095243D01*
X0188816Y0095160D01*
X0188826Y0095077D01*
X0188832Y0094994D01*
X0188834Y0094911D01*
X0188478Y0098111D02*
X0188476Y0098037D01*
X0188470Y0097962D01*
X0188460Y0097889D01*
X0188447Y0097815D01*
X0188430Y0097743D01*
X0188408Y0097672D01*
X0188384Y0097601D01*
X0188355Y0097533D01*
X0188323Y0097465D01*
X0188287Y0097400D01*
X0188249Y0097337D01*
X0188206Y0097275D01*
X0188161Y0097216D01*
X0188113Y0097159D01*
X0188062Y0097105D01*
X0188008Y0097054D01*
X0187951Y0097006D01*
X0187892Y0096961D01*
X0187830Y0096918D01*
X0187767Y0096880D01*
X0187702Y0096844D01*
X0187634Y0096812D01*
X0187566Y0096783D01*
X0187495Y0096759D01*
X0187424Y0096737D01*
X0187352Y0096720D01*
X0187278Y0096707D01*
X0187205Y0096697D01*
X0187130Y0096691D01*
X0187056Y0096689D01*
X0186982Y0096691D01*
X0186907Y0096697D01*
X0186834Y0096707D01*
X0186760Y0096720D01*
X0186688Y0096737D01*
X0186617Y0096759D01*
X0186546Y0096783D01*
X0186478Y0096812D01*
X0186410Y0096844D01*
X0186345Y0096880D01*
X0186282Y0096918D01*
X0186220Y0096961D01*
X0186161Y0097006D01*
X0186104Y0097054D01*
X0186050Y0097105D01*
X0185999Y0097159D01*
X0185951Y0097216D01*
X0185906Y0097275D01*
X0185863Y0097337D01*
X0185825Y0097400D01*
X0185789Y0097465D01*
X0185757Y0097533D01*
X0185728Y0097601D01*
X0185704Y0097672D01*
X0185682Y0097743D01*
X0185665Y0097815D01*
X0185652Y0097889D01*
X0185642Y0097962D01*
X0185636Y0098037D01*
X0185634Y0098111D01*
X0185636Y0098185D01*
X0185642Y0098260D01*
X0185652Y0098333D01*
X0185665Y0098407D01*
X0185682Y0098479D01*
X0185704Y0098550D01*
X0185728Y0098621D01*
X0185757Y0098689D01*
X0185789Y0098757D01*
X0185825Y0098822D01*
X0185863Y0098885D01*
X0185906Y0098947D01*
X0185951Y0099006D01*
X0185999Y0099063D01*
X0186050Y0099117D01*
X0186104Y0099168D01*
X0186161Y0099216D01*
X0186220Y0099261D01*
X0186282Y0099304D01*
X0186345Y0099342D01*
X0186410Y0099378D01*
X0186478Y0099410D01*
X0186546Y0099439D01*
X0186617Y0099463D01*
X0186688Y0099485D01*
X0186760Y0099502D01*
X0186834Y0099515D01*
X0186907Y0099525D01*
X0186982Y0099531D01*
X0187056Y0099533D01*
X0187130Y0099531D01*
X0187205Y0099525D01*
X0187278Y0099515D01*
X0187352Y0099502D01*
X0187424Y0099485D01*
X0187495Y0099463D01*
X0187566Y0099439D01*
X0187634Y0099410D01*
X0187702Y0099378D01*
X0187767Y0099342D01*
X0187830Y0099304D01*
X0187892Y0099261D01*
X0187951Y0099216D01*
X0188008Y0099168D01*
X0188062Y0099117D01*
X0188113Y0099063D01*
X0188161Y0099006D01*
X0188206Y0098947D01*
X0188249Y0098885D01*
X0188287Y0098822D01*
X0188323Y0098757D01*
X0188355Y0098689D01*
X0188384Y0098621D01*
X0188408Y0098550D01*
X0188430Y0098479D01*
X0188447Y0098407D01*
X0188460Y0098333D01*
X0188470Y0098260D01*
X0188476Y0098185D01*
X0188478Y0098111D01*
X0192922Y0103133D02*
X0194700Y0103133D01*
X0194700Y0109533D01*
X0192922Y0109533D01*
X0192848Y0109531D01*
X0192773Y0109525D01*
X0192700Y0109515D01*
X0192626Y0109502D01*
X0192554Y0109485D01*
X0192483Y0109463D01*
X0192412Y0109439D01*
X0192344Y0109410D01*
X0192276Y0109378D01*
X0192211Y0109342D01*
X0192148Y0109304D01*
X0192086Y0109261D01*
X0192027Y0109216D01*
X0191970Y0109168D01*
X0191916Y0109117D01*
X0191865Y0109063D01*
X0191817Y0109006D01*
X0191772Y0108947D01*
X0191729Y0108885D01*
X0191691Y0108822D01*
X0191655Y0108757D01*
X0191623Y0108689D01*
X0191594Y0108621D01*
X0191570Y0108550D01*
X0191548Y0108479D01*
X0191531Y0108407D01*
X0191518Y0108333D01*
X0191508Y0108260D01*
X0191502Y0108185D01*
X0191500Y0108111D01*
X0191502Y0108037D01*
X0191508Y0107962D01*
X0191518Y0107889D01*
X0191531Y0107815D01*
X0191548Y0107743D01*
X0191570Y0107672D01*
X0191594Y0107601D01*
X0191623Y0107533D01*
X0191655Y0107465D01*
X0191691Y0107400D01*
X0191729Y0107337D01*
X0191772Y0107275D01*
X0191817Y0107216D01*
X0191865Y0107159D01*
X0191916Y0107105D01*
X0191970Y0107054D01*
X0192027Y0107006D01*
X0192086Y0106961D01*
X0192148Y0106918D01*
X0192211Y0106880D01*
X0192276Y0106844D01*
X0192344Y0106812D01*
X0192412Y0106783D01*
X0192483Y0106759D01*
X0192554Y0106737D01*
X0192626Y0106720D01*
X0192700Y0106707D01*
X0192773Y0106697D01*
X0192848Y0106691D01*
X0192922Y0106689D01*
X0194700Y0106689D01*
X0192922Y0106689D02*
X0192839Y0106687D01*
X0192756Y0106681D01*
X0192673Y0106671D01*
X0192590Y0106658D01*
X0192509Y0106640D01*
X0192428Y0106619D01*
X0192349Y0106594D01*
X0192271Y0106565D01*
X0192194Y0106533D01*
X0192119Y0106497D01*
X0192045Y0106458D01*
X0191974Y0106415D01*
X0191904Y0106369D01*
X0191837Y0106319D01*
X0191772Y0106267D01*
X0191710Y0106212D01*
X0191650Y0106153D01*
X0191593Y0106092D01*
X0191539Y0106029D01*
X0191488Y0105963D01*
X0191441Y0105894D01*
X0191396Y0105824D01*
X0191355Y0105751D01*
X0191318Y0105677D01*
X0191283Y0105601D01*
X0191253Y0105523D01*
X0191226Y0105445D01*
X0191203Y0105364D01*
X0191183Y0105283D01*
X0191168Y0105201D01*
X0191156Y0105119D01*
X0191148Y0105036D01*
X0191144Y0104953D01*
X0191144Y0104869D01*
X0191148Y0104786D01*
X0191156Y0104703D01*
X0191168Y0104621D01*
X0191183Y0104539D01*
X0191203Y0104458D01*
X0191226Y0104377D01*
X0191253Y0104299D01*
X0191283Y0104221D01*
X0191318Y0104145D01*
X0191355Y0104071D01*
X0191396Y0103998D01*
X0191441Y0103928D01*
X0191488Y0103859D01*
X0191539Y0103793D01*
X0191593Y0103730D01*
X0191650Y0103669D01*
X0191710Y0103610D01*
X0191772Y0103555D01*
X0191837Y0103503D01*
X0191904Y0103453D01*
X0191974Y0103407D01*
X0192045Y0103364D01*
X0192119Y0103325D01*
X0192194Y0103289D01*
X0192271Y0103257D01*
X0192349Y0103228D01*
X0192428Y0103203D01*
X0192509Y0103182D01*
X0192590Y0103164D01*
X0192673Y0103151D01*
X0192756Y0103141D01*
X0192839Y0103135D01*
X0192922Y0103133D01*
X0188123Y0103134D02*
X0188019Y0103136D01*
X0187915Y0103142D01*
X0187812Y0103151D01*
X0187709Y0103164D01*
X0187606Y0103181D01*
X0187505Y0103202D01*
X0187404Y0103226D01*
X0187304Y0103255D01*
X0187205Y0103286D01*
X0187107Y0103322D01*
X0187011Y0103361D01*
X0186916Y0103403D01*
X0186823Y0103449D01*
X0186731Y0103498D01*
X0186641Y0103550D01*
X0186554Y0103606D01*
X0186468Y0103665D01*
X0186385Y0103727D01*
X0186304Y0103792D01*
X0186225Y0103860D01*
X0186149Y0103931D01*
X0186076Y0104004D01*
X0186005Y0104080D01*
X0185937Y0104159D01*
X0185872Y0104240D01*
X0185810Y0104323D01*
X0185751Y0104409D01*
X0185695Y0104496D01*
X0185643Y0104586D01*
X0185594Y0104678D01*
X0185548Y0104771D01*
X0185506Y0104866D01*
X0185467Y0104962D01*
X0185431Y0105060D01*
X0185400Y0105159D01*
X0185371Y0105259D01*
X0185347Y0105360D01*
X0185326Y0105461D01*
X0185309Y0105564D01*
X0185296Y0105667D01*
X0185287Y0105770D01*
X0185281Y0105874D01*
X0185279Y0105978D01*
X0185279Y0107756D01*
X0185278Y0107756D02*
X0185280Y0107839D01*
X0185286Y0107922D01*
X0185296Y0108005D01*
X0185309Y0108088D01*
X0185327Y0108169D01*
X0185348Y0108250D01*
X0185373Y0108329D01*
X0185402Y0108407D01*
X0185434Y0108484D01*
X0185470Y0108559D01*
X0185509Y0108633D01*
X0185552Y0108704D01*
X0185598Y0108774D01*
X0185648Y0108841D01*
X0185700Y0108906D01*
X0185755Y0108968D01*
X0185814Y0109028D01*
X0185875Y0109085D01*
X0185938Y0109139D01*
X0186004Y0109190D01*
X0186073Y0109237D01*
X0186143Y0109282D01*
X0186216Y0109323D01*
X0186290Y0109360D01*
X0186366Y0109395D01*
X0186444Y0109425D01*
X0186522Y0109452D01*
X0186603Y0109475D01*
X0186684Y0109495D01*
X0186766Y0109510D01*
X0186848Y0109522D01*
X0186931Y0109530D01*
X0187014Y0109534D01*
X0187098Y0109534D01*
X0187181Y0109530D01*
X0187264Y0109522D01*
X0187346Y0109510D01*
X0187428Y0109495D01*
X0187509Y0109475D01*
X0187590Y0109452D01*
X0187668Y0109425D01*
X0187746Y0109395D01*
X0187822Y0109360D01*
X0187896Y0109323D01*
X0187969Y0109282D01*
X0188039Y0109237D01*
X0188108Y0109190D01*
X0188174Y0109139D01*
X0188237Y0109085D01*
X0188298Y0109028D01*
X0188357Y0108968D01*
X0188412Y0108906D01*
X0188464Y0108841D01*
X0188514Y0108774D01*
X0188560Y0108704D01*
X0188603Y0108633D01*
X0188642Y0108559D01*
X0188678Y0108484D01*
X0188710Y0108407D01*
X0188739Y0108329D01*
X0188764Y0108250D01*
X0188785Y0108169D01*
X0188803Y0108088D01*
X0188816Y0108005D01*
X0188826Y0107922D01*
X0188832Y0107839D01*
X0188834Y0107756D01*
X0188834Y0107400D01*
X0188832Y0107326D01*
X0188826Y0107251D01*
X0188816Y0107178D01*
X0188803Y0107104D01*
X0188786Y0107032D01*
X0188764Y0106961D01*
X0188740Y0106890D01*
X0188711Y0106822D01*
X0188679Y0106754D01*
X0188643Y0106689D01*
X0188605Y0106626D01*
X0188562Y0106564D01*
X0188517Y0106505D01*
X0188469Y0106448D01*
X0188418Y0106394D01*
X0188364Y0106343D01*
X0188307Y0106295D01*
X0188248Y0106250D01*
X0188186Y0106207D01*
X0188123Y0106169D01*
X0188058Y0106133D01*
X0187990Y0106101D01*
X0187922Y0106072D01*
X0187851Y0106048D01*
X0187780Y0106026D01*
X0187708Y0106009D01*
X0187634Y0105996D01*
X0187561Y0105986D01*
X0187486Y0105980D01*
X0187412Y0105978D01*
X0185279Y0105978D01*
X0185279Y0113133D02*
X0188834Y0113133D01*
X0187056Y0113133D02*
X0187056Y0119533D01*
X0188834Y0118111D01*
X0192922Y0119533D02*
X0192848Y0119531D01*
X0192773Y0119525D01*
X0192700Y0119515D01*
X0192626Y0119502D01*
X0192554Y0119485D01*
X0192483Y0119463D01*
X0192412Y0119439D01*
X0192344Y0119410D01*
X0192276Y0119378D01*
X0192211Y0119342D01*
X0192148Y0119304D01*
X0192086Y0119261D01*
X0192027Y0119216D01*
X0191970Y0119168D01*
X0191916Y0119117D01*
X0191865Y0119063D01*
X0191817Y0119006D01*
X0191772Y0118947D01*
X0191729Y0118885D01*
X0191691Y0118822D01*
X0191655Y0118757D01*
X0191623Y0118689D01*
X0191594Y0118621D01*
X0191570Y0118550D01*
X0191548Y0118479D01*
X0191531Y0118407D01*
X0191518Y0118333D01*
X0191508Y0118260D01*
X0191502Y0118185D01*
X0191500Y0118111D01*
X0191502Y0118037D01*
X0191508Y0117962D01*
X0191518Y0117889D01*
X0191531Y0117815D01*
X0191548Y0117743D01*
X0191570Y0117672D01*
X0191594Y0117601D01*
X0191623Y0117533D01*
X0191655Y0117465D01*
X0191691Y0117400D01*
X0191729Y0117337D01*
X0191772Y0117275D01*
X0191817Y0117216D01*
X0191865Y0117159D01*
X0191916Y0117105D01*
X0191970Y0117054D01*
X0192027Y0117006D01*
X0192086Y0116961D01*
X0192148Y0116918D01*
X0192211Y0116880D01*
X0192276Y0116844D01*
X0192344Y0116812D01*
X0192412Y0116783D01*
X0192483Y0116759D01*
X0192554Y0116737D01*
X0192626Y0116720D01*
X0192700Y0116707D01*
X0192773Y0116697D01*
X0192848Y0116691D01*
X0192922Y0116689D01*
X0194700Y0116689D01*
X0192922Y0116689D02*
X0192839Y0116687D01*
X0192756Y0116681D01*
X0192673Y0116671D01*
X0192590Y0116658D01*
X0192509Y0116640D01*
X0192428Y0116619D01*
X0192349Y0116594D01*
X0192271Y0116565D01*
X0192194Y0116533D01*
X0192119Y0116497D01*
X0192045Y0116458D01*
X0191974Y0116415D01*
X0191904Y0116369D01*
X0191837Y0116319D01*
X0191772Y0116267D01*
X0191710Y0116212D01*
X0191650Y0116153D01*
X0191593Y0116092D01*
X0191539Y0116029D01*
X0191488Y0115963D01*
X0191441Y0115894D01*
X0191396Y0115824D01*
X0191355Y0115751D01*
X0191318Y0115677D01*
X0191283Y0115601D01*
X0191253Y0115523D01*
X0191226Y0115445D01*
X0191203Y0115364D01*
X0191183Y0115283D01*
X0191168Y0115201D01*
X0191156Y0115119D01*
X0191148Y0115036D01*
X0191144Y0114953D01*
X0191144Y0114869D01*
X0191148Y0114786D01*
X0191156Y0114703D01*
X0191168Y0114621D01*
X0191183Y0114539D01*
X0191203Y0114458D01*
X0191226Y0114377D01*
X0191253Y0114299D01*
X0191283Y0114221D01*
X0191318Y0114145D01*
X0191355Y0114071D01*
X0191396Y0113998D01*
X0191441Y0113928D01*
X0191488Y0113859D01*
X0191539Y0113793D01*
X0191593Y0113730D01*
X0191650Y0113669D01*
X0191710Y0113610D01*
X0191772Y0113555D01*
X0191837Y0113503D01*
X0191904Y0113453D01*
X0191974Y0113407D01*
X0192045Y0113364D01*
X0192119Y0113325D01*
X0192194Y0113289D01*
X0192271Y0113257D01*
X0192349Y0113228D01*
X0192428Y0113203D01*
X0192509Y0113182D01*
X0192590Y0113164D01*
X0192673Y0113151D01*
X0192756Y0113141D01*
X0192839Y0113135D01*
X0192922Y0113133D01*
X0194700Y0113133D01*
X0194700Y0119533D01*
X0192922Y0119533D01*
X0192922Y0123133D02*
X0194700Y0123133D01*
X0194700Y0129533D01*
X0192922Y0129533D01*
X0192848Y0129531D01*
X0192773Y0129525D01*
X0192700Y0129515D01*
X0192626Y0129502D01*
X0192554Y0129485D01*
X0192483Y0129463D01*
X0192412Y0129439D01*
X0192344Y0129410D01*
X0192276Y0129378D01*
X0192211Y0129342D01*
X0192148Y0129304D01*
X0192086Y0129261D01*
X0192027Y0129216D01*
X0191970Y0129168D01*
X0191916Y0129117D01*
X0191865Y0129063D01*
X0191817Y0129006D01*
X0191772Y0128947D01*
X0191729Y0128885D01*
X0191691Y0128822D01*
X0191655Y0128757D01*
X0191623Y0128689D01*
X0191594Y0128621D01*
X0191570Y0128550D01*
X0191548Y0128479D01*
X0191531Y0128407D01*
X0191518Y0128333D01*
X0191508Y0128260D01*
X0191502Y0128185D01*
X0191500Y0128111D01*
X0191502Y0128037D01*
X0191508Y0127962D01*
X0191518Y0127889D01*
X0191531Y0127815D01*
X0191548Y0127743D01*
X0191570Y0127672D01*
X0191594Y0127601D01*
X0191623Y0127533D01*
X0191655Y0127465D01*
X0191691Y0127400D01*
X0191729Y0127337D01*
X0191772Y0127275D01*
X0191817Y0127216D01*
X0191865Y0127159D01*
X0191916Y0127105D01*
X0191970Y0127054D01*
X0192027Y0127006D01*
X0192086Y0126961D01*
X0192148Y0126918D01*
X0192211Y0126880D01*
X0192276Y0126844D01*
X0192344Y0126812D01*
X0192412Y0126783D01*
X0192483Y0126759D01*
X0192554Y0126737D01*
X0192626Y0126720D01*
X0192700Y0126707D01*
X0192773Y0126697D01*
X0192848Y0126691D01*
X0192922Y0126689D01*
X0194700Y0126689D01*
X0192922Y0126689D02*
X0192839Y0126687D01*
X0192756Y0126681D01*
X0192673Y0126671D01*
X0192590Y0126658D01*
X0192509Y0126640D01*
X0192428Y0126619D01*
X0192349Y0126594D01*
X0192271Y0126565D01*
X0192194Y0126533D01*
X0192119Y0126497D01*
X0192045Y0126458D01*
X0191974Y0126415D01*
X0191904Y0126369D01*
X0191837Y0126319D01*
X0191772Y0126267D01*
X0191710Y0126212D01*
X0191650Y0126153D01*
X0191593Y0126092D01*
X0191539Y0126029D01*
X0191488Y0125963D01*
X0191441Y0125894D01*
X0191396Y0125824D01*
X0191355Y0125751D01*
X0191318Y0125677D01*
X0191283Y0125601D01*
X0191253Y0125523D01*
X0191226Y0125445D01*
X0191203Y0125364D01*
X0191183Y0125283D01*
X0191168Y0125201D01*
X0191156Y0125119D01*
X0191148Y0125036D01*
X0191144Y0124953D01*
X0191144Y0124869D01*
X0191148Y0124786D01*
X0191156Y0124703D01*
X0191168Y0124621D01*
X0191183Y0124539D01*
X0191203Y0124458D01*
X0191226Y0124377D01*
X0191253Y0124299D01*
X0191283Y0124221D01*
X0191318Y0124145D01*
X0191355Y0124071D01*
X0191396Y0123998D01*
X0191441Y0123928D01*
X0191488Y0123859D01*
X0191539Y0123793D01*
X0191593Y0123730D01*
X0191650Y0123669D01*
X0191710Y0123610D01*
X0191772Y0123555D01*
X0191837Y0123503D01*
X0191904Y0123453D01*
X0191974Y0123407D01*
X0192045Y0123364D01*
X0192119Y0123325D01*
X0192194Y0123289D01*
X0192271Y0123257D01*
X0192349Y0123228D01*
X0192428Y0123203D01*
X0192509Y0123182D01*
X0192590Y0123164D01*
X0192673Y0123151D01*
X0192756Y0123141D01*
X0192839Y0123135D01*
X0192922Y0123133D01*
X0188834Y0123133D02*
X0185279Y0123133D01*
X0187056Y0123133D02*
X0187056Y0129533D01*
X0188834Y0128111D01*
X0188834Y0133133D02*
X0185279Y0133133D01*
X0187056Y0133133D02*
X0187056Y0139533D01*
X0188834Y0138111D01*
X0192922Y0139533D02*
X0192848Y0139531D01*
X0192773Y0139525D01*
X0192700Y0139515D01*
X0192626Y0139502D01*
X0192554Y0139485D01*
X0192483Y0139463D01*
X0192412Y0139439D01*
X0192344Y0139410D01*
X0192276Y0139378D01*
X0192211Y0139342D01*
X0192148Y0139304D01*
X0192086Y0139261D01*
X0192027Y0139216D01*
X0191970Y0139168D01*
X0191916Y0139117D01*
X0191865Y0139063D01*
X0191817Y0139006D01*
X0191772Y0138947D01*
X0191729Y0138885D01*
X0191691Y0138822D01*
X0191655Y0138757D01*
X0191623Y0138689D01*
X0191594Y0138621D01*
X0191570Y0138550D01*
X0191548Y0138479D01*
X0191531Y0138407D01*
X0191518Y0138333D01*
X0191508Y0138260D01*
X0191502Y0138185D01*
X0191500Y0138111D01*
X0191502Y0138037D01*
X0191508Y0137962D01*
X0191518Y0137889D01*
X0191531Y0137815D01*
X0191548Y0137743D01*
X0191570Y0137672D01*
X0191594Y0137601D01*
X0191623Y0137533D01*
X0191655Y0137465D01*
X0191691Y0137400D01*
X0191729Y0137337D01*
X0191772Y0137275D01*
X0191817Y0137216D01*
X0191865Y0137159D01*
X0191916Y0137105D01*
X0191970Y0137054D01*
X0192027Y0137006D01*
X0192086Y0136961D01*
X0192148Y0136918D01*
X0192211Y0136880D01*
X0192276Y0136844D01*
X0192344Y0136812D01*
X0192412Y0136783D01*
X0192483Y0136759D01*
X0192554Y0136737D01*
X0192626Y0136720D01*
X0192700Y0136707D01*
X0192773Y0136697D01*
X0192848Y0136691D01*
X0192922Y0136689D01*
X0194700Y0136689D01*
X0192922Y0136689D02*
X0192839Y0136687D01*
X0192756Y0136681D01*
X0192673Y0136671D01*
X0192590Y0136658D01*
X0192509Y0136640D01*
X0192428Y0136619D01*
X0192349Y0136594D01*
X0192271Y0136565D01*
X0192194Y0136533D01*
X0192119Y0136497D01*
X0192045Y0136458D01*
X0191974Y0136415D01*
X0191904Y0136369D01*
X0191837Y0136319D01*
X0191772Y0136267D01*
X0191710Y0136212D01*
X0191650Y0136153D01*
X0191593Y0136092D01*
X0191539Y0136029D01*
X0191488Y0135963D01*
X0191441Y0135894D01*
X0191396Y0135824D01*
X0191355Y0135751D01*
X0191318Y0135677D01*
X0191283Y0135601D01*
X0191253Y0135523D01*
X0191226Y0135445D01*
X0191203Y0135364D01*
X0191183Y0135283D01*
X0191168Y0135201D01*
X0191156Y0135119D01*
X0191148Y0135036D01*
X0191144Y0134953D01*
X0191144Y0134869D01*
X0191148Y0134786D01*
X0191156Y0134703D01*
X0191168Y0134621D01*
X0191183Y0134539D01*
X0191203Y0134458D01*
X0191226Y0134377D01*
X0191253Y0134299D01*
X0191283Y0134221D01*
X0191318Y0134145D01*
X0191355Y0134071D01*
X0191396Y0133998D01*
X0191441Y0133928D01*
X0191488Y0133859D01*
X0191539Y0133793D01*
X0191593Y0133730D01*
X0191650Y0133669D01*
X0191710Y0133610D01*
X0191772Y0133555D01*
X0191837Y0133503D01*
X0191904Y0133453D01*
X0191974Y0133407D01*
X0192045Y0133364D01*
X0192119Y0133325D01*
X0192194Y0133289D01*
X0192271Y0133257D01*
X0192349Y0133228D01*
X0192428Y0133203D01*
X0192509Y0133182D01*
X0192590Y0133164D01*
X0192673Y0133151D01*
X0192756Y0133141D01*
X0192839Y0133135D01*
X0192922Y0133133D01*
X0194700Y0133133D01*
X0194700Y0139533D01*
X0192922Y0139533D01*
X0182680Y0139533D02*
X0182680Y0136689D01*
X0180547Y0136689D01*
X0180473Y0136687D01*
X0180398Y0136681D01*
X0180325Y0136671D01*
X0180251Y0136658D01*
X0180179Y0136641D01*
X0180108Y0136619D01*
X0180037Y0136595D01*
X0179969Y0136566D01*
X0179901Y0136534D01*
X0179836Y0136498D01*
X0179773Y0136460D01*
X0179711Y0136417D01*
X0179652Y0136372D01*
X0179595Y0136324D01*
X0179541Y0136273D01*
X0179490Y0136219D01*
X0179442Y0136162D01*
X0179397Y0136103D01*
X0179354Y0136041D01*
X0179316Y0135978D01*
X0179280Y0135913D01*
X0179248Y0135845D01*
X0179219Y0135777D01*
X0179195Y0135706D01*
X0179173Y0135635D01*
X0179156Y0135563D01*
X0179143Y0135489D01*
X0179133Y0135416D01*
X0179127Y0135341D01*
X0179125Y0135267D01*
X0179125Y0134556D01*
X0179127Y0134482D01*
X0179133Y0134407D01*
X0179143Y0134334D01*
X0179156Y0134260D01*
X0179173Y0134188D01*
X0179195Y0134117D01*
X0179219Y0134046D01*
X0179248Y0133978D01*
X0179280Y0133910D01*
X0179316Y0133845D01*
X0179354Y0133782D01*
X0179397Y0133720D01*
X0179442Y0133661D01*
X0179490Y0133604D01*
X0179541Y0133550D01*
X0179595Y0133499D01*
X0179652Y0133451D01*
X0179711Y0133406D01*
X0179773Y0133363D01*
X0179836Y0133325D01*
X0179901Y0133289D01*
X0179969Y0133257D01*
X0180037Y0133228D01*
X0180108Y0133204D01*
X0180179Y0133182D01*
X0180251Y0133165D01*
X0180325Y0133152D01*
X0180398Y0133142D01*
X0180473Y0133136D01*
X0180547Y0133134D01*
X0180547Y0133133D02*
X0182680Y0133133D01*
X0181258Y0129533D02*
X0182680Y0124556D01*
X0179125Y0124556D01*
X0180191Y0125978D02*
X0180191Y0123133D01*
X0180547Y0119533D02*
X0182680Y0119533D01*
X0180547Y0119533D02*
X0180473Y0119531D01*
X0180398Y0119525D01*
X0180325Y0119515D01*
X0180251Y0119502D01*
X0180179Y0119485D01*
X0180108Y0119463D01*
X0180037Y0119439D01*
X0179969Y0119410D01*
X0179901Y0119378D01*
X0179836Y0119342D01*
X0179773Y0119304D01*
X0179711Y0119261D01*
X0179652Y0119216D01*
X0179595Y0119168D01*
X0179541Y0119117D01*
X0179490Y0119063D01*
X0179442Y0119006D01*
X0179397Y0118947D01*
X0179354Y0118885D01*
X0179316Y0118822D01*
X0179280Y0118757D01*
X0179248Y0118689D01*
X0179219Y0118621D01*
X0179195Y0118550D01*
X0179173Y0118479D01*
X0179156Y0118407D01*
X0179143Y0118333D01*
X0179133Y0118260D01*
X0179127Y0118185D01*
X0179125Y0118111D01*
X0179127Y0118037D01*
X0179133Y0117962D01*
X0179143Y0117889D01*
X0179156Y0117815D01*
X0179173Y0117743D01*
X0179195Y0117672D01*
X0179219Y0117601D01*
X0179248Y0117533D01*
X0179280Y0117465D01*
X0179316Y0117400D01*
X0179354Y0117337D01*
X0179397Y0117275D01*
X0179442Y0117216D01*
X0179490Y0117159D01*
X0179541Y0117105D01*
X0179595Y0117054D01*
X0179652Y0117006D01*
X0179711Y0116961D01*
X0179773Y0116918D01*
X0179836Y0116880D01*
X0179901Y0116844D01*
X0179969Y0116812D01*
X0180037Y0116783D01*
X0180108Y0116759D01*
X0180179Y0116737D01*
X0180251Y0116720D01*
X0180325Y0116707D01*
X0180398Y0116697D01*
X0180473Y0116691D01*
X0180547Y0116689D01*
X0181969Y0116689D01*
X0180902Y0116689D02*
X0180819Y0116687D01*
X0180736Y0116681D01*
X0180653Y0116671D01*
X0180570Y0116658D01*
X0180489Y0116640D01*
X0180408Y0116619D01*
X0180329Y0116594D01*
X0180251Y0116565D01*
X0180174Y0116533D01*
X0180099Y0116497D01*
X0180025Y0116458D01*
X0179954Y0116415D01*
X0179884Y0116369D01*
X0179817Y0116319D01*
X0179752Y0116267D01*
X0179690Y0116212D01*
X0179630Y0116153D01*
X0179573Y0116092D01*
X0179519Y0116029D01*
X0179468Y0115963D01*
X0179421Y0115894D01*
X0179376Y0115824D01*
X0179335Y0115751D01*
X0179298Y0115677D01*
X0179263Y0115601D01*
X0179233Y0115523D01*
X0179206Y0115445D01*
X0179183Y0115364D01*
X0179163Y0115283D01*
X0179148Y0115201D01*
X0179136Y0115119D01*
X0179128Y0115036D01*
X0179124Y0114953D01*
X0179124Y0114869D01*
X0179128Y0114786D01*
X0179136Y0114703D01*
X0179148Y0114621D01*
X0179163Y0114539D01*
X0179183Y0114458D01*
X0179206Y0114377D01*
X0179233Y0114299D01*
X0179263Y0114221D01*
X0179298Y0114145D01*
X0179335Y0114071D01*
X0179376Y0113998D01*
X0179421Y0113928D01*
X0179468Y0113859D01*
X0179519Y0113793D01*
X0179573Y0113730D01*
X0179630Y0113669D01*
X0179690Y0113610D01*
X0179752Y0113555D01*
X0179817Y0113503D01*
X0179884Y0113453D01*
X0179954Y0113407D01*
X0180025Y0113364D01*
X0180099Y0113325D01*
X0180174Y0113289D01*
X0180251Y0113257D01*
X0180329Y0113228D01*
X0180408Y0113203D01*
X0180489Y0113182D01*
X0180570Y0113164D01*
X0180653Y0113151D01*
X0180736Y0113141D01*
X0180819Y0113135D01*
X0180902Y0113133D01*
X0182680Y0113133D01*
X0182680Y0139533D02*
X0179125Y0139533D01*
D12*
X0156900Y0106233D03*
X0156900Y0106133D03*
X0156900Y0106033D03*
X0156000Y0104433D03*
X0156000Y0104333D03*
X0156000Y0104233D03*
X0156000Y0104133D03*
X0156000Y0104033D03*
X0157800Y0101733D03*
X0157800Y0101633D03*
X0157800Y0101533D03*
X0158700Y0099933D03*
X0158700Y0099833D03*
X0158700Y0099733D03*
X0158700Y0099633D03*
X0158700Y0099533D03*
X0152400Y0104633D03*
X0152400Y0104733D03*
X0152400Y0104833D03*
X0151500Y0103233D03*
X0151500Y0103133D03*
X0148800Y0093733D03*
X0147000Y0084733D03*
X0138900Y0088033D03*
X0138900Y0088133D03*
X0138900Y0088233D03*
X0137100Y0088233D03*
X0137100Y0088133D03*
X0137100Y0088033D03*
X0135300Y0088333D03*
X0126300Y0093433D03*
X0126300Y0093533D03*
X0126300Y0093633D03*
X0120900Y0093633D03*
X0120900Y0093533D03*
X0120900Y0093433D03*
X0123600Y0103733D03*
X0123600Y0103833D03*
X0123600Y0103933D03*
X0122700Y0104633D03*
X0122700Y0104733D03*
X0122700Y0104833D03*
X0121800Y0105533D03*
X0121800Y0105633D03*
X0121800Y0105733D03*
X0127200Y0110333D03*
X0127200Y0110433D03*
X0127200Y0110533D03*
X0127200Y0110633D03*
X0127200Y0110733D03*
X0126300Y0112333D03*
X0126300Y0112433D03*
X0126300Y0112533D03*
X0126300Y0112633D03*
X0138000Y0101433D03*
X0138000Y0101333D03*
X0158700Y0083433D03*
X0158700Y0083333D03*
X0155100Y0070333D03*
X0155100Y0070233D03*
X0155100Y0070133D03*
X0155100Y0070033D03*
X0160500Y0061833D03*
X0160500Y0061733D03*
X0159600Y0060433D03*
X0158700Y0059133D03*
X0158700Y0059033D03*
X0139800Y0062833D03*
X0139800Y0062933D03*
X0139800Y0063033D03*
X0134400Y0068533D03*
X0136200Y0070333D03*
X0135300Y0071233D03*
D13*
X0135550Y0071133D03*
X0135550Y0071033D03*
X0135550Y0070933D03*
X0135950Y0070633D03*
X0135950Y0070533D03*
X0135950Y0070433D03*
X0136450Y0070233D03*
X0136450Y0070133D03*
X0136450Y0070033D03*
X0134650Y0068433D03*
X0134650Y0068333D03*
X0134650Y0068233D03*
X0135050Y0067633D03*
X0129250Y0068633D03*
X0129250Y0068733D03*
X0129250Y0068833D03*
X0120250Y0071833D03*
X0120250Y0071933D03*
X0120250Y0072033D03*
X0120250Y0072133D03*
X0127450Y0080833D03*
X0127450Y0080933D03*
X0127450Y0081033D03*
X0135550Y0088033D03*
X0135550Y0088133D03*
X0135550Y0088233D03*
X0146750Y0084633D03*
X0146750Y0084533D03*
X0146750Y0084433D03*
X0146750Y0084333D03*
X0146750Y0084233D03*
X0146750Y0083833D03*
X0158450Y0082833D03*
X0158450Y0082733D03*
X0158450Y0082633D03*
X0155350Y0069733D03*
X0155350Y0069633D03*
X0155350Y0069533D03*
X0158950Y0067633D03*
X0157550Y0064933D03*
X0160250Y0061333D03*
X0159850Y0060733D03*
X0159850Y0060633D03*
X0159850Y0060533D03*
X0159350Y0060033D03*
X0159350Y0059933D03*
X0158950Y0059433D03*
X0158950Y0059333D03*
X0158950Y0059233D03*
X0145450Y0063233D03*
X0145450Y0063333D03*
X0145450Y0063433D03*
X0116650Y0084733D03*
X0116150Y0086233D03*
X0116150Y0086333D03*
X0116150Y0086433D03*
X0116150Y0086533D03*
X0125150Y0094733D03*
X0125150Y0094833D03*
X0125150Y0094933D03*
X0117550Y0102233D03*
X0117550Y0102333D03*
X0122050Y0105433D03*
X0123350Y0104133D03*
X0123350Y0104033D03*
X0126950Y0110933D03*
X0126950Y0111033D03*
X0126950Y0111133D03*
X0126950Y0111233D03*
X0126950Y0111333D03*
X0126550Y0112133D03*
X0126550Y0112233D03*
X0126050Y0112733D03*
X0126050Y0112833D03*
X0126050Y0112933D03*
X0126050Y0113033D03*
X0126050Y0113133D03*
X0125650Y0113633D03*
X0125650Y0113733D03*
X0125650Y0113833D03*
X0132350Y0108133D03*
X0138250Y0108033D03*
X0138250Y0107933D03*
X0138250Y0107833D03*
X0138250Y0107733D03*
X0138250Y0107633D03*
X0138250Y0107533D03*
X0138250Y0107433D03*
X0138250Y0107333D03*
X0138250Y0107233D03*
X0138250Y0107133D03*
X0138250Y0107033D03*
X0138250Y0106933D03*
X0138250Y0106833D03*
X0138250Y0106733D03*
X0138250Y0106633D03*
X0138250Y0106533D03*
X0138250Y0106433D03*
X0138250Y0109133D03*
X0138250Y0109233D03*
X0138250Y0109333D03*
X0138250Y0109433D03*
X0138250Y0109533D03*
X0138250Y0109633D03*
X0138250Y0109733D03*
X0138250Y0109833D03*
X0138250Y0109933D03*
X0138250Y0110033D03*
X0138250Y0110133D03*
X0138250Y0110233D03*
X0143150Y0109833D03*
X0143150Y0109733D03*
X0143150Y0109633D03*
X0143150Y0109533D03*
X0143150Y0109433D03*
X0143150Y0109333D03*
X0143150Y0109233D03*
X0143150Y0109133D03*
X0142750Y0107733D03*
X0142750Y0107633D03*
X0151750Y0103633D03*
X0152150Y0104233D03*
X0152150Y0104333D03*
X0152150Y0104433D03*
X0156250Y0104633D03*
X0156250Y0104733D03*
X0156250Y0104833D03*
X0156650Y0105533D03*
X0156650Y0105633D03*
X0156650Y0105733D03*
X0158050Y0107633D03*
X0158050Y0107733D03*
X0159850Y0101233D03*
X0159850Y0101133D03*
X0159850Y0101033D03*
D14*
X0160400Y0101533D03*
X0160400Y0101633D03*
X0160400Y0101733D03*
X0160600Y0101833D03*
X0161000Y0101933D03*
X0161000Y0102033D03*
X0161000Y0102133D03*
X0156400Y0104933D03*
X0156400Y0105033D03*
X0156500Y0105433D03*
X0156800Y0105833D03*
X0156800Y0105933D03*
X0157000Y0106333D03*
X0157300Y0106433D03*
X0157300Y0106533D03*
X0157300Y0106633D03*
X0157400Y0106933D03*
X0157400Y0107033D03*
X0157400Y0107133D03*
X0157700Y0107233D03*
X0157900Y0107333D03*
X0157900Y0107433D03*
X0157900Y0107533D03*
X0158200Y0107833D03*
X0158200Y0107933D03*
X0158200Y0108033D03*
X0158300Y0108133D03*
X0158600Y0108233D03*
X0158600Y0108333D03*
X0158600Y0108433D03*
X0158800Y0108533D03*
X0158800Y0108633D03*
X0156100Y0104533D03*
X0152900Y0105533D03*
X0152900Y0105633D03*
X0152900Y0105733D03*
X0152800Y0105433D03*
X0152800Y0105333D03*
X0152800Y0105233D03*
X0152800Y0105133D03*
X0152500Y0105033D03*
X0152500Y0104933D03*
X0152300Y0104533D03*
X0150200Y0096733D03*
X0150200Y0096633D03*
X0150200Y0096533D03*
X0150500Y0096433D03*
X0150700Y0096333D03*
X0150700Y0096233D03*
X0150700Y0096133D03*
X0151000Y0096033D03*
X0151000Y0095933D03*
X0148000Y0089133D03*
X0148000Y0089033D03*
X0148000Y0088933D03*
X0147100Y0085033D03*
X0147100Y0084933D03*
X0147100Y0084833D03*
X0142000Y0083733D03*
X0142000Y0083633D03*
X0142000Y0083533D03*
X0139000Y0088333D03*
X0136300Y0087333D03*
X0136300Y0087233D03*
X0136300Y0087133D03*
X0135800Y0087533D03*
X0135800Y0087633D03*
X0135800Y0087733D03*
X0135200Y0088433D03*
X0135200Y0088533D03*
X0135200Y0088633D03*
X0134900Y0088733D03*
X0134900Y0088833D03*
X0133600Y0092533D03*
X0133600Y0092633D03*
X0133600Y0092733D03*
X0133400Y0102833D03*
X0133400Y0102933D03*
X0133400Y0103033D03*
X0133100Y0103133D03*
X0133100Y0103233D03*
X0132700Y0107633D03*
X0132700Y0107733D03*
X0132500Y0107833D03*
X0132500Y0107933D03*
X0132500Y0108033D03*
X0132200Y0108233D03*
X0132200Y0108333D03*
X0132200Y0108433D03*
X0132200Y0109133D03*
X0132200Y0109233D03*
X0132200Y0109333D03*
X0132200Y0109433D03*
X0132200Y0109533D03*
X0132500Y0109633D03*
X0132500Y0109733D03*
X0132500Y0109833D03*
X0132500Y0109933D03*
X0132700Y0110333D03*
X0132700Y0110433D03*
X0133000Y0110833D03*
X0133100Y0111233D03*
X0133100Y0111333D03*
X0138100Y0110433D03*
X0138100Y0110333D03*
X0143000Y0110233D03*
X0143000Y0110133D03*
X0143000Y0110033D03*
X0143000Y0109933D03*
X0143300Y0103233D03*
X0143300Y0103133D03*
X0141100Y0103133D03*
X0141100Y0103233D03*
X0147500Y0115433D03*
X0147500Y0115533D03*
X0147500Y0115633D03*
X0147400Y0115733D03*
X0147400Y0115833D03*
X0147100Y0115933D03*
X0147100Y0116033D03*
X0147100Y0116133D03*
X0121700Y0106233D03*
X0121700Y0106133D03*
X0121700Y0106033D03*
X0121700Y0105933D03*
X0121700Y0105833D03*
X0117700Y0105733D03*
X0117700Y0105633D03*
X0117700Y0105533D03*
X0116800Y0100933D03*
X0120800Y0093733D03*
X0121300Y0093133D03*
X0121300Y0093033D03*
X0121300Y0092933D03*
X0116300Y0086833D03*
X0116300Y0086733D03*
X0116300Y0086633D03*
X0116300Y0086133D03*
X0116300Y0086033D03*
X0116300Y0085933D03*
X0116300Y0085833D03*
X0116300Y0085733D03*
X0116500Y0085533D03*
X0116500Y0085433D03*
X0116500Y0085333D03*
X0116500Y0085233D03*
X0116500Y0085133D03*
X0116500Y0085033D03*
X0116500Y0084933D03*
X0116500Y0084833D03*
X0116800Y0084633D03*
X0116800Y0084533D03*
X0116800Y0084433D03*
X0111800Y0076933D03*
X0111800Y0076833D03*
X0111800Y0076733D03*
X0120100Y0071733D03*
X0120100Y0071633D03*
X0120100Y0071533D03*
X0120100Y0071433D03*
X0120100Y0071333D03*
X0115900Y0066733D03*
X0115900Y0066633D03*
X0115900Y0066533D03*
X0115900Y0066433D03*
X0110900Y0066133D03*
X0110900Y0066033D03*
X0110900Y0065933D03*
X0110900Y0065833D03*
X0110600Y0065733D03*
X0110600Y0065633D03*
X0110600Y0065533D03*
X0110600Y0065433D03*
X0110600Y0065333D03*
X0125500Y0074333D03*
X0125500Y0074433D03*
X0128900Y0069033D03*
X0128900Y0068933D03*
X0130900Y0070033D03*
X0130900Y0070133D03*
X0130900Y0070233D03*
X0134000Y0069033D03*
X0134000Y0068933D03*
X0134300Y0068833D03*
X0134300Y0068733D03*
X0134300Y0068633D03*
X0136700Y0069533D03*
X0136700Y0069633D03*
X0136700Y0069733D03*
X0137000Y0069433D03*
X0137200Y0069333D03*
X0137200Y0069233D03*
X0137200Y0069133D03*
X0137500Y0069033D03*
X0137500Y0068933D03*
X0137500Y0068833D03*
X0137500Y0068733D03*
X0137500Y0068633D03*
X0137600Y0068533D03*
X0137900Y0068433D03*
X0137900Y0068333D03*
X0137900Y0068233D03*
X0139000Y0068933D03*
X0139000Y0069033D03*
X0139300Y0068833D03*
X0139300Y0068733D03*
X0139300Y0068633D03*
X0139300Y0068533D03*
X0140600Y0069133D03*
X0140600Y0069233D03*
X0140600Y0069333D03*
X0140300Y0069833D03*
X0140300Y0069933D03*
X0142400Y0069033D03*
X0142400Y0068933D03*
X0144800Y0068933D03*
X0144800Y0069033D03*
X0145100Y0069133D03*
X0145100Y0069233D03*
X0145100Y0069333D03*
X0145300Y0069533D03*
X0145300Y0069633D03*
X0145300Y0069733D03*
X0144200Y0063933D03*
X0144200Y0063833D03*
X0144200Y0063733D03*
X0135400Y0063633D03*
X0135400Y0063533D03*
X0130400Y0064133D03*
X0130400Y0064233D03*
X0130400Y0064333D03*
X0155500Y0062233D03*
X0155600Y0062333D03*
X0155600Y0062433D03*
X0155600Y0062533D03*
X0155900Y0062633D03*
X0155900Y0062733D03*
X0156100Y0063133D03*
X0156400Y0063233D03*
X0156400Y0063333D03*
X0156400Y0063433D03*
X0156500Y0063533D03*
X0156500Y0063633D03*
X0156800Y0063733D03*
X0156800Y0063833D03*
X0156800Y0063933D03*
X0157000Y0064033D03*
X0157000Y0064133D03*
X0157000Y0064233D03*
X0157000Y0064333D03*
X0157300Y0064433D03*
X0157300Y0064533D03*
X0157400Y0064633D03*
X0157400Y0064733D03*
X0157400Y0064833D03*
X0155500Y0069133D03*
X0155500Y0069233D03*
X0155500Y0069333D03*
X0155500Y0069433D03*
X0159100Y0059533D03*
X0158600Y0082933D03*
X0158600Y0083033D03*
X0158600Y0083133D03*
X0158600Y0083233D03*
X0158800Y0083533D03*
X0158800Y0083633D03*
X0158800Y0083733D03*
X0158800Y0083833D03*
X0158800Y0083933D03*
X0158800Y0084033D03*
X0158800Y0084133D03*
X0162200Y0089633D03*
X0162200Y0089733D03*
D15*
X0160050Y0101333D03*
X0160050Y0101433D03*
X0156450Y0105133D03*
X0156450Y0105233D03*
X0156450Y0105333D03*
X0157350Y0106733D03*
X0157350Y0106833D03*
X0151950Y0104133D03*
X0151950Y0104033D03*
X0142950Y0107833D03*
X0142950Y0107933D03*
X0142950Y0108033D03*
X0142950Y0108133D03*
X0132150Y0108533D03*
X0132150Y0108633D03*
X0132150Y0108733D03*
X0132150Y0108833D03*
X0132150Y0108933D03*
X0132150Y0109033D03*
X0126750Y0111733D03*
X0125850Y0113233D03*
X0125850Y0113333D03*
X0125850Y0113433D03*
X0127650Y0115933D03*
X0127650Y0116033D03*
X0127650Y0116133D03*
X0122250Y0105333D03*
X0122250Y0105233D03*
X0122250Y0105133D03*
X0123150Y0104433D03*
X0123150Y0104333D03*
X0123150Y0104233D03*
X0117750Y0105433D03*
X0116850Y0101233D03*
X0116850Y0101133D03*
X0116850Y0101033D03*
X0116850Y0084333D03*
X0116850Y0084233D03*
X0120450Y0072633D03*
X0120450Y0072533D03*
X0127650Y0068133D03*
X0127650Y0068033D03*
X0129450Y0068533D03*
X0131250Y0069533D03*
X0131250Y0069633D03*
X0131250Y0069733D03*
X0134850Y0067933D03*
X0134850Y0067833D03*
X0134850Y0067733D03*
X0136650Y0069833D03*
X0136650Y0069933D03*
X0135750Y0070733D03*
X0135750Y0070833D03*
X0135750Y0087833D03*
X0135750Y0087933D03*
X0159150Y0067033D03*
X0159150Y0066933D03*
X0159150Y0066833D03*
X0160950Y0062533D03*
X0160950Y0062433D03*
X0160950Y0062333D03*
X0160050Y0061233D03*
X0160050Y0061133D03*
X0160050Y0061033D03*
X0159150Y0059833D03*
X0159150Y0059733D03*
X0159150Y0059633D03*
D16*
X0159450Y0060133D03*
X0159450Y0060233D03*
X0159450Y0060333D03*
X0160350Y0061433D03*
X0160350Y0061533D03*
X0160350Y0061633D03*
X0160650Y0061933D03*
X0160650Y0062033D03*
X0160650Y0062133D03*
X0161250Y0062833D03*
X0161250Y0062933D03*
X0161250Y0063033D03*
X0157950Y0065033D03*
X0157950Y0065133D03*
X0157950Y0065233D03*
X0158850Y0067733D03*
X0158850Y0067833D03*
X0158850Y0067933D03*
X0158850Y0068033D03*
X0158850Y0068133D03*
X0158550Y0068533D03*
X0158550Y0068633D03*
X0158550Y0068733D03*
X0158550Y0068833D03*
X0155250Y0069833D03*
X0155250Y0069933D03*
X0154950Y0070433D03*
X0154950Y0070533D03*
X0154950Y0070633D03*
X0146850Y0065733D03*
X0146850Y0065633D03*
X0146850Y0065533D03*
X0136950Y0063433D03*
X0136950Y0063333D03*
X0136950Y0063233D03*
X0135150Y0067333D03*
X0135150Y0067433D03*
X0135150Y0067533D03*
X0127050Y0081733D03*
X0127050Y0081833D03*
X0127050Y0081933D03*
X0121050Y0093233D03*
X0121050Y0093333D03*
X0123750Y0095233D03*
X0123750Y0095333D03*
X0123750Y0095433D03*
X0124650Y0097433D03*
X0124650Y0097533D03*
X0124650Y0097633D03*
X0122550Y0104933D03*
X0122550Y0105033D03*
X0118050Y0105133D03*
X0118050Y0105233D03*
X0118050Y0105333D03*
X0127050Y0110833D03*
X0127350Y0110233D03*
X0127350Y0110133D03*
X0127350Y0110033D03*
X0127350Y0109933D03*
X0127350Y0109833D03*
X0127350Y0109733D03*
X0127350Y0109633D03*
X0125550Y0113933D03*
X0125550Y0114033D03*
X0127350Y0115733D03*
X0127350Y0115833D03*
X0133350Y0102733D03*
X0138150Y0101733D03*
X0138150Y0101633D03*
X0138150Y0101533D03*
X0143250Y0108733D03*
X0143250Y0108833D03*
X0143250Y0108933D03*
X0143250Y0109033D03*
X0148050Y0103533D03*
X0148050Y0103433D03*
X0148050Y0103333D03*
X0151350Y0103033D03*
X0151350Y0102933D03*
X0151350Y0102833D03*
X0151350Y0102733D03*
X0151650Y0103333D03*
X0151650Y0103433D03*
X0151650Y0103533D03*
X0158850Y0100033D03*
X0161550Y0088833D03*
X0161550Y0088733D03*
X0161550Y0088633D03*
X0161550Y0088533D03*
X0161550Y0088433D03*
X0153150Y0083433D03*
X0153150Y0083333D03*
X0151350Y0080733D03*
X0151350Y0080633D03*
X0138750Y0087833D03*
X0138750Y0087933D03*
X0115350Y0068133D03*
X0115350Y0068033D03*
X0115350Y0067933D03*
X0115350Y0067833D03*
X0115350Y0067733D03*
X0115350Y0067633D03*
X0115350Y0067533D03*
X0115350Y0067433D03*
X0115350Y0067333D03*
X0115350Y0067233D03*
X0115350Y0067133D03*
X0115350Y0067033D03*
X0115350Y0066933D03*
X0115350Y0066833D03*
X0111750Y0068633D03*
X0111750Y0068733D03*
X0111750Y0068833D03*
X0111750Y0068933D03*
X0111750Y0069033D03*
X0111750Y0069133D03*
X0111750Y0069233D03*
X0111750Y0069333D03*
X0112050Y0070033D03*
X0112050Y0070133D03*
X0112050Y0070233D03*
X0110850Y0066333D03*
X0110850Y0066233D03*
X0112950Y0077233D03*
X0112950Y0077333D03*
X0112950Y0077433D03*
X0148050Y0115033D03*
X0148050Y0115133D03*
X0148050Y0115233D03*
X0147750Y0115333D03*
D17*
X0146300Y0117233D03*
X0146300Y0117333D03*
X0146300Y0117433D03*
X0141400Y0112633D03*
X0141800Y0112233D03*
X0141800Y0112133D03*
X0142300Y0111733D03*
X0138200Y0111733D03*
X0138200Y0111833D03*
X0138200Y0111933D03*
X0138200Y0112033D03*
X0138200Y0112133D03*
X0138200Y0112233D03*
X0138200Y0112333D03*
X0138200Y0112433D03*
X0138200Y0112533D03*
X0138200Y0112633D03*
X0138200Y0112733D03*
X0138200Y0112833D03*
X0138200Y0112933D03*
X0133700Y0112033D03*
X0133700Y0111933D03*
X0133700Y0111833D03*
X0132400Y0104533D03*
X0127400Y0095133D03*
X0127400Y0095033D03*
X0134200Y0089233D03*
X0136900Y0087733D03*
X0136900Y0087633D03*
X0136900Y0087533D03*
X0139600Y0088933D03*
X0139600Y0089033D03*
X0139600Y0089133D03*
X0150800Y0081633D03*
X0150800Y0081533D03*
X0152600Y0091433D03*
X0152600Y0091533D03*
X0148100Y0103633D03*
X0144100Y0104533D03*
X0144100Y0107633D03*
X0144100Y0107733D03*
X0153500Y0107733D03*
X0153500Y0107633D03*
X0153500Y0107833D03*
X0153500Y0107933D03*
X0153500Y0108033D03*
X0154000Y0108733D03*
X0154000Y0108833D03*
X0154000Y0108933D03*
X0159800Y0109633D03*
X0159800Y0109733D03*
X0159800Y0109833D03*
X0160300Y0110033D03*
X0160300Y0110133D03*
X0160300Y0110233D03*
X0129700Y0118433D03*
X0129700Y0118533D03*
X0129200Y0117933D03*
X0129200Y0117833D03*
X0129200Y0117733D03*
X0117100Y0108033D03*
X0117100Y0107933D03*
X0117100Y0107833D03*
X0117100Y0107733D03*
X0117100Y0107633D03*
X0117100Y0107533D03*
X0117100Y0107433D03*
X0117100Y0107333D03*
X0116600Y0109033D03*
X0116600Y0109133D03*
X0116600Y0109233D03*
X0116600Y0109333D03*
X0116200Y0110033D03*
X0116200Y0110133D03*
X0116200Y0110233D03*
X0115700Y0110833D03*
X0115300Y0103533D03*
X0115300Y0103433D03*
X0115300Y0103333D03*
X0116600Y0099033D03*
X0116600Y0098933D03*
X0116600Y0098833D03*
X0117500Y0089733D03*
X0117500Y0089633D03*
X0117500Y0089533D03*
X0117500Y0089433D03*
X0117500Y0089333D03*
X0117100Y0088633D03*
X0117100Y0088533D03*
X0117100Y0088433D03*
X0122000Y0084133D03*
X0122000Y0084033D03*
X0122000Y0083933D03*
X0124300Y0075633D03*
X0124300Y0075533D03*
X0124300Y0075433D03*
X0125600Y0073933D03*
X0126100Y0074033D03*
X0126100Y0074133D03*
X0126100Y0074233D03*
X0126100Y0073533D03*
X0126100Y0073433D03*
X0127000Y0072933D03*
X0127000Y0072833D03*
X0127000Y0072733D03*
X0127900Y0069733D03*
X0127900Y0069633D03*
X0127900Y0069533D03*
X0127000Y0068833D03*
X0127000Y0068733D03*
X0127000Y0068633D03*
X0127400Y0066133D03*
X0127400Y0066033D03*
X0127400Y0065933D03*
X0130600Y0064033D03*
X0136000Y0063133D03*
X0133300Y0069833D03*
X0133300Y0069933D03*
X0130100Y0070933D03*
X0130100Y0071033D03*
X0130100Y0071133D03*
X0121600Y0072133D03*
X0121600Y0072233D03*
X0121600Y0072333D03*
X0121600Y0072433D03*
X0117100Y0063933D03*
X0117100Y0063833D03*
X0117100Y0063733D03*
X0117100Y0063633D03*
X0117100Y0063533D03*
X0109900Y0061633D03*
X0109900Y0061533D03*
X0109900Y0061433D03*
X0109900Y0061333D03*
X0109900Y0061233D03*
X0109900Y0061133D03*
X0109900Y0061033D03*
X0109900Y0060933D03*
X0109900Y0060833D03*
X0109900Y0060733D03*
X0109900Y0060633D03*
X0109900Y0060533D03*
X0109900Y0060433D03*
X0109900Y0066233D03*
X0109900Y0066333D03*
X0138700Y0070033D03*
X0138700Y0070133D03*
X0138700Y0070233D03*
X0138700Y0070333D03*
X0140900Y0070933D03*
X0140900Y0071033D03*
X0140900Y0071133D03*
X0141800Y0069733D03*
X0141800Y0069633D03*
X0141800Y0069533D03*
X0141800Y0069433D03*
X0144100Y0069533D03*
X0144100Y0069633D03*
X0144100Y0069733D03*
X0144500Y0070433D03*
X0144500Y0070533D03*
X0144500Y0070633D03*
X0144500Y0070733D03*
X0144500Y0070833D03*
X0143600Y0070933D03*
X0143600Y0071033D03*
X0143600Y0071133D03*
X0144100Y0071833D03*
X0144100Y0071933D03*
X0144100Y0072033D03*
X0145900Y0070633D03*
X0145900Y0070533D03*
X0145900Y0070433D03*
X0147200Y0068133D03*
X0147200Y0068033D03*
X0147700Y0064333D03*
X0147700Y0064233D03*
X0147700Y0064133D03*
X0150800Y0068033D03*
X0150800Y0068133D03*
X0156200Y0067533D03*
X0156200Y0067433D03*
X0156200Y0067333D03*
X0156200Y0067233D03*
X0156200Y0067133D03*
X0154400Y0061333D03*
D18*
X0158100Y0065333D03*
X0158100Y0065433D03*
X0159000Y0066733D03*
X0159000Y0067133D03*
X0159000Y0067233D03*
X0159000Y0067333D03*
X0159000Y0067433D03*
X0159000Y0067533D03*
X0162000Y0067633D03*
X0162000Y0067733D03*
X0162000Y0067833D03*
X0162000Y0067933D03*
X0161100Y0062733D03*
X0161100Y0062633D03*
X0160800Y0062233D03*
X0159900Y0060933D03*
X0159900Y0060833D03*
X0147600Y0065933D03*
X0147600Y0066033D03*
X0147600Y0066133D03*
X0145800Y0063633D03*
X0145800Y0063533D03*
X0134700Y0068033D03*
X0134700Y0068133D03*
X0135000Y0071333D03*
X0135000Y0071433D03*
X0135000Y0071533D03*
X0131400Y0069433D03*
X0120300Y0072233D03*
X0120300Y0072333D03*
X0120300Y0072433D03*
X0115200Y0069033D03*
X0115200Y0068933D03*
X0115200Y0068833D03*
X0115200Y0068733D03*
X0115200Y0068633D03*
X0115200Y0068533D03*
X0114900Y0070033D03*
X0114900Y0070133D03*
X0114900Y0070233D03*
X0114900Y0070333D03*
X0111600Y0068433D03*
X0111600Y0068333D03*
X0111600Y0068233D03*
X0111600Y0068133D03*
X0111600Y0068033D03*
X0111600Y0067933D03*
X0111600Y0067833D03*
X0111600Y0067733D03*
X0111300Y0067533D03*
X0111300Y0067433D03*
X0111300Y0067333D03*
X0112500Y0077033D03*
X0112500Y0077133D03*
X0114900Y0093833D03*
X0114900Y0093933D03*
X0114900Y0094033D03*
X0117000Y0101333D03*
X0117000Y0101433D03*
X0118800Y0101433D03*
X0118800Y0101333D03*
X0123000Y0104533D03*
X0123900Y0103533D03*
X0123900Y0103433D03*
X0123900Y0103333D03*
X0127500Y0103633D03*
X0123900Y0097333D03*
X0123900Y0097233D03*
X0123900Y0097133D03*
X0123900Y0097033D03*
X0135000Y0102733D03*
X0138300Y0108133D03*
X0142800Y0107533D03*
X0142800Y0107433D03*
X0142800Y0107333D03*
X0143100Y0108233D03*
X0143100Y0108333D03*
X0143100Y0108433D03*
X0151800Y0103933D03*
X0151800Y0103833D03*
X0151800Y0103733D03*
X0155700Y0103733D03*
X0155700Y0103833D03*
X0155700Y0103933D03*
X0162000Y0089533D03*
X0162000Y0089433D03*
X0162000Y0089333D03*
X0161700Y0089233D03*
X0158400Y0082533D03*
X0158400Y0082433D03*
X0146700Y0083933D03*
X0146700Y0084033D03*
X0146700Y0084133D03*
X0126900Y0111433D03*
X0126900Y0111533D03*
X0126900Y0111633D03*
X0126600Y0111833D03*
X0126600Y0111933D03*
X0126600Y0112033D03*
X0125700Y0113533D03*
D19*
X0134100Y0112233D03*
X0134100Y0112133D03*
X0132900Y0103633D03*
X0143700Y0103733D03*
X0143700Y0103833D03*
X0143700Y0103933D03*
X0143700Y0104033D03*
X0143700Y0104133D03*
X0142800Y0110833D03*
X0146700Y0116633D03*
X0146700Y0116733D03*
X0146400Y0116833D03*
X0146400Y0116933D03*
X0146400Y0117033D03*
X0146400Y0117133D03*
X0161700Y0102633D03*
X0161700Y0102533D03*
X0161700Y0102433D03*
X0162600Y0102833D03*
X0162600Y0102933D03*
X0162600Y0103033D03*
X0160200Y0094933D03*
X0160200Y0094833D03*
X0160200Y0094733D03*
X0162600Y0090033D03*
X0162600Y0089933D03*
X0162600Y0089833D03*
X0161100Y0088333D03*
X0153000Y0091033D03*
X0147300Y0085533D03*
X0147300Y0085433D03*
X0147300Y0085333D03*
X0150900Y0081433D03*
X0150900Y0081333D03*
X0150900Y0081233D03*
X0150900Y0081133D03*
X0150900Y0081033D03*
X0150900Y0080933D03*
X0150900Y0080833D03*
X0150900Y0080533D03*
X0150900Y0080433D03*
X0150900Y0080333D03*
X0151800Y0080833D03*
X0151800Y0080933D03*
X0151800Y0081033D03*
X0160200Y0080233D03*
X0162000Y0076233D03*
X0162000Y0076133D03*
X0153900Y0070633D03*
X0153900Y0070533D03*
X0153900Y0070433D03*
X0150300Y0067633D03*
X0150000Y0067533D03*
X0150000Y0067433D03*
X0150000Y0067333D03*
X0147600Y0066633D03*
X0147600Y0066533D03*
X0147600Y0066433D03*
X0146700Y0067633D03*
X0145500Y0070033D03*
X0145500Y0070133D03*
X0145500Y0070233D03*
X0145800Y0070333D03*
X0144000Y0069433D03*
X0144000Y0069333D03*
X0144000Y0069233D03*
X0144000Y0069133D03*
X0143100Y0069833D03*
X0143100Y0069933D03*
X0143100Y0070033D03*
X0143100Y0070133D03*
X0143100Y0070233D03*
X0141000Y0070733D03*
X0141000Y0070833D03*
X0133800Y0069333D03*
X0133800Y0069233D03*
X0133800Y0069133D03*
X0135600Y0063433D03*
X0135600Y0063333D03*
X0135600Y0063233D03*
X0127800Y0065833D03*
X0119700Y0070033D03*
X0119700Y0070133D03*
X0119700Y0070233D03*
X0119700Y0070333D03*
X0121500Y0072533D03*
X0121500Y0072633D03*
X0124800Y0074933D03*
X0124800Y0075033D03*
X0124800Y0075133D03*
X0116100Y0065733D03*
X0116100Y0065633D03*
X0116100Y0065533D03*
X0116700Y0064533D03*
X0116700Y0064433D03*
X0116700Y0064333D03*
X0116700Y0064233D03*
X0116700Y0064133D03*
X0117000Y0064033D03*
X0110400Y0064033D03*
X0110400Y0063933D03*
X0110400Y0063833D03*
X0110400Y0063733D03*
X0110400Y0064133D03*
X0110400Y0064233D03*
X0110400Y0064333D03*
X0110400Y0064433D03*
X0110400Y0064533D03*
X0110400Y0064633D03*
X0110400Y0064733D03*
X0110400Y0064833D03*
X0116700Y0087833D03*
X0116700Y0087933D03*
X0117000Y0088033D03*
X0117000Y0088133D03*
X0117000Y0088233D03*
X0117000Y0088333D03*
X0121500Y0092833D03*
X0117600Y0097933D03*
X0117600Y0098033D03*
X0117600Y0098133D03*
X0116700Y0100633D03*
X0116700Y0100733D03*
X0116700Y0100833D03*
X0116100Y0102433D03*
X0116100Y0102533D03*
X0116100Y0102633D03*
X0115800Y0102733D03*
X0116100Y0110333D03*
X0116100Y0110433D03*
X0127800Y0090033D03*
X0127800Y0089933D03*
X0127800Y0089833D03*
X0139500Y0088833D03*
X0139500Y0088733D03*
X0163500Y0063933D03*
X0163500Y0063833D03*
X0163500Y0063733D03*
X0163500Y0063633D03*
X0163500Y0063533D03*
X0154800Y0061633D03*
X0154800Y0061533D03*
X0154800Y0061433D03*
D20*
X0155100Y0061733D03*
X0155100Y0061833D03*
X0156000Y0062833D03*
X0156000Y0062933D03*
X0156000Y0063033D03*
X0149700Y0067133D03*
X0149700Y0067233D03*
X0145200Y0069433D03*
X0142500Y0069333D03*
X0142500Y0069233D03*
X0142500Y0069133D03*
X0140700Y0070333D03*
X0138900Y0069433D03*
X0138900Y0069333D03*
X0138900Y0069233D03*
X0138900Y0069133D03*
X0125400Y0074533D03*
X0125400Y0074633D03*
X0125400Y0074733D03*
X0120000Y0071233D03*
X0120000Y0071133D03*
X0120000Y0071033D03*
X0120000Y0070933D03*
X0116400Y0085633D03*
X0116400Y0086933D03*
X0116400Y0087033D03*
X0116400Y0087133D03*
X0116400Y0087233D03*
X0116400Y0087333D03*
X0114600Y0094133D03*
X0114600Y0094233D03*
X0123600Y0095033D03*
X0123600Y0095133D03*
X0136200Y0087433D03*
X0138000Y0101033D03*
X0138000Y0101133D03*
X0138000Y0101233D03*
X0143400Y0103333D03*
X0143400Y0103433D03*
X0143400Y0103533D03*
X0132600Y0110033D03*
X0132600Y0110133D03*
X0132600Y0110233D03*
X0128100Y0116333D03*
X0128100Y0116433D03*
X0128100Y0116533D03*
X0147000Y0116233D03*
X0159600Y0109533D03*
X0159600Y0109433D03*
X0161400Y0102333D03*
X0161400Y0102233D03*
X0158700Y0099433D03*
X0158700Y0099333D03*
X0158700Y0099233D03*
X0158700Y0099133D03*
X0153300Y0090433D03*
X0153300Y0090333D03*
X0153300Y0090233D03*
D21*
X0152400Y0091633D03*
X0152400Y0091733D03*
X0152400Y0091833D03*
X0158700Y0087333D03*
X0158700Y0087233D03*
X0158700Y0087133D03*
X0158700Y0087033D03*
X0158700Y0086933D03*
X0158700Y0086833D03*
X0158700Y0086733D03*
X0158700Y0086633D03*
X0162300Y0076033D03*
X0162300Y0075933D03*
X0162300Y0075833D03*
X0156000Y0067933D03*
X0156000Y0067833D03*
X0156000Y0067733D03*
X0150600Y0067733D03*
X0150600Y0067833D03*
X0150600Y0067933D03*
X0146100Y0070733D03*
X0146100Y0070833D03*
X0146100Y0070933D03*
X0146100Y0071033D03*
X0146100Y0071133D03*
X0144300Y0070333D03*
X0144300Y0070233D03*
X0144300Y0070133D03*
X0144300Y0070033D03*
X0143400Y0070433D03*
X0143400Y0070533D03*
X0143400Y0070633D03*
X0141600Y0069333D03*
X0141600Y0069233D03*
X0141600Y0069133D03*
X0138000Y0063033D03*
X0138000Y0062933D03*
X0138000Y0062833D03*
X0133500Y0069533D03*
X0133500Y0069633D03*
X0133500Y0069733D03*
X0129900Y0071233D03*
X0127200Y0068533D03*
X0126300Y0073133D03*
X0126300Y0073233D03*
X0126300Y0073333D03*
X0117300Y0063433D03*
X0117300Y0063333D03*
X0117300Y0063233D03*
X0110100Y0062733D03*
X0110100Y0062633D03*
X0110100Y0062533D03*
X0110100Y0062433D03*
X0110100Y0062333D03*
X0110100Y0062233D03*
X0110100Y0062133D03*
X0110100Y0062033D03*
X0110100Y0061933D03*
X0110100Y0061833D03*
X0110100Y0061733D03*
X0117300Y0088933D03*
X0117300Y0089033D03*
X0117300Y0089133D03*
X0117300Y0089233D03*
X0124500Y0094633D03*
X0126300Y0093733D03*
X0132600Y0104033D03*
X0132600Y0104133D03*
X0138000Y0100933D03*
X0141600Y0092833D03*
X0158700Y0098833D03*
X0158700Y0098933D03*
X0158700Y0099033D03*
X0141600Y0112333D03*
X0141600Y0112433D03*
X0141600Y0112533D03*
X0146100Y0117733D03*
X0146100Y0117833D03*
X0146100Y0117933D03*
X0146100Y0118033D03*
X0129900Y0118633D03*
X0129900Y0118733D03*
X0129900Y0118833D03*
X0121800Y0108133D03*
X0121800Y0108033D03*
X0121800Y0107933D03*
X0121800Y0107833D03*
X0121800Y0107733D03*
X0121800Y0107633D03*
X0121800Y0107533D03*
X0121800Y0107433D03*
X0121800Y0107333D03*
X0121800Y0107233D03*
X0121800Y0107133D03*
X0121800Y0107033D03*
X0121800Y0106933D03*
X0117300Y0106833D03*
X0117300Y0106733D03*
X0114600Y0104133D03*
X0114600Y0104033D03*
X0115500Y0103233D03*
X0115500Y0103133D03*
D22*
X0116150Y0102333D03*
X0116150Y0102233D03*
X0117550Y0105833D03*
X0117550Y0105933D03*
X0117550Y0106033D03*
X0117550Y0106133D03*
X0117550Y0106233D03*
X0125150Y0097833D03*
X0125150Y0097733D03*
X0134650Y0089133D03*
X0134650Y0089033D03*
X0134650Y0088933D03*
X0139150Y0088633D03*
X0139150Y0088533D03*
X0139150Y0088433D03*
X0142250Y0083433D03*
X0142250Y0083333D03*
X0147250Y0085133D03*
X0147250Y0085233D03*
X0151750Y0080533D03*
X0151750Y0080433D03*
X0151750Y0080333D03*
X0158950Y0084233D03*
X0158950Y0084333D03*
X0158950Y0084433D03*
X0158950Y0084533D03*
X0158950Y0084633D03*
X0158950Y0084733D03*
X0158950Y0084833D03*
X0158950Y0084933D03*
X0158950Y0085033D03*
X0158950Y0085133D03*
X0158950Y0085233D03*
X0158950Y0085333D03*
X0158950Y0085433D03*
X0158950Y0085533D03*
X0153550Y0089333D03*
X0153550Y0089433D03*
X0153550Y0089533D03*
X0153550Y0089633D03*
X0153550Y0089733D03*
X0153550Y0089833D03*
X0153550Y0089933D03*
X0153550Y0090033D03*
X0153050Y0090733D03*
X0153050Y0090833D03*
X0153050Y0090933D03*
X0156250Y0094633D03*
X0160250Y0095033D03*
X0160250Y0095133D03*
X0160250Y0095233D03*
X0160250Y0095333D03*
X0160250Y0095433D03*
X0158050Y0101833D03*
X0153050Y0105833D03*
X0153050Y0105933D03*
X0153050Y0106033D03*
X0153050Y0106133D03*
X0153050Y0106233D03*
X0153050Y0106333D03*
X0158950Y0108733D03*
X0158950Y0108833D03*
X0158950Y0108933D03*
X0159350Y0109133D03*
X0159350Y0109233D03*
X0159350Y0109333D03*
X0146750Y0116333D03*
X0146750Y0116433D03*
X0146750Y0116533D03*
X0142750Y0111133D03*
X0142750Y0111033D03*
X0142750Y0110933D03*
X0138250Y0110933D03*
X0138250Y0110833D03*
X0138250Y0110733D03*
X0138250Y0110633D03*
X0138250Y0110533D03*
X0138250Y0111033D03*
X0138250Y0111133D03*
X0138250Y0111233D03*
X0138250Y0111333D03*
X0138250Y0111433D03*
X0138250Y0111533D03*
X0138250Y0111633D03*
X0133250Y0111633D03*
X0133250Y0111533D03*
X0133250Y0111433D03*
X0132850Y0110733D03*
X0132850Y0110633D03*
X0132850Y0110533D03*
X0127850Y0116233D03*
X0128350Y0116633D03*
X0128350Y0116733D03*
X0128750Y0117133D03*
X0116650Y0087733D03*
X0116650Y0087633D03*
X0116650Y0087533D03*
X0116650Y0087433D03*
X0119750Y0070633D03*
X0119750Y0070533D03*
X0119750Y0070433D03*
X0116150Y0065433D03*
X0116150Y0065333D03*
X0127450Y0068233D03*
X0127450Y0068333D03*
X0127450Y0068433D03*
X0130550Y0070433D03*
X0130550Y0070533D03*
X0130550Y0070633D03*
X0131050Y0069933D03*
X0131050Y0069833D03*
X0133750Y0069433D03*
X0128350Y0065733D03*
X0128350Y0065633D03*
X0128350Y0065533D03*
X0138250Y0063133D03*
X0140450Y0069433D03*
X0140450Y0070033D03*
X0140450Y0070133D03*
X0140450Y0070233D03*
X0140950Y0070433D03*
X0140950Y0070533D03*
X0140950Y0070633D03*
X0142750Y0069733D03*
X0142750Y0069633D03*
X0142750Y0069533D03*
X0142750Y0069433D03*
X0145450Y0069833D03*
X0145450Y0069933D03*
X0149050Y0066733D03*
X0155750Y0068533D03*
X0155350Y0062133D03*
X0155350Y0062033D03*
X0155350Y0061933D03*
X0161650Y0076333D03*
X0161650Y0076433D03*
X0161650Y0076533D03*
D23*
X0158850Y0085633D03*
X0158850Y0085733D03*
X0158850Y0085833D03*
X0158850Y0085933D03*
X0158850Y0086033D03*
X0158850Y0086133D03*
X0158850Y0086233D03*
X0158850Y0086333D03*
X0158850Y0086433D03*
X0158850Y0086533D03*
X0153450Y0090133D03*
X0153150Y0090533D03*
X0153150Y0090633D03*
X0157950Y0095633D03*
X0157950Y0095733D03*
X0157950Y0095833D03*
X0162150Y0102733D03*
X0163050Y0103133D03*
X0163050Y0103233D03*
X0153450Y0106933D03*
X0153450Y0107033D03*
X0153450Y0107133D03*
X0153450Y0107233D03*
X0153450Y0107333D03*
X0153450Y0107433D03*
X0153450Y0107533D03*
X0153150Y0106833D03*
X0153150Y0106733D03*
X0153150Y0106633D03*
X0153150Y0106533D03*
X0153150Y0106433D03*
X0143550Y0103633D03*
X0142650Y0111233D03*
X0142650Y0111333D03*
X0142350Y0111433D03*
X0142350Y0111533D03*
X0142350Y0111633D03*
X0146250Y0117533D03*
X0146250Y0117633D03*
X0133650Y0111733D03*
X0128850Y0117233D03*
X0128850Y0117333D03*
X0128850Y0117433D03*
X0129150Y0117533D03*
X0129150Y0117633D03*
X0121650Y0106833D03*
X0121650Y0106733D03*
X0121650Y0106633D03*
X0121650Y0106533D03*
X0121650Y0106433D03*
X0121650Y0106333D03*
X0117450Y0106333D03*
X0117450Y0106433D03*
X0117450Y0106533D03*
X0117450Y0106633D03*
X0117150Y0106933D03*
X0117150Y0107033D03*
X0117150Y0107133D03*
X0117150Y0107233D03*
X0116550Y0109433D03*
X0116550Y0109533D03*
X0116550Y0109633D03*
X0116550Y0109733D03*
X0116550Y0109833D03*
X0116250Y0109933D03*
X0115650Y0103033D03*
X0115650Y0102933D03*
X0115650Y0102833D03*
X0117150Y0098533D03*
X0117150Y0098433D03*
X0117150Y0098333D03*
X0117450Y0098233D03*
X0120750Y0094033D03*
X0120750Y0093933D03*
X0120750Y0093833D03*
X0117150Y0088833D03*
X0117150Y0088733D03*
X0127350Y0080733D03*
X0127350Y0080633D03*
X0124650Y0075333D03*
X0124650Y0075233D03*
X0125250Y0074833D03*
X0125550Y0074233D03*
X0125550Y0074133D03*
X0125550Y0074033D03*
X0128250Y0069433D03*
X0130650Y0070333D03*
X0134250Y0063433D03*
X0134250Y0063333D03*
X0134250Y0063233D03*
X0136950Y0063133D03*
X0138750Y0069533D03*
X0138750Y0069633D03*
X0138750Y0069733D03*
X0138750Y0069833D03*
X0138750Y0069933D03*
X0143250Y0070333D03*
X0143550Y0070733D03*
X0143550Y0070833D03*
X0144150Y0069933D03*
X0144150Y0069833D03*
X0146850Y0067933D03*
X0146850Y0067833D03*
X0146850Y0067733D03*
X0148650Y0066633D03*
X0148650Y0066533D03*
X0148650Y0066433D03*
X0147150Y0064033D03*
X0155850Y0068033D03*
X0155850Y0068133D03*
X0155850Y0068233D03*
X0155850Y0068333D03*
X0155850Y0068433D03*
X0156150Y0067633D03*
X0151650Y0080233D03*
X0153150Y0083033D03*
X0153150Y0083133D03*
X0153150Y0083233D03*
X0142650Y0083233D03*
X0142650Y0083133D03*
X0142650Y0083033D03*
X0136950Y0087833D03*
X0136950Y0087933D03*
X0133650Y0092833D03*
X0135150Y0102833D03*
X0135150Y0102933D03*
X0135150Y0103033D03*
X0132750Y0103733D03*
X0132750Y0103833D03*
X0132750Y0103933D03*
X0132450Y0104233D03*
X0132450Y0104333D03*
X0132450Y0104433D03*
X0119850Y0070833D03*
X0119850Y0070733D03*
X0116250Y0065233D03*
X0116250Y0065133D03*
X0116250Y0065033D03*
X0116550Y0064933D03*
X0116550Y0064833D03*
X0116550Y0064733D03*
X0116550Y0064633D03*
X0110250Y0063633D03*
X0110250Y0063533D03*
X0110250Y0063433D03*
X0110250Y0063333D03*
X0110250Y0063233D03*
X0110250Y0063133D03*
X0110250Y0063033D03*
X0110250Y0062933D03*
X0110250Y0062833D03*
D24*
X0111000Y0066733D03*
X0111900Y0069433D03*
X0111900Y0069533D03*
X0111900Y0069633D03*
X0111900Y0069733D03*
X0111900Y0069833D03*
X0111900Y0069933D03*
X0120900Y0073933D03*
X0120900Y0074033D03*
X0120900Y0074133D03*
X0120900Y0074233D03*
X0120900Y0074333D03*
X0120900Y0074433D03*
X0131700Y0069033D03*
X0131700Y0068933D03*
X0135300Y0067233D03*
X0135300Y0067133D03*
X0147900Y0066333D03*
X0147900Y0066233D03*
X0158700Y0068233D03*
X0158700Y0068333D03*
X0158700Y0068433D03*
X0161400Y0063133D03*
X0147900Y0089233D03*
X0147900Y0095033D03*
X0147900Y0095133D03*
X0137100Y0088333D03*
X0121800Y0102233D03*
X0121800Y0102333D03*
X0120900Y0103133D03*
X0120900Y0103233D03*
X0119100Y0104533D03*
X0118200Y0104933D03*
X0118200Y0105033D03*
X0119100Y0100933D03*
X0125400Y0114133D03*
X0125400Y0114233D03*
X0125400Y0114333D03*
X0147900Y0110433D03*
X0147900Y0110333D03*
X0147900Y0110233D03*
X0147900Y0110133D03*
X0147900Y0110033D03*
X0147900Y0109933D03*
X0147900Y0109833D03*
X0147900Y0109733D03*
X0147900Y0109633D03*
X0147900Y0109533D03*
X0147900Y0109433D03*
X0147900Y0109333D03*
X0147900Y0109233D03*
X0147900Y0109133D03*
X0148800Y0114533D03*
X0148800Y0114633D03*
X0148800Y0114733D03*
D25*
X0115050Y0093333D03*
X0115050Y0093233D03*
X0140250Y0063133D03*
X0154650Y0070733D03*
X0154650Y0070833D03*
X0154650Y0070933D03*
X0154650Y0071033D03*
X0154650Y0071133D03*
X0154650Y0071233D03*
X0154650Y0071333D03*
X0154650Y0071433D03*
X0154650Y0071533D03*
X0154650Y0071633D03*
X0154650Y0071733D03*
D26*
X0153750Y0070333D03*
X0153750Y0070233D03*
X0153750Y0070133D03*
X0153750Y0070033D03*
X0151050Y0068433D03*
X0151050Y0068333D03*
X0151050Y0068233D03*
X0156450Y0066733D03*
X0160050Y0065733D03*
X0160050Y0065633D03*
X0160050Y0065533D03*
X0160050Y0065433D03*
X0160050Y0065333D03*
X0163650Y0063433D03*
X0163650Y0063333D03*
X0163650Y0063233D03*
X0144750Y0070933D03*
X0144750Y0071033D03*
X0144750Y0071133D03*
X0143850Y0071233D03*
X0143850Y0071333D03*
X0143850Y0071433D03*
X0143850Y0071533D03*
X0142050Y0069933D03*
X0142050Y0069833D03*
X0133050Y0070033D03*
X0133050Y0070133D03*
X0133050Y0070233D03*
X0130350Y0070733D03*
X0130350Y0070833D03*
X0127650Y0069933D03*
X0127650Y0069833D03*
X0126750Y0073033D03*
X0125850Y0073633D03*
X0125850Y0073733D03*
X0125850Y0073833D03*
X0124050Y0075733D03*
X0119550Y0069933D03*
X0119550Y0069833D03*
X0149250Y0092333D03*
X0149250Y0092433D03*
X0152850Y0091333D03*
X0152850Y0091233D03*
X0152850Y0091133D03*
X0150150Y0097033D03*
X0150150Y0097133D03*
X0150150Y0097233D03*
X0143850Y0104233D03*
X0143850Y0104333D03*
X0143850Y0104433D03*
X0142050Y0111833D03*
X0142050Y0111933D03*
X0142050Y0112033D03*
X0153750Y0108433D03*
X0153750Y0108333D03*
X0153750Y0108233D03*
X0160050Y0109933D03*
X0129450Y0118033D03*
X0129450Y0118133D03*
X0129450Y0118233D03*
X0129450Y0118333D03*
X0115950Y0110733D03*
X0115950Y0110633D03*
X0115950Y0110533D03*
X0116850Y0108633D03*
X0116850Y0108533D03*
X0116850Y0108433D03*
X0116850Y0108333D03*
X0116850Y0108233D03*
X0115050Y0103633D03*
X0116850Y0098733D03*
X0116850Y0098633D03*
D27*
X0119450Y0100633D03*
X0119450Y0100733D03*
X0119450Y0100833D03*
X0119950Y0104033D03*
X0119950Y0104133D03*
X0124150Y0103233D03*
X0124150Y0103133D03*
X0127550Y0108533D03*
X0127550Y0108633D03*
X0127550Y0108733D03*
X0127550Y0108833D03*
X0127550Y0108933D03*
X0127550Y0109033D03*
X0126350Y0115033D03*
X0126350Y0115133D03*
X0126350Y0115233D03*
X0138050Y0101833D03*
X0147550Y0108533D03*
X0147550Y0108633D03*
X0147850Y0109033D03*
X0147950Y0110533D03*
X0147950Y0110633D03*
X0147950Y0110733D03*
X0148250Y0111233D03*
X0148250Y0111333D03*
X0148450Y0111733D03*
X0148750Y0112133D03*
X0148750Y0112233D03*
X0148850Y0112333D03*
X0148850Y0112433D03*
X0148850Y0112533D03*
X0149150Y0112633D03*
X0149350Y0112733D03*
X0149350Y0112833D03*
X0149350Y0112933D03*
X0149650Y0113233D03*
X0149650Y0113333D03*
X0149650Y0113433D03*
X0149750Y0113533D03*
X0149150Y0114433D03*
X0154550Y0102633D03*
X0154550Y0102533D03*
X0154550Y0102433D03*
X0154250Y0102333D03*
X0154250Y0102233D03*
X0154150Y0102133D03*
X0154150Y0102033D03*
X0154150Y0101933D03*
X0158750Y0100333D03*
X0158750Y0100233D03*
X0158750Y0100133D03*
X0148250Y0094633D03*
X0138550Y0087733D03*
X0138550Y0087633D03*
X0138550Y0087533D03*
X0127250Y0081133D03*
X0120950Y0075333D03*
X0120950Y0075233D03*
X0120950Y0075133D03*
X0120950Y0075033D03*
X0120950Y0074933D03*
X0120950Y0074833D03*
X0120950Y0074733D03*
X0120950Y0074633D03*
X0120950Y0074533D03*
X0120850Y0073833D03*
X0120850Y0073733D03*
X0120850Y0073633D03*
X0120850Y0073533D03*
X0120850Y0073433D03*
X0120850Y0073333D03*
X0120850Y0073233D03*
X0120850Y0073133D03*
X0120850Y0073033D03*
X0120850Y0072933D03*
X0120850Y0072833D03*
X0120850Y0072733D03*
X0114650Y0071733D03*
X0114650Y0071633D03*
X0114650Y0071533D03*
X0114650Y0071433D03*
X0114650Y0071333D03*
X0112250Y0071233D03*
X0112250Y0071133D03*
X0112250Y0071033D03*
X0112250Y0070933D03*
X0111050Y0067033D03*
X0111050Y0066933D03*
X0111050Y0066833D03*
X0110950Y0066633D03*
X0110950Y0066533D03*
X0110950Y0066433D03*
X0131750Y0068633D03*
X0131750Y0068733D03*
X0131750Y0068833D03*
X0132050Y0068533D03*
X0132250Y0068433D03*
X0132250Y0068333D03*
X0132250Y0068233D03*
X0134750Y0071833D03*
X0134750Y0071933D03*
X0134750Y0072033D03*
X0146050Y0063933D03*
X0146050Y0063833D03*
X0146050Y0063733D03*
X0154750Y0071833D03*
X0154750Y0071933D03*
X0154750Y0072033D03*
X0154750Y0072133D03*
X0154550Y0073133D03*
X0154550Y0073233D03*
X0154550Y0073333D03*
X0158150Y0070633D03*
X0158150Y0070533D03*
X0158150Y0070433D03*
X0158150Y0070333D03*
X0158150Y0070233D03*
X0158150Y0070133D03*
X0158150Y0070033D03*
X0158350Y0069933D03*
X0158350Y0069833D03*
X0158350Y0069733D03*
X0158350Y0069633D03*
X0158350Y0069533D03*
X0159050Y0066633D03*
X0159050Y0066533D03*
X0159050Y0066433D03*
X0159050Y0066333D03*
X0159050Y0066233D03*
X0158650Y0065833D03*
X0161750Y0063933D03*
X0161750Y0063833D03*
X0161750Y0063733D03*
X0161450Y0063433D03*
X0161450Y0063333D03*
X0161450Y0063233D03*
X0162250Y0066433D03*
X0162250Y0066533D03*
X0162250Y0066633D03*
X0162250Y0066733D03*
X0161750Y0069133D03*
X0161750Y0069233D03*
X0161750Y0069333D03*
X0161750Y0069433D03*
X0161750Y0069533D03*
X0161750Y0069633D03*
X0161750Y0069733D03*
X0161750Y0069833D03*
X0161750Y0069933D03*
D28*
X0152550Y0088033D03*
X0152550Y0088133D03*
X0152550Y0088233D03*
X0148950Y0090533D03*
X0148950Y0090633D03*
X0141450Y0076933D03*
X0141450Y0076833D03*
X0141450Y0076733D03*
X0135150Y0079433D03*
X0135150Y0079533D03*
X0135150Y0079633D03*
X0134550Y0072933D03*
X0134550Y0072833D03*
X0134550Y0072733D03*
X0139950Y0063433D03*
X0139950Y0063333D03*
X0139950Y0063233D03*
X0115650Y0076133D03*
X0115650Y0076233D03*
X0115350Y0075733D03*
X0113850Y0072933D03*
X0113850Y0072833D03*
X0113850Y0072733D03*
X0113550Y0072133D03*
X0113550Y0072033D03*
X0113550Y0071933D03*
X0113550Y0071833D03*
X0124350Y0089333D03*
X0124350Y0089433D03*
X0124350Y0089533D03*
X0126450Y0090233D03*
X0126450Y0090333D03*
X0126450Y0090433D03*
X0127350Y0092533D03*
X0127350Y0092633D03*
X0127350Y0092733D03*
X0120150Y0097333D03*
X0146850Y0107633D03*
X0146850Y0107733D03*
D29*
X0147700Y0108733D03*
X0147700Y0108833D03*
X0147700Y0108933D03*
X0148100Y0110833D03*
X0148100Y0110933D03*
X0148100Y0111033D03*
X0148100Y0111133D03*
X0148600Y0111833D03*
X0148600Y0111933D03*
X0148600Y0112033D03*
X0143200Y0108633D03*
X0143200Y0108533D03*
X0138200Y0108533D03*
X0138200Y0108433D03*
X0138200Y0108333D03*
X0138200Y0108233D03*
X0138200Y0108633D03*
X0138200Y0108733D03*
X0138200Y0108833D03*
X0138200Y0108933D03*
X0138200Y0109033D03*
X0138200Y0106333D03*
X0127400Y0109133D03*
X0127400Y0109233D03*
X0127400Y0109333D03*
X0127400Y0109433D03*
X0127400Y0109533D03*
X0127000Y0115433D03*
X0127000Y0115533D03*
X0127000Y0115633D03*
X0123800Y0103633D03*
X0121600Y0102633D03*
X0121600Y0102533D03*
X0121600Y0102433D03*
X0121100Y0102833D03*
X0121100Y0102933D03*
X0121100Y0103033D03*
X0120700Y0103333D03*
X0120700Y0103433D03*
X0120700Y0103533D03*
X0120200Y0103733D03*
X0120200Y0103833D03*
X0120200Y0103933D03*
X0118900Y0101233D03*
X0118900Y0101133D03*
X0118900Y0101033D03*
X0148100Y0094933D03*
X0148100Y0094833D03*
X0148100Y0094733D03*
X0148600Y0094233D03*
X0148600Y0094133D03*
X0148600Y0094033D03*
X0148600Y0093933D03*
X0148600Y0093833D03*
X0157600Y0101333D03*
X0157600Y0101433D03*
X0151300Y0102433D03*
X0151300Y0102533D03*
X0151300Y0102633D03*
X0161600Y0089133D03*
X0161600Y0089033D03*
X0161600Y0088933D03*
X0158500Y0069433D03*
X0158500Y0069333D03*
X0158500Y0069233D03*
X0158500Y0069133D03*
X0158500Y0069033D03*
X0158500Y0068933D03*
X0162100Y0067533D03*
X0162100Y0067433D03*
X0162100Y0067333D03*
X0162100Y0067233D03*
X0162100Y0067133D03*
X0162100Y0067033D03*
X0162100Y0066933D03*
X0162100Y0066833D03*
X0158500Y0065733D03*
X0158500Y0065633D03*
X0158500Y0065533D03*
X0161600Y0063633D03*
X0161600Y0063533D03*
X0147200Y0065833D03*
X0140900Y0068933D03*
X0140900Y0069033D03*
X0133700Y0063633D03*
X0133700Y0063533D03*
X0131500Y0069133D03*
X0131500Y0069233D03*
X0131500Y0069333D03*
X0129700Y0068433D03*
X0129700Y0068333D03*
X0129700Y0068233D03*
X0115300Y0068233D03*
X0115300Y0068333D03*
X0115300Y0068433D03*
X0114800Y0070433D03*
X0114800Y0070533D03*
X0114800Y0070633D03*
X0114800Y0070733D03*
X0114800Y0070833D03*
X0114800Y0070933D03*
X0114800Y0071033D03*
X0114800Y0071133D03*
X0114800Y0071233D03*
X0112100Y0070833D03*
X0112100Y0070733D03*
X0112100Y0070633D03*
X0112100Y0070533D03*
X0112100Y0070433D03*
X0112100Y0070333D03*
X0111700Y0068533D03*
X0111200Y0067233D03*
X0111200Y0067133D03*
D30*
X0122250Y0088033D03*
X0122250Y0088133D03*
X0122250Y0088233D03*
X0139350Y0063633D03*
X0139350Y0063533D03*
X0159150Y0073933D03*
X0159150Y0074033D03*
X0159150Y0074133D03*
X0159150Y0074233D03*
D31*
X0137700Y0091433D03*
X0137700Y0091533D03*
X0137400Y0063933D03*
X0137400Y0063833D03*
X0137400Y0063733D03*
D32*
X0127200Y0081533D03*
X0127200Y0081633D03*
X0129000Y0093833D03*
X0129000Y0093933D03*
X0129000Y0094033D03*
X0129000Y0094133D03*
X0129000Y0094233D03*
X0138000Y0103133D03*
X0138000Y0103233D03*
X0138000Y0103333D03*
X0138000Y0103433D03*
X0138000Y0103533D03*
X0162300Y0064033D03*
D33*
X0144750Y0064033D03*
X0120450Y0077633D03*
X0120450Y0077733D03*
X0120450Y0077833D03*
D34*
X0137100Y0064033D03*
D35*
X0134500Y0072233D03*
X0134500Y0072333D03*
X0134500Y0072433D03*
X0138800Y0077933D03*
X0138800Y0078033D03*
X0137200Y0088733D03*
X0137200Y0088833D03*
X0128900Y0093733D03*
X0128600Y0093633D03*
X0128600Y0093533D03*
X0128600Y0093433D03*
X0122600Y0096133D03*
X0122600Y0096233D03*
X0122600Y0096333D03*
X0117400Y0101833D03*
X0115400Y0092433D03*
X0115400Y0092333D03*
X0128000Y0108233D03*
X0128000Y0108333D03*
X0128000Y0108433D03*
X0137900Y0103033D03*
X0137900Y0102933D03*
X0137900Y0102833D03*
X0120400Y0078033D03*
X0120400Y0077933D03*
X0120500Y0077533D03*
X0120800Y0077133D03*
X0120800Y0077033D03*
X0120800Y0076933D03*
X0120800Y0076833D03*
X0120800Y0076733D03*
X0121000Y0076633D03*
X0161300Y0071733D03*
X0161300Y0071633D03*
X0161300Y0071533D03*
X0161300Y0071433D03*
X0161300Y0071333D03*
X0162400Y0064933D03*
X0162400Y0064833D03*
X0162400Y0064733D03*
X0162400Y0064633D03*
X0162400Y0064533D03*
X0162400Y0064433D03*
X0162400Y0064333D03*
X0162400Y0064233D03*
X0162400Y0064133D03*
D36*
X0138650Y0064133D03*
X0138650Y0064233D03*
X0138650Y0064333D03*
D37*
X0138000Y0064433D03*
X0138000Y0064533D03*
D38*
X0138000Y0064633D03*
X0138000Y0064733D03*
X0138000Y0064833D03*
D39*
X0137950Y0064933D03*
D40*
X0140250Y0069533D03*
X0140250Y0069633D03*
X0140250Y0069733D03*
X0143850Y0069033D03*
X0143850Y0068933D03*
X0149250Y0067033D03*
X0149250Y0066933D03*
X0149250Y0066833D03*
X0155550Y0068633D03*
X0155550Y0068733D03*
X0155550Y0068833D03*
X0155550Y0068933D03*
X0155550Y0069033D03*
X0149250Y0093433D03*
X0149250Y0093533D03*
X0149250Y0093633D03*
X0150150Y0096833D03*
X0150150Y0096933D03*
X0159150Y0109033D03*
X0142950Y0110333D03*
X0142950Y0110433D03*
X0142950Y0110533D03*
X0142950Y0110633D03*
X0142950Y0110733D03*
X0133050Y0110933D03*
X0133050Y0111033D03*
X0133050Y0111133D03*
X0128550Y0116833D03*
X0128550Y0116933D03*
X0128550Y0117033D03*
X0133050Y0103533D03*
X0133050Y0103433D03*
X0133050Y0103333D03*
X0128550Y0069333D03*
X0128550Y0069233D03*
X0128550Y0069133D03*
X0115950Y0066333D03*
X0115950Y0066233D03*
X0115950Y0066133D03*
X0115950Y0066033D03*
X0115950Y0065933D03*
X0115950Y0065833D03*
X0110550Y0065233D03*
X0110550Y0065133D03*
X0110550Y0065033D03*
X0110550Y0064933D03*
D41*
X0117300Y0101933D03*
X0117300Y0102033D03*
X0117300Y0102133D03*
X0138000Y0102433D03*
X0138000Y0102533D03*
X0138000Y0102633D03*
X0138000Y0102733D03*
X0157800Y0072433D03*
X0157800Y0072333D03*
X0157800Y0072233D03*
X0157800Y0072133D03*
X0157800Y0072033D03*
X0157800Y0071933D03*
X0157800Y0071833D03*
X0161400Y0071233D03*
X0162300Y0065233D03*
X0162300Y0065133D03*
X0162300Y0065033D03*
D42*
X0162450Y0065333D03*
X0162450Y0065433D03*
X0162450Y0065533D03*
X0162450Y0065633D03*
X0162450Y0065733D03*
X0161550Y0070733D03*
X0161550Y0070833D03*
X0161550Y0070933D03*
X0161550Y0071033D03*
X0161550Y0071133D03*
X0157950Y0071233D03*
X0157950Y0071333D03*
X0157950Y0071433D03*
X0157950Y0071533D03*
X0157950Y0071633D03*
X0157950Y0071733D03*
X0145950Y0065233D03*
X0145950Y0065133D03*
X0145950Y0065033D03*
X0144150Y0068533D03*
X0141450Y0068633D03*
X0141450Y0068733D03*
X0141450Y0068833D03*
X0134550Y0072133D03*
X0127350Y0081233D03*
X0127350Y0081333D03*
X0127350Y0081433D03*
X0148050Y0103133D03*
X0148050Y0103233D03*
X0155250Y0103233D03*
X0155250Y0103133D03*
D43*
X0135600Y0065233D03*
X0135600Y0065133D03*
X0135600Y0065033D03*
D44*
X0134850Y0071633D03*
X0134850Y0071733D03*
X0146550Y0065433D03*
X0146550Y0065333D03*
X0154650Y0072233D03*
X0154650Y0072333D03*
X0154650Y0072433D03*
X0154650Y0072533D03*
X0154650Y0072633D03*
X0154650Y0072733D03*
X0154650Y0072833D03*
X0154650Y0072933D03*
X0154650Y0073033D03*
X0161850Y0069033D03*
X0161850Y0068933D03*
X0161850Y0068833D03*
X0161850Y0068733D03*
X0161850Y0068633D03*
X0161850Y0068533D03*
X0161850Y0068433D03*
X0161850Y0068333D03*
X0161850Y0068233D03*
X0161850Y0068133D03*
X0161850Y0068033D03*
X0148350Y0094333D03*
X0148350Y0094433D03*
X0148350Y0094533D03*
X0155550Y0103633D03*
X0148350Y0111433D03*
X0148350Y0111533D03*
X0148350Y0111633D03*
X0148350Y0114833D03*
X0148350Y0114933D03*
X0126750Y0115333D03*
X0119550Y0104433D03*
X0119550Y0104333D03*
X0119550Y0104233D03*
X0118650Y0104633D03*
X0118650Y0104733D03*
X0118650Y0104833D03*
X0120450Y0103633D03*
X0121350Y0102733D03*
X0125850Y0095133D03*
X0125850Y0095033D03*
X0115950Y0092233D03*
X0115950Y0092133D03*
X0115950Y0092033D03*
X0115050Y0093433D03*
X0115050Y0093533D03*
X0115050Y0093633D03*
X0115050Y0093733D03*
X0112350Y0071733D03*
X0112350Y0071633D03*
X0112350Y0071533D03*
X0112350Y0071433D03*
X0112350Y0071333D03*
X0115050Y0069933D03*
X0115050Y0069833D03*
X0115050Y0069733D03*
X0115050Y0069633D03*
X0115050Y0069533D03*
X0115050Y0069433D03*
X0115050Y0069333D03*
X0115050Y0069233D03*
X0115050Y0069133D03*
X0111450Y0067633D03*
D45*
X0135350Y0065433D03*
X0135350Y0065333D03*
D46*
X0136200Y0065533D03*
X0136200Y0065633D03*
X0136200Y0065733D03*
D47*
X0129900Y0068033D03*
X0129900Y0068133D03*
X0144300Y0068633D03*
X0144300Y0068733D03*
X0144300Y0068833D03*
X0162300Y0066333D03*
X0162300Y0066233D03*
X0162300Y0066133D03*
X0162300Y0066033D03*
X0162300Y0065933D03*
X0162300Y0065833D03*
X0137100Y0088433D03*
X0137100Y0088533D03*
X0137100Y0088633D03*
X0138000Y0101933D03*
X0138000Y0102033D03*
X0138000Y0102133D03*
X0123600Y0095533D03*
X0125400Y0114433D03*
X0155100Y0103033D03*
X0155100Y0102933D03*
X0155100Y0102833D03*
D48*
X0137000Y0065833D03*
D49*
X0132400Y0068033D03*
X0132400Y0068133D03*
X0121100Y0075433D03*
X0121100Y0075533D03*
X0121100Y0075633D03*
X0121100Y0075733D03*
X0121100Y0075833D03*
X0121100Y0075933D03*
X0121100Y0076033D03*
X0121100Y0076133D03*
X0121100Y0076233D03*
X0127000Y0095533D03*
X0126100Y0114833D03*
X0126100Y0114933D03*
X0149500Y0113133D03*
X0149500Y0113033D03*
X0149900Y0113633D03*
X0149900Y0113733D03*
X0149900Y0113833D03*
X0155300Y0103533D03*
X0155300Y0103433D03*
X0155300Y0103333D03*
X0154900Y0102733D03*
X0151700Y0093133D03*
X0151700Y0093033D03*
X0151700Y0092933D03*
X0154400Y0074733D03*
X0154400Y0074633D03*
X0154400Y0074533D03*
X0154400Y0074433D03*
X0154400Y0074333D03*
X0154400Y0074233D03*
X0154400Y0074133D03*
X0154400Y0074033D03*
X0154400Y0073933D03*
X0154400Y0073833D03*
X0154400Y0073733D03*
X0154400Y0073633D03*
X0154400Y0073533D03*
X0154400Y0073433D03*
X0158000Y0071133D03*
X0158000Y0071033D03*
X0158000Y0070933D03*
X0158000Y0070833D03*
X0158000Y0070733D03*
X0161600Y0070633D03*
X0161600Y0070533D03*
X0161600Y0070433D03*
X0161600Y0070333D03*
X0161600Y0070233D03*
X0161600Y0070133D03*
X0161600Y0070033D03*
X0158900Y0066133D03*
X0158900Y0066033D03*
X0158900Y0065933D03*
D50*
X0137250Y0065933D03*
X0137250Y0066033D03*
X0137250Y0066133D03*
D51*
X0137250Y0066233D03*
X0137250Y0066333D03*
D52*
X0137350Y0066433D03*
X0137350Y0066533D03*
X0137350Y0066633D03*
X0145850Y0100433D03*
X0145850Y0100533D03*
X0129250Y0101033D03*
X0129250Y0101133D03*
X0129250Y0101233D03*
D53*
X0137700Y0094533D03*
X0137700Y0094433D03*
X0137700Y0094333D03*
X0141300Y0066733D03*
D54*
X0141300Y0068033D03*
X0141300Y0068133D03*
X0132900Y0066733D03*
X0157500Y0075433D03*
X0157500Y0075533D03*
X0157500Y0075633D03*
X0137700Y0093833D03*
X0137700Y0093933D03*
X0137700Y0094033D03*
D55*
X0141600Y0067033D03*
X0141600Y0066933D03*
X0141600Y0066833D03*
D56*
X0132600Y0066833D03*
X0132600Y0066933D03*
X0132600Y0067033D03*
X0157800Y0077233D03*
X0157800Y0077333D03*
X0157800Y0077433D03*
X0157800Y0078433D03*
X0138000Y0092533D03*
X0138000Y0092633D03*
X0138000Y0092733D03*
D57*
X0141800Y0067233D03*
X0141800Y0067133D03*
D58*
X0134700Y0073133D03*
X0134700Y0073233D03*
X0134700Y0073333D03*
X0131100Y0067533D03*
X0131100Y0067433D03*
X0131100Y0067333D03*
X0131400Y0067233D03*
X0131400Y0067133D03*
X0156600Y0080833D03*
X0156600Y0080933D03*
X0156600Y0081033D03*
X0153600Y0097433D03*
X0153600Y0097533D03*
X0153600Y0097633D03*
D59*
X0137550Y0092233D03*
X0137550Y0092133D03*
X0137550Y0092033D03*
X0142050Y0067533D03*
X0142050Y0067433D03*
X0142050Y0067333D03*
D60*
X0141150Y0067633D03*
X0141150Y0067733D03*
X0141150Y0067833D03*
X0141150Y0067933D03*
X0157350Y0075733D03*
X0157350Y0075833D03*
X0157350Y0075933D03*
X0157350Y0076033D03*
D61*
X0158700Y0074733D03*
X0158700Y0074633D03*
X0158700Y0074533D03*
X0153300Y0097733D03*
X0153300Y0097833D03*
X0121800Y0098333D03*
X0121800Y0098433D03*
X0121800Y0098533D03*
X0122700Y0088833D03*
X0122700Y0088733D03*
X0130800Y0067633D03*
D62*
X0130550Y0067733D03*
X0130550Y0067833D03*
X0130550Y0067933D03*
X0118450Y0081533D03*
X0118450Y0081633D03*
X0122450Y0088433D03*
X0122450Y0088533D03*
X0122450Y0088633D03*
X0126550Y0102433D03*
X0126550Y0102533D03*
X0126550Y0102633D03*
X0137350Y0090133D03*
X0149950Y0089533D03*
X0149950Y0089433D03*
X0149950Y0089333D03*
X0158950Y0074433D03*
X0158950Y0074333D03*
X0159350Y0073833D03*
X0159350Y0073733D03*
X0159350Y0073633D03*
X0159350Y0073333D03*
X0159350Y0073233D03*
X0159350Y0073133D03*
X0142250Y0106333D03*
D63*
X0145100Y0107233D03*
X0148900Y0102333D03*
X0148900Y0102233D03*
X0122300Y0088333D03*
X0142000Y0068433D03*
X0142000Y0068333D03*
X0142000Y0068233D03*
X0159500Y0072533D03*
X0159500Y0072633D03*
X0159500Y0072733D03*
X0159500Y0072833D03*
X0159500Y0072933D03*
X0159500Y0073033D03*
D64*
X0141350Y0068533D03*
X0138250Y0087133D03*
X0138250Y0087233D03*
X0138250Y0087333D03*
X0150350Y0095233D03*
X0150350Y0095333D03*
X0150350Y0095433D03*
X0156250Y0100133D03*
X0156250Y0100233D03*
X0156250Y0100333D03*
X0149950Y0114133D03*
X0149950Y0114233D03*
X0149950Y0114333D03*
X0138250Y0102333D03*
X0138250Y0102233D03*
X0127450Y0103333D03*
X0127450Y0103433D03*
X0127450Y0103533D03*
X0122950Y0096033D03*
X0122950Y0095933D03*
X0115250Y0092733D03*
X0115250Y0092633D03*
X0115250Y0092533D03*
X0120250Y0078433D03*
X0120250Y0078333D03*
X0120250Y0078233D03*
X0120250Y0078133D03*
X0121150Y0076533D03*
X0121150Y0076433D03*
X0121150Y0076333D03*
D65*
X0120650Y0077233D03*
X0120650Y0077333D03*
X0120650Y0077433D03*
X0137750Y0083033D03*
X0137750Y0083133D03*
X0137750Y0083233D03*
X0129250Y0094333D03*
X0129250Y0094433D03*
X0129250Y0094533D03*
X0122050Y0096433D03*
X0117550Y0101533D03*
X0117550Y0101633D03*
X0117550Y0101733D03*
X0148150Y0102833D03*
X0148150Y0102933D03*
X0148150Y0103033D03*
X0161150Y0072133D03*
X0161150Y0072033D03*
X0161150Y0071933D03*
X0161150Y0071833D03*
D66*
X0161100Y0072233D03*
X0161100Y0072333D03*
X0161100Y0072433D03*
X0155700Y0082933D03*
X0155700Y0083033D03*
X0155700Y0083133D03*
X0155700Y0083233D03*
X0155700Y0083333D03*
X0155700Y0083433D03*
X0146700Y0092333D03*
X0146700Y0092433D03*
X0146400Y0092533D03*
X0146400Y0092633D03*
X0146400Y0092733D03*
X0145800Y0093433D03*
X0145800Y0093533D03*
X0145800Y0093633D03*
X0145500Y0093733D03*
X0138300Y0086433D03*
X0138300Y0086333D03*
X0138300Y0086233D03*
X0138600Y0086133D03*
X0138600Y0086033D03*
X0137400Y0082933D03*
X0138300Y0078333D03*
X0138300Y0078233D03*
X0138300Y0078133D03*
X0141300Y0076233D03*
X0141300Y0076133D03*
X0129600Y0094733D03*
X0129600Y0094833D03*
X0129600Y0094933D03*
X0129300Y0094633D03*
D67*
X0127200Y0092433D03*
X0127200Y0092333D03*
X0127200Y0091333D03*
X0127200Y0091233D03*
X0127200Y0091133D03*
X0136200Y0082333D03*
X0136200Y0082233D03*
X0136200Y0082133D03*
X0113700Y0072633D03*
X0113700Y0072533D03*
X0113700Y0072433D03*
X0113700Y0072333D03*
X0113700Y0072233D03*
D68*
X0134400Y0072533D03*
X0134400Y0072633D03*
X0138900Y0085633D03*
X0138000Y0086633D03*
X0138000Y0086733D03*
X0138000Y0086833D03*
X0145200Y0094333D03*
X0145200Y0094433D03*
X0145200Y0094533D03*
X0145200Y0094633D03*
X0145200Y0094733D03*
X0145200Y0094833D03*
X0145200Y0094933D03*
X0145200Y0095033D03*
X0145200Y0095133D03*
X0129900Y0095233D03*
X0129900Y0095333D03*
X0129900Y0095433D03*
X0129900Y0095533D03*
X0127200Y0103133D03*
X0127200Y0103233D03*
D69*
X0131550Y0106933D03*
X0131550Y0107033D03*
X0131550Y0107133D03*
X0138150Y0104533D03*
X0152250Y0094533D03*
X0152250Y0094433D03*
X0152250Y0094333D03*
X0154350Y0094733D03*
X0154350Y0094833D03*
X0154350Y0094933D03*
X0154950Y0095233D03*
X0154950Y0095333D03*
X0154950Y0095433D03*
X0151650Y0089233D03*
X0154350Y0085933D03*
X0154350Y0085833D03*
X0154350Y0085733D03*
X0154350Y0085633D03*
X0154050Y0085233D03*
X0154050Y0085133D03*
X0154050Y0085033D03*
X0154050Y0084933D03*
X0154050Y0084833D03*
X0154350Y0084633D03*
X0154350Y0084533D03*
X0154350Y0084433D03*
X0154350Y0084333D03*
X0154350Y0084233D03*
X0139650Y0084133D03*
X0139650Y0084033D03*
X0139650Y0083933D03*
X0137250Y0089633D03*
X0137250Y0089733D03*
X0133350Y0080233D03*
X0134550Y0073033D03*
X0120750Y0085333D03*
X0120750Y0085433D03*
X0120750Y0085533D03*
X0121050Y0085733D03*
X0121050Y0085833D03*
X0121050Y0085933D03*
D70*
X0124700Y0089633D03*
X0124700Y0089733D03*
X0127000Y0091633D03*
X0127000Y0091733D03*
X0127000Y0091833D03*
X0139600Y0084733D03*
X0140500Y0075633D03*
X0140500Y0075533D03*
X0140500Y0075433D03*
X0148600Y0091133D03*
X0148600Y0091233D03*
X0148600Y0091333D03*
X0152200Y0093733D03*
X0128300Y0108133D03*
X0113900Y0073033D03*
D71*
X0114150Y0073133D03*
X0114150Y0073233D03*
X0114150Y0073333D03*
X0114150Y0073433D03*
X0114150Y0073533D03*
X0135750Y0079333D03*
X0135750Y0082033D03*
X0142050Y0102733D03*
D72*
X0138150Y0104633D03*
X0138150Y0104733D03*
X0138150Y0104833D03*
X0126450Y0102733D03*
X0121950Y0087933D03*
X0121950Y0087833D03*
X0115350Y0077533D03*
X0135450Y0073533D03*
X0135450Y0073433D03*
X0136350Y0073633D03*
X0136350Y0073733D03*
X0136350Y0073833D03*
X0154050Y0086933D03*
X0154050Y0087033D03*
X0156750Y0080533D03*
X0156750Y0080433D03*
X0156750Y0080333D03*
X0156750Y0080233D03*
X0159450Y0073533D03*
X0159450Y0073433D03*
D73*
X0141550Y0076633D03*
X0140750Y0075733D03*
X0140350Y0077233D03*
X0140350Y0077333D03*
X0140350Y0077433D03*
X0136250Y0079033D03*
X0136250Y0079133D03*
X0136250Y0079233D03*
X0139450Y0084833D03*
X0139450Y0084933D03*
X0139450Y0085033D03*
X0139250Y0085133D03*
X0139250Y0085233D03*
X0137950Y0086933D03*
X0137950Y0087033D03*
X0137150Y0089233D03*
X0127150Y0091433D03*
X0127150Y0091533D03*
X0126850Y0091933D03*
X0127150Y0092033D03*
X0127150Y0092133D03*
X0127150Y0092233D03*
X0125050Y0090033D03*
X0125050Y0089933D03*
X0125050Y0089833D03*
X0138050Y0104033D03*
X0138050Y0104133D03*
X0148250Y0102733D03*
X0148750Y0090933D03*
X0148750Y0090833D03*
X0148750Y0090733D03*
X0114250Y0073833D03*
X0114250Y0073733D03*
X0114250Y0073633D03*
D74*
X0115700Y0077933D03*
X0115700Y0078033D03*
X0120700Y0084733D03*
X0120700Y0084833D03*
X0120700Y0084933D03*
X0120700Y0085033D03*
X0120700Y0085133D03*
X0120700Y0085233D03*
X0121100Y0098233D03*
X0144100Y0106733D03*
X0144100Y0106833D03*
X0146300Y0107333D03*
X0146300Y0107433D03*
X0146300Y0107533D03*
X0154400Y0096433D03*
X0154400Y0096333D03*
X0154400Y0096233D03*
X0154400Y0096133D03*
X0137300Y0073933D03*
D75*
X0139800Y0074933D03*
X0139800Y0075033D03*
X0139800Y0075133D03*
X0135300Y0081733D03*
X0135300Y0081833D03*
X0135300Y0081933D03*
X0127200Y0091033D03*
X0120000Y0097433D03*
X0120000Y0097533D03*
X0120000Y0097633D03*
X0138000Y0104233D03*
X0138000Y0104333D03*
X0138000Y0104433D03*
X0147900Y0091833D03*
X0147900Y0091733D03*
X0147900Y0091633D03*
X0152400Y0088333D03*
X0157800Y0100633D03*
X0157800Y0100733D03*
X0157800Y0100833D03*
X0115500Y0076033D03*
X0115500Y0075933D03*
X0115500Y0075833D03*
X0114600Y0073933D03*
D76*
X0120250Y0084233D03*
X0120250Y0084333D03*
X0120650Y0097933D03*
X0120650Y0098033D03*
X0120650Y0098133D03*
X0132350Y0106733D03*
X0132350Y0106833D03*
X0151750Y0089133D03*
X0151750Y0089033D03*
X0151750Y0088933D03*
X0157550Y0100433D03*
X0157550Y0100533D03*
X0139550Y0084333D03*
X0139550Y0084233D03*
X0134150Y0081133D03*
X0133750Y0080733D03*
X0133750Y0080633D03*
X0141350Y0077133D03*
X0141350Y0077033D03*
X0138250Y0074233D03*
X0138250Y0074133D03*
X0138250Y0074033D03*
D77*
X0139150Y0074533D03*
X0139150Y0074633D03*
X0139150Y0074733D03*
X0139550Y0084433D03*
X0139550Y0084533D03*
X0139550Y0084633D03*
X0137350Y0089333D03*
X0137350Y0089433D03*
X0137350Y0089533D03*
X0127450Y0092833D03*
X0127450Y0092933D03*
X0127450Y0093033D03*
X0127450Y0093133D03*
X0126950Y0090933D03*
X0126950Y0090833D03*
X0126950Y0090733D03*
X0115750Y0076633D03*
X0115750Y0076533D03*
X0115750Y0076433D03*
X0115750Y0076333D03*
X0115250Y0075633D03*
X0115250Y0075533D03*
X0115250Y0075433D03*
X0115250Y0075333D03*
X0115250Y0075233D03*
X0114850Y0074233D03*
X0114850Y0074133D03*
X0114850Y0074033D03*
X0142250Y0102433D03*
X0142250Y0102533D03*
X0142250Y0102633D03*
X0148150Y0102633D03*
X0148150Y0102533D03*
X0148150Y0102433D03*
X0158050Y0100933D03*
X0152150Y0094033D03*
X0152150Y0093933D03*
X0152150Y0093833D03*
X0152150Y0088633D03*
X0152150Y0088533D03*
X0152150Y0088433D03*
X0152650Y0087933D03*
X0152650Y0087833D03*
D78*
X0154300Y0085533D03*
X0154300Y0085433D03*
X0154300Y0085333D03*
X0149200Y0090233D03*
X0149200Y0090333D03*
X0149200Y0090433D03*
X0148300Y0091433D03*
X0148300Y0091533D03*
X0147500Y0091933D03*
X0147400Y0092033D03*
X0147400Y0092133D03*
X0147400Y0092233D03*
X0152300Y0094133D03*
X0152300Y0094233D03*
X0134900Y0081633D03*
X0134900Y0081533D03*
X0134500Y0081433D03*
X0134500Y0081333D03*
X0134500Y0081233D03*
X0138800Y0074433D03*
X0138800Y0074333D03*
X0139400Y0074833D03*
X0125900Y0090133D03*
X0127600Y0093233D03*
X0127600Y0093333D03*
X0121300Y0087033D03*
X0121300Y0086933D03*
X0121300Y0086833D03*
X0121300Y0086733D03*
X0121300Y0086633D03*
X0128600Y0107833D03*
X0128600Y0107933D03*
X0128600Y0108033D03*
X0133100Y0106633D03*
X0133100Y0106533D03*
X0133100Y0106433D03*
D79*
X0134100Y0102333D03*
X0134100Y0102233D03*
X0120300Y0097233D03*
X0120300Y0097133D03*
X0120300Y0097033D03*
X0116100Y0077433D03*
X0116100Y0077333D03*
X0116100Y0077233D03*
X0115800Y0076933D03*
X0115800Y0076833D03*
X0115800Y0076733D03*
X0114900Y0074733D03*
X0114900Y0074633D03*
X0114900Y0074533D03*
X0114900Y0074433D03*
X0114900Y0074333D03*
X0140100Y0075233D03*
X0140100Y0075333D03*
X0152700Y0087533D03*
X0152700Y0087633D03*
X0152700Y0087733D03*
X0153000Y0094633D03*
D80*
X0137600Y0094233D03*
X0137600Y0094133D03*
X0157900Y0076633D03*
X0157700Y0074833D03*
D81*
X0126750Y0090533D03*
X0126750Y0090633D03*
X0124050Y0089233D03*
X0115950Y0077133D03*
X0115950Y0077033D03*
X0115050Y0075133D03*
X0115050Y0075033D03*
X0115050Y0074933D03*
X0115050Y0074833D03*
D82*
X0117550Y0078533D03*
X0117550Y0078633D03*
X0117550Y0078733D03*
X0157550Y0075333D03*
X0157550Y0075233D03*
X0157550Y0075133D03*
X0157550Y0075033D03*
X0157550Y0074933D03*
D83*
X0141150Y0075833D03*
X0141150Y0075933D03*
X0141150Y0076033D03*
X0136650Y0082433D03*
X0136650Y0082533D03*
X0138450Y0083533D03*
X0138450Y0083633D03*
X0138450Y0083733D03*
X0142050Y0102833D03*
X0142050Y0102933D03*
X0142050Y0103033D03*
D84*
X0138350Y0104933D03*
X0138350Y0105033D03*
X0137650Y0093733D03*
X0157750Y0078933D03*
X0157750Y0078833D03*
X0157750Y0078733D03*
X0157750Y0078633D03*
X0157750Y0078533D03*
X0157250Y0076533D03*
X0157250Y0076433D03*
X0157250Y0076333D03*
X0157250Y0076233D03*
X0157250Y0076133D03*
X0117650Y0079033D03*
X0117650Y0079133D03*
X0117650Y0079233D03*
X0117650Y0079333D03*
X0117650Y0079433D03*
X0117650Y0079533D03*
X0117650Y0079633D03*
X0117650Y0080233D03*
X0117650Y0080333D03*
X0117650Y0080433D03*
X0117650Y0080533D03*
X0117650Y0080633D03*
X0117650Y0080733D03*
D85*
X0121650Y0096533D03*
X0121650Y0096633D03*
X0121650Y0096733D03*
X0137250Y0089133D03*
X0137250Y0089033D03*
X0137250Y0088933D03*
X0138750Y0085933D03*
X0138750Y0085833D03*
X0138750Y0085733D03*
X0138150Y0083433D03*
X0138150Y0083333D03*
X0136950Y0082833D03*
X0136950Y0082733D03*
X0136950Y0082633D03*
X0137850Y0078433D03*
X0139650Y0077533D03*
X0141450Y0076533D03*
X0141450Y0076433D03*
X0141450Y0076333D03*
X0146250Y0092833D03*
X0145950Y0092933D03*
X0145950Y0093033D03*
X0145950Y0093133D03*
X0145950Y0093233D03*
X0145950Y0093333D03*
X0138150Y0103633D03*
X0138150Y0103733D03*
X0138150Y0103833D03*
X0138150Y0103933D03*
D86*
X0157800Y0076933D03*
X0157800Y0076833D03*
X0157800Y0076733D03*
D87*
X0157950Y0077033D03*
X0157950Y0077133D03*
D88*
X0157800Y0077533D03*
X0157800Y0077633D03*
X0157800Y0077733D03*
X0157800Y0077833D03*
X0157800Y0078133D03*
X0157800Y0078233D03*
X0157800Y0078333D03*
D89*
X0151950Y0093233D03*
X0151950Y0093333D03*
X0147450Y0108133D03*
X0139350Y0077833D03*
X0139350Y0077733D03*
X0139350Y0077633D03*
D90*
X0149700Y0089633D03*
X0149700Y0089733D03*
X0154200Y0086833D03*
X0154200Y0086733D03*
X0154200Y0086633D03*
X0154200Y0086533D03*
X0126300Y0102833D03*
X0126300Y0102933D03*
X0126300Y0103033D03*
X0121800Y0087733D03*
X0121800Y0087633D03*
X0121800Y0087533D03*
X0115500Y0077833D03*
X0115500Y0077733D03*
X0115500Y0077633D03*
D91*
X0129750Y0107333D03*
X0129750Y0107433D03*
X0129750Y0107533D03*
X0157650Y0078033D03*
X0157650Y0077933D03*
D92*
X0156450Y0081733D03*
X0156450Y0081833D03*
X0156450Y0081933D03*
X0156450Y0082033D03*
X0156450Y0082133D03*
X0156450Y0082233D03*
X0156450Y0082333D03*
X0120450Y0084433D03*
X0120450Y0084533D03*
X0120450Y0084633D03*
X0118650Y0082933D03*
X0115950Y0078333D03*
X0115950Y0078233D03*
X0115950Y0078133D03*
D93*
X0116100Y0078433D03*
X0118800Y0083033D03*
X0118800Y0083133D03*
X0118800Y0083233D03*
X0118800Y0083833D03*
X0118800Y0083933D03*
X0118800Y0084033D03*
X0118800Y0084133D03*
X0121200Y0086033D03*
X0121200Y0086133D03*
X0121200Y0086233D03*
X0121200Y0086333D03*
X0121200Y0086433D03*
X0121500Y0087433D03*
X0142200Y0102233D03*
X0142200Y0102333D03*
X0154500Y0096033D03*
X0154500Y0095933D03*
X0154800Y0095833D03*
X0154800Y0095733D03*
X0154800Y0095633D03*
X0149400Y0090133D03*
X0154500Y0084133D03*
X0154500Y0084033D03*
X0154500Y0083933D03*
D94*
X0155800Y0082833D03*
X0155800Y0082733D03*
X0155800Y0082633D03*
X0155800Y0082533D03*
X0155800Y0082433D03*
X0148600Y0091033D03*
X0145400Y0093833D03*
X0145400Y0093933D03*
X0145400Y0094033D03*
X0145400Y0094133D03*
X0145400Y0094233D03*
X0138200Y0086533D03*
X0139100Y0085533D03*
X0139100Y0085433D03*
X0139100Y0085333D03*
X0136900Y0078933D03*
X0136900Y0078833D03*
X0137300Y0078733D03*
X0137300Y0078633D03*
X0137300Y0078533D03*
X0129700Y0095033D03*
X0129700Y0095133D03*
X0134200Y0102433D03*
X0134200Y0102533D03*
X0134200Y0102633D03*
X0147200Y0107833D03*
X0147200Y0107933D03*
X0147200Y0108033D03*
X0152200Y0093633D03*
X0152200Y0093533D03*
X0152200Y0093433D03*
X0121100Y0096833D03*
X0121100Y0096933D03*
D95*
X0137300Y0090633D03*
X0137300Y0090533D03*
X0117500Y0078933D03*
X0117500Y0078833D03*
D96*
X0118000Y0081233D03*
X0118000Y0081333D03*
X0118000Y0081433D03*
X0137800Y0093433D03*
X0137800Y0093533D03*
X0137800Y0093633D03*
X0157600Y0079233D03*
X0157600Y0079133D03*
X0157600Y0079033D03*
D97*
X0157500Y0079333D03*
X0157500Y0079433D03*
X0157500Y0079533D03*
X0157500Y0079633D03*
X0157200Y0079733D03*
X0157200Y0079833D03*
X0137700Y0093233D03*
X0137700Y0093333D03*
X0137400Y0090433D03*
X0137400Y0090333D03*
X0137400Y0090233D03*
D98*
X0133500Y0080533D03*
X0133500Y0080433D03*
X0133500Y0080333D03*
X0134400Y0079833D03*
X0134400Y0079733D03*
X0123600Y0088933D03*
X0123600Y0089033D03*
X0123600Y0089133D03*
X0120000Y0097733D03*
X0120000Y0097833D03*
D99*
X0117750Y0081133D03*
X0117750Y0081033D03*
X0117750Y0080933D03*
X0117750Y0080833D03*
X0117750Y0080133D03*
X0117750Y0080033D03*
X0117750Y0079933D03*
X0117750Y0079833D03*
X0117750Y0079733D03*
D100*
X0137750Y0092833D03*
X0137750Y0092933D03*
X0137750Y0093033D03*
X0137750Y0093133D03*
X0126550Y0102233D03*
X0126550Y0102333D03*
X0157150Y0080133D03*
X0157150Y0080033D03*
X0157150Y0079933D03*
D101*
X0156350Y0081533D03*
X0156350Y0081633D03*
X0154250Y0086033D03*
X0154250Y0086133D03*
X0154250Y0086233D03*
X0154250Y0086333D03*
X0154250Y0086433D03*
X0149650Y0089833D03*
X0149650Y0089933D03*
X0149650Y0090033D03*
X0155050Y0095533D03*
X0154150Y0096833D03*
X0154150Y0096933D03*
X0144650Y0106933D03*
X0144650Y0107033D03*
X0144650Y0107133D03*
X0133850Y0101833D03*
X0130850Y0107233D03*
X0137150Y0090033D03*
X0137150Y0089933D03*
X0137150Y0089833D03*
X0139750Y0083833D03*
X0133850Y0080133D03*
X0133850Y0080033D03*
X0133850Y0079933D03*
X0118750Y0082133D03*
X0118750Y0082233D03*
X0118750Y0082333D03*
X0118750Y0082433D03*
X0118750Y0082533D03*
X0118750Y0082633D03*
X0118750Y0082733D03*
X0118750Y0082833D03*
D102*
X0154000Y0097033D03*
X0154000Y0097133D03*
X0154000Y0097233D03*
X0156700Y0080733D03*
X0156700Y0080633D03*
D103*
X0154650Y0083533D03*
X0154650Y0083633D03*
X0154650Y0083733D03*
X0154650Y0083833D03*
X0151950Y0088733D03*
X0151950Y0088833D03*
X0154650Y0095033D03*
X0154650Y0095133D03*
X0133950Y0101933D03*
X0133950Y0102033D03*
X0133950Y0102133D03*
X0133950Y0106333D03*
X0121350Y0087333D03*
X0121350Y0087233D03*
X0121350Y0087133D03*
X0121350Y0086533D03*
X0118650Y0083733D03*
X0118650Y0083633D03*
X0118650Y0083533D03*
X0118650Y0083433D03*
X0118650Y0083333D03*
X0133950Y0081033D03*
X0133950Y0080933D03*
X0133950Y0080833D03*
D104*
X0118650Y0081733D03*
X0118650Y0081833D03*
X0118650Y0081933D03*
X0118650Y0082033D03*
X0153750Y0087133D03*
X0153750Y0087233D03*
X0153750Y0087333D03*
X0156450Y0081433D03*
X0156450Y0081333D03*
X0156450Y0081233D03*
X0156450Y0081133D03*
X0153750Y0097333D03*
D105*
X0154200Y0096733D03*
X0154200Y0096633D03*
X0154200Y0096533D03*
X0153300Y0087433D03*
X0154200Y0084733D03*
X0143400Y0106433D03*
X0143400Y0106533D03*
X0143400Y0106633D03*
X0129000Y0107633D03*
X0129000Y0107733D03*
X0120900Y0085633D03*
D106*
X0115200Y0092833D03*
X0115200Y0092933D03*
X0115200Y0093033D03*
X0115200Y0093133D03*
X0123300Y0095633D03*
X0123300Y0095733D03*
X0123300Y0095833D03*
X0126600Y0095433D03*
X0126600Y0095333D03*
X0126600Y0095233D03*
X0138300Y0087433D03*
X0157500Y0101033D03*
X0157500Y0101133D03*
X0157500Y0101233D03*
X0147600Y0108233D03*
X0147600Y0108333D03*
X0147600Y0108433D03*
X0150000Y0113933D03*
X0150000Y0114033D03*
X0125700Y0114533D03*
X0125700Y0114633D03*
X0125700Y0114733D03*
D107*
X0137350Y0090933D03*
X0137350Y0090833D03*
X0137350Y0090733D03*
D108*
X0137300Y0091033D03*
D109*
X0137350Y0091133D03*
X0137350Y0091233D03*
X0137350Y0091333D03*
X0137750Y0095033D03*
X0137750Y0095133D03*
D110*
X0137550Y0091933D03*
X0137550Y0091833D03*
X0137550Y0091733D03*
X0137550Y0091633D03*
X0138450Y0105433D03*
D111*
X0137550Y0092433D03*
X0137550Y0092333D03*
D112*
X0137650Y0094633D03*
X0125750Y0101833D03*
X0125450Y0101933D03*
X0125450Y0102033D03*
X0125450Y0102133D03*
D113*
X0137700Y0094933D03*
X0137700Y0094833D03*
X0137700Y0094733D03*
D114*
X0140650Y0095233D03*
X0140650Y0095333D03*
X0140650Y0095433D03*
X0129350Y0100633D03*
X0129350Y0100733D03*
X0129350Y0100833D03*
D115*
X0141800Y0095533D03*
D116*
X0138900Y0095633D03*
X0138900Y0095733D03*
X0138900Y0095833D03*
D117*
X0138000Y0095933D03*
X0138000Y0096033D03*
D118*
X0137550Y0096133D03*
X0137550Y0096233D03*
X0137550Y0096333D03*
D119*
X0137250Y0096433D03*
D120*
X0136650Y0096533D03*
X0136650Y0096633D03*
X0136650Y0096733D03*
D121*
X0136400Y0096833D03*
X0136400Y0096933D03*
D122*
X0137650Y0097033D03*
X0137650Y0097133D03*
X0137650Y0097233D03*
X0137950Y0097333D03*
X0137950Y0097433D03*
X0137950Y0097533D03*
X0137950Y0097633D03*
D123*
X0137850Y0097733D03*
X0137850Y0097833D03*
D124*
X0141150Y0097933D03*
X0141150Y0098033D03*
X0141150Y0098133D03*
D125*
X0140950Y0098233D03*
D126*
X0140800Y0098333D03*
X0140800Y0098433D03*
X0140800Y0098533D03*
D127*
X0137750Y0099233D03*
X0137750Y0099333D03*
X0137750Y0099433D03*
X0137350Y0098733D03*
X0137350Y0098633D03*
D128*
X0137400Y0098833D03*
X0137400Y0098933D03*
X0137400Y0099033D03*
X0137700Y0099133D03*
D129*
X0137750Y0099533D03*
X0137750Y0099633D03*
D130*
X0137850Y0099733D03*
X0137850Y0099833D03*
X0137850Y0099933D03*
D131*
X0138000Y0100033D03*
D132*
X0136200Y0100133D03*
X0136200Y0100233D03*
X0136200Y0100333D03*
D133*
X0128200Y0100433D03*
X0128200Y0100533D03*
D134*
X0129000Y0101533D03*
X0129000Y0101633D03*
X0129000Y0101733D03*
X0146100Y0100833D03*
X0146100Y0100733D03*
X0146100Y0100633D03*
D135*
X0146200Y0100933D03*
X0146500Y0101033D03*
X0146500Y0101133D03*
X0146500Y0101233D03*
X0146600Y0101333D03*
X0146600Y0101433D03*
X0146900Y0101533D03*
X0146900Y0101633D03*
X0146900Y0101733D03*
X0147100Y0101833D03*
X0129100Y0101433D03*
X0129100Y0101333D03*
D136*
X0129300Y0100933D03*
D137*
X0145750Y0101933D03*
X0145750Y0102033D03*
X0145750Y0102133D03*
D138*
X0138450Y0105133D03*
X0138450Y0105233D03*
X0138450Y0105333D03*
D139*
X0138450Y0105533D03*
X0138450Y0105633D03*
X0138450Y0105733D03*
D140*
X0138450Y0105833D03*
X0138450Y0105933D03*
D141*
X0138450Y0106033D03*
X0138450Y0106133D03*
X0138450Y0106233D03*
D142*
X0167831Y0039188D02*
X0203264Y0039188D01*
X0203264Y0008479D01*
X0167831Y0008479D01*
X0167831Y0039188D01*
X0181610Y0026786D02*
X0201295Y0028755D01*
X0201295Y0031707D02*
X0183579Y0029739D01*
X0181610Y0026786D02*
X0181610Y0020881D01*
X0201295Y0018912D01*
X0201295Y0015959D02*
X0185547Y0017928D01*
X0185547Y0010054D02*
X0201295Y0012022D01*
X0201295Y0015959D01*
X0201295Y0031707D02*
X0201295Y0035644D01*
X0183579Y0037613D01*
M02*
